<?xml version="1.0" encoding="UTF-8"?>
<?xml-stylesheet href="https://cdnjs.cloudflare.com/ajax/libs/font-awesome/6.7.2/css/all.min.css" type="text/css"?>
<svg id="graph-4" width="100%" xmlns="http://www.w3.org/2000/svg" style="overflow: hidden; max-width: 100%; touch-action: none; user-select: none; -webkit-user-drag: none; -webkit-tap-highlight-color: rgba(0, 0, 0, 0);" role="graphics-document document" aria-roledescription="timeline" height="100%" xmlns:xlink="http://www.w3.org/1999/xlink" xmlns:ev="http://www.w3.org/2001/xml-events"><defs><marker id="arrowhead" refX="5" refY="2" markerWidth="6" markerHeight="4" orient="auto"><path d="M 0,0 V 4 L6,2 Z"></path></marker></defs><g id="viewport-20250729112738346" class="svg-pan-zoom_viewport" transform="matrix(0.9157707176713585,0,0,0.9157707176713585,149.01186805713746,20.733169881800208)" style="transform: matrix(0.915771, 0, 0, 0.915771, 149.012, 20.7332);"><style>#graph-4{font-family:"trebuchet ms",verdana,arial,sans-serif;font-size:16px;fill:#ccc;}@keyframes edge-animation-frame{from{stroke-dashoffset:0;}}@keyframes dash{to{stroke-dashoffset:0;}}#graph-4 .edge-animation-slow{stroke-dasharray:9,5!important;stroke-dashoffset:900;animation:dash 50s linear infinite;stroke-linecap:round;}#graph-4 .edge-animation-fast{stroke-dasharray:9,5!important;stroke-dashoffset:900;animation:dash 20s linear infinite;stroke-linecap:round;}#graph-4 .error-icon{fill:#a44141;}#graph-4 .error-text{fill:#ddd;stroke:#ddd;}#graph-4 .edge-thickness-normal{stroke-width:1px;}#graph-4 .edge-thickness-thick{stroke-width:3.5px;}#graph-4 .edge-pattern-solid{stroke-dasharray:0;}#graph-4 .edge-thickness-invisible{stroke-width:0;fill:none;}#graph-4 .edge-pattern-dashed{stroke-dasharray:3;}#graph-4 .edge-pattern-dotted{stroke-dasharray:2;}#graph-4 .marker{fill:lightgrey;stroke:lightgrey;}#graph-4 .marker.cross{stroke:lightgrey;}#graph-4 svg{font-family:"trebuchet ms",verdana,arial,sans-serif;font-size:16px;}#graph-4 p{margin:0;}#graph-4 .edge{stroke-width:3;}#graph-4 .section--1 rect,#graph-4 .section--1 path,#graph-4 .section--1 circle,#graph-4 .section--1 path{fill:#1f2020;}#graph-4 .section--1 text{fill:lightgrey;}#graph-4 .node-icon--1{font-size:40px;color:lightgrey;}#graph-4 .section-edge--1{stroke:#1f2020;}#graph-4 .edge-depth--1{stroke-width:17;}#graph-4 .section--1 line{stroke:#e0dfdf;stroke-width:3;}#graph-4 .lineWrapper line{stroke:lightgrey;}#graph-4 .disabled,#graph-4 .disabled circle,#graph-4 .disabled text{fill:lightgray;}#graph-4 .disabled text{fill:#efefef;}#graph-4 .section-0 rect,#graph-4 .section-0 path,#graph-4 .section-0 circle,#graph-4 .section-0 path{fill:#0b0000;}#graph-4 .section-0 text{fill:lightgrey;}#graph-4 .node-icon-0{font-size:40px;color:lightgrey;}#graph-4 .section-edge-0{stroke:#0b0000;}#graph-4 .edge-depth-0{stroke-width:14;}#graph-4 .section-0 line{stroke:#f4ffff;stroke-width:3;}#graph-4 .lineWrapper line{stroke:lightgrey;}#graph-4 .disabled,#graph-4 .disabled circle,#graph-4 .disabled text{fill:lightgray;}#graph-4 .disabled text{fill:#efefef;}#graph-4 .section-1 rect,#graph-4 .section-1 path,#graph-4 .section-1 circle,#graph-4 .section-1 path{fill:#4d1037;}#graph-4 .section-1 text{fill:lightgrey;}#graph-4 .node-icon-1{font-size:40px;color:lightgrey;}#graph-4 .section-edge-1{stroke:#4d1037;}#graph-4 .edge-depth-1{stroke-width:11;}#graph-4 .section-1 line{stroke:#b2efc8;stroke-width:3;}#graph-4 .lineWrapper line{stroke:lightgrey;}#graph-4 .disabled,#graph-4 .disabled circle,#graph-4 .disabled text{fill:lightgray;}#graph-4 .disabled text{fill:#efefef;}#graph-4 .section-2 rect,#graph-4 .section-2 path,#graph-4 .section-2 circle,#graph-4 .section-2 path{fill:#3f5258;}#graph-4 .section-2 text{fill:lightgrey;}#graph-4 .node-icon-2{font-size:40px;color:lightgrey;}#graph-4 .section-edge-2{stroke:#3f5258;}#graph-4 .edge-depth-2{stroke-width:8;}#graph-4 .section-2 line{stroke:#c0ada7;stroke-width:3;}#graph-4 .lineWrapper line{stroke:lightgrey;}#graph-4 .disabled,#graph-4 .disabled circle,#graph-4 .disabled text{fill:lightgray;}#graph-4 .disabled text{fill:#efefef;}#graph-4 .section-3 rect,#graph-4 .section-3 path,#graph-4 .section-3 circle,#graph-4 .section-3 path{fill:#4f2f1b;}#graph-4 .section-3 text{fill:lightgrey;}#graph-4 .node-icon-3{font-size:40px;color:lightgrey;}#graph-4 .section-edge-3{stroke:#4f2f1b;}#graph-4 .edge-depth-3{stroke-width:5;}#graph-4 .section-3 line{stroke:#b0d0e4;stroke-width:3;}#graph-4 .lineWrapper line{stroke:lightgrey;}#graph-4 .disabled,#graph-4 .disabled circle,#graph-4 .disabled text{fill:lightgray;}#graph-4 .disabled text{fill:#efefef;}#graph-4 .section-4 rect,#graph-4 .section-4 path,#graph-4 .section-4 circle,#graph-4 .section-4 path{fill:#6e0a0a;}#graph-4 .section-4 text{fill:lightgrey;}#graph-4 .node-icon-4{font-size:40px;color:lightgrey;}#graph-4 .section-edge-4{stroke:#6e0a0a;}#graph-4 .edge-depth-4{stroke-width:2;}#graph-4 .section-4 line{stroke:#91f5f5;stroke-width:3;}#graph-4 .lineWrapper line{stroke:lightgrey;}#graph-4 .disabled,#graph-4 .disabled circle,#graph-4 .disabled text{fill:lightgray;}#graph-4 .disabled text{fill:#efefef;}#graph-4 .section-5 rect,#graph-4 .section-5 path,#graph-4 .section-5 circle,#graph-4 .section-5 path{fill:#3b0048;}#graph-4 .section-5 text{fill:lightgrey;}#graph-4 .node-icon-5{font-size:40px;color:lightgrey;}#graph-4 .section-edge-5{stroke:#3b0048;}#graph-4 .edge-depth-5{stroke-width:-1;}#graph-4 .section-5 line{stroke:#c4ffb7;stroke-width:3;}#graph-4 .lineWrapper line{stroke:lightgrey;}#graph-4 .disabled,#graph-4 .disabled circle,#graph-4 .disabled text{fill:lightgray;}#graph-4 .disabled text{fill:#efefef;}#graph-4 .section-6 rect,#graph-4 .section-6 path,#graph-4 .section-6 circle,#graph-4 .section-6 path{fill:#995a01;}#graph-4 .section-6 text{fill:lightgrey;}#graph-4 .node-icon-6{font-size:40px;color:lightgrey;}#graph-4 .section-edge-6{stroke:#995a01;}#graph-4 .edge-depth-6{stroke-width:-4;}#graph-4 .section-6 line{stroke:#66a5fe;stroke-width:3;}#graph-4 .lineWrapper line{stroke:lightgrey;}#graph-4 .disabled,#graph-4 .disabled circle,#graph-4 .disabled text{fill:lightgray;}#graph-4 .disabled text{fill:#efefef;}#graph-4 .section-7 rect,#graph-4 .section-7 path,#graph-4 .section-7 circle,#graph-4 .section-7 path{fill:#154706;}#graph-4 .section-7 text{fill:lightgrey;}#graph-4 .node-icon-7{font-size:40px;color:lightgrey;}#graph-4 .section-edge-7{stroke:#154706;}#graph-4 .edge-depth-7{stroke-width:-7;}#graph-4 .section-7 line{stroke:#eab8f9;stroke-width:3;}#graph-4 .lineWrapper line{stroke:lightgrey;}#graph-4 .disabled,#graph-4 .disabled circle,#graph-4 .disabled text{fill:lightgray;}#graph-4 .disabled text{fill:#efefef;}#graph-4 .section-8 rect,#graph-4 .section-8 path,#graph-4 .section-8 circle,#graph-4 .section-8 path{fill:#161722;}#graph-4 .section-8 text{fill:lightgrey;}#graph-4 .node-icon-8{font-size:40px;color:lightgrey;}#graph-4 .section-edge-8{stroke:#161722;}#graph-4 .edge-depth-8{stroke-width:-10;}#graph-4 .section-8 line{stroke:#e9e8dd;stroke-width:3;}#graph-4 .lineWrapper line{stroke:lightgrey;}#graph-4 .disabled,#graph-4 .disabled circle,#graph-4 .disabled text{fill:lightgray;}#graph-4 .disabled text{fill:#efefef;}#graph-4 .section-9 rect,#graph-4 .section-9 path,#graph-4 .section-9 circle,#graph-4 .section-9 path{fill:#00296f;}#graph-4 .section-9 text{fill:lightgrey;}#graph-4 .node-icon-9{font-size:40px;color:lightgrey;}#graph-4 .section-edge-9{stroke:#00296f;}#graph-4 .edge-depth-9{stroke-width:-13;}#graph-4 .section-9 line{stroke:#ffd690;stroke-width:3;}#graph-4 .lineWrapper line{stroke:lightgrey;}#graph-4 .disabled,#graph-4 .disabled circle,#graph-4 .disabled text{fill:lightgray;}#graph-4 .disabled text{fill:#efefef;}#graph-4 .section-10 rect,#graph-4 .section-10 path,#graph-4 .section-10 circle,#graph-4 .section-10 path{fill:#01629c;}#graph-4 .section-10 text{fill:lightgrey;}#graph-4 .node-icon-10{font-size:40px;color:lightgrey;}#graph-4 .section-edge-10{stroke:#01629c;}#graph-4 .edge-depth-10{stroke-width:-16;}#graph-4 .section-10 line{stroke:#fe9d63;stroke-width:3;}#graph-4 .lineWrapper line{stroke:lightgrey;}#graph-4 .disabled,#graph-4 .disabled circle,#graph-4 .disabled text{fill:lightgray;}#graph-4 .disabled text{fill:#efefef;}#graph-4 .section-root rect,#graph-4 .section-root path,#graph-4 .section-root circle{fill:hsl(180, 1.5873015873%, 48.3529411765%);}#graph-4 .section-root text{fill:#2c2c2c;}#graph-4 .icon-container{height:100%;display:flex;justify-content:center;align-items:center;}#graph-4 .edge{fill:none;}#graph-4 .eventWrapper{filter:brightness(120%);}#graph-4 :root{--mermaid-font-family:"trebuchet ms",verdana,arial,sans-serif;}</style><g></g><g></g><g class="taskWrapper" transform="translate(100, 50)"><g class="timeline-node section--1"><g><path id="node-undefined" class="node-bkg node-undefined" d="M0 62.8 v-57.8 q0,-5 5,-5 h180 q5,0 5,5 v62.8 H0 Z"></path><line class="node-line--1" x1="0" y1="67.8" x2="190" y2="67.8"></line></g><g transform="translate(95, 10)"><text dy="1em" alignment-baseline="middle" dominant-baseline="middle" text-anchor="middle"><tspan x="0" dy="1em">2025</tspan></text></g></g></g><g class="lineWrapper"><line x1="195" y1="117.8" x2="195" y2="893.3999893188477" stroke-width="2" stroke="black" marker-end="url(#arrowhead)" stroke-dasharray="5,5"></line></g><g class="eventWrapper" transform="translate(100, 250)"><g class="timeline-node section--1"><g><path id="node-undefined" class="node-bkg node-undefined" d="M0 45 v-40 q0,-5 5,-5 h180 q5,0 5,5 v45 H0 Z"></path><line class="node-line--1" x1="0" y1="50" x2="190" y2="50"></line></g><g transform="translate(95, 10)"><text dy="1em" alignment-baseline="middle" dominant-baseline="middle" text-anchor="middle"><tspan x="0" dy="1em">Q3   2025</tspan></text></g></g></g><g class="eventWrapper" transform="translate(100, 310)"><g class="timeline-node section--1"><g><path id="node-undefined" class="node-bkg node-undefined" d="M0 60.39999847412109 v-55.39999847412109 q0,-5 5,-5 h180 q5,0 5,5 v60.39999847412109 H0 Z"></path><line class="node-line--1" x1="0" y1="65.39999847412109" x2="190" y2="65.39999847412109"></line></g><g transform="translate(95, 10)"><text dy="1em" alignment-baseline="middle" dominant-baseline="middle" text-anchor="middle"><tspan x="0" dy="1em">Finalise   institutional</tspan><tspan x="0" dy="1.1em">partnerships</tspan></text></g></g></g><g class="eventWrapper" transform="translate(100, 385.3999984741211)"><g class="timeline-node section--1"><g><path id="node-undefined" class="node-bkg node-undefined" d="M0 45 v-40 q0,-5 5,-5 h180 q5,0 5,5 v45 H0 Z"></path><line class="node-line--1" x1="0" y1="50" x2="190" y2="50"></line></g><g transform="translate(95, 10)"><text dy="1em" alignment-baseline="middle" dominant-baseline="middle" text-anchor="middle"><tspan x="0" dy="1em">Q4   2025</tspan></text></g></g></g><g class="eventWrapper" transform="translate(100, 445.3999984741211)"><g class="timeline-node section--1"><g><path id="node-undefined" class="node-bkg node-undefined" d="M0 60.39999847412109 v-55.39999847412109 q0,-5 5,-5 h180 q5,0 5,5 v60.39999847412109 H0 Z"></path><line class="node-line--1" x1="0" y1="65.39999847412109" x2="190" y2="65.39999847412109"></line></g><g transform="translate(95, 10)"><text dy="1em" alignment-baseline="middle" dominant-baseline="middle" text-anchor="middle"><tspan x="0" dy="1em">Submit   SNSF/DFG</tspan><tspan x="0" dy="1.1em">Weave   application</tspan></text></g></g></g><g class="taskWrapper" transform="translate(300, 50)"><g class="timeline-node section-0"><g><path id="node-undefined" class="node-bkg node-undefined" d="M0 62.8 v-57.8 q0,-5 5,-5 h180 q5,0 5,5 v62.8 H0 Z"></path><line class="node-line-0" x1="0" y1="67.8" x2="190" y2="67.8"></line></g><g transform="translate(95, 10)"><text dy="1em" alignment-baseline="middle" dominant-baseline="middle" text-anchor="middle"><tspan x="0" dy="1em">2026</tspan></text></g></g></g><g class="lineWrapper"><line x1="395" y1="117.8" x2="395" y2="893.3999893188477" stroke-width="2" stroke="black" marker-end="url(#arrowhead)" stroke-dasharray="5,5"></line></g><g class="eventWrapper" transform="translate(300, 250)"><g class="timeline-node section-0"><g><path id="node-undefined" class="node-bkg node-undefined" d="M0 45 v-40 q0,-5 5,-5 h180 q5,0 5,5 v45 H0 Z"></path><line class="node-line-0" x1="0" y1="50" x2="190" y2="50"></line></g><g transform="translate(95, 10)"><text dy="1em" alignment-baseline="middle" dominant-baseline="middle" text-anchor="middle"><tspan x="0" dy="1em">Q1   2026</tspan></text></g></g></g><g class="eventWrapper" transform="translate(300, 310)"><g class="timeline-node section-0"><g><path id="node-undefined" class="node-bkg node-undefined" d="M0 45 v-40 q0,-5 5,-5 h180 q5,0 5,5 v45 H0 Z"></path><line class="node-line-0" x1="0" y1="50" x2="190" y2="50"></line></g><g transform="translate(95, 10)"><text dy="1em" alignment-baseline="middle" dominant-baseline="middle" text-anchor="middle"><tspan x="0" dy="1em">Funding   decision</tspan></text></g></g></g><g class="eventWrapper" transform="translate(300, 370)"><g class="timeline-node section-0"><g><path id="node-undefined" class="node-bkg node-undefined" d="M0 45 v-40 q0,-5 5,-5 h180 q5,0 5,5 v45 H0 Z"></path><line class="node-line-0" x1="0" y1="50" x2="190" y2="50"></line></g><g transform="translate(95, 10)"><text dy="1em" alignment-baseline="middle" dominant-baseline="middle" text-anchor="middle"><tspan x="0" dy="1em">Q3   2026</tspan></text></g></g></g><g class="eventWrapper" transform="translate(300, 430)"><g class="timeline-node section-0"><g><path id="node-undefined" class="node-bkg node-undefined" d="M0 77.99999694824218 v-72.99999694824218 q0,-5 5,-5 h180 q5,0 5,5 v77.99999694824218 H0 Z"></path><line class="node-line-0" x1="0" y1="82.99999694824218" x2="190" y2="82.99999694824218"></line></g><g transform="translate(95, 10)"><text dy="1em" alignment-baseline="middle" dominant-baseline="middle" text-anchor="middle"><tspan x="0" dy="1em">Project   launch</tspan><tspan x="0" dy="1.1em">(aligned   with   Flow</tspan><tspan x="0" dy="1.1em">completion)</tspan></text></g></g></g><g class="eventWrapper" transform="translate(300, 522.9999969482421)"><g class="timeline-node section-0"><g><path id="node-undefined" class="node-bkg node-undefined" d="M0 45 v-40 q0,-5 5,-5 h180 q5,0 5,5 v45 H0 Z"></path><line class="node-line-0" x1="0" y1="50" x2="190" y2="50"></line></g><g transform="translate(95, 10)"><text dy="1em" alignment-baseline="middle" dominant-baseline="middle" text-anchor="middle"><tspan x="0" dy="1em">Q4   2026</tspan></text></g></g></g><g class="eventWrapper" transform="translate(300, 582.9999969482421)"><g class="timeline-node section-0"><g><path id="node-undefined" class="node-bkg node-undefined" d="M0 60.39999847412109 v-55.39999847412109 q0,-5 5,-5 h180 q5,0 5,5 v60.39999847412109 H0 Z"></path><line class="node-line-0" x1="0" y1="65.39999847412109" x2="190" y2="65.39999847412109"></line></g><g transform="translate(95, 10)"><text dy="1em" alignment-baseline="middle" dominant-baseline="middle" text-anchor="middle"><tspan x="0" dy="1em">Team   assembly   and</tspan><tspan x="0" dy="1.1em">infrastructure   setup</tspan></text></g></g></g><g class="taskWrapper" transform="translate(500, 50)"><g class="timeline-node section-1"><g><path id="node-undefined" class="node-bkg node-undefined" d="M0 62.8 v-57.8 q0,-5 5,-5 h180 q5,0 5,5 v62.8 H0 Z"></path><line class="node-line-1" x1="0" y1="67.8" x2="190" y2="67.8"></line></g><g transform="translate(95, 10)"><text dy="1em" alignment-baseline="middle" dominant-baseline="middle" text-anchor="middle"><tspan x="0" dy="1em">2027</tspan></text></g></g></g><g class="lineWrapper"><line x1="595" y1="117.8" x2="595" y2="893.3999893188477" stroke-width="2" stroke="black" marker-end="url(#arrowhead)" stroke-dasharray="5,5"></line></g><g class="eventWrapper" transform="translate(500, 250)"><g class="timeline-node section-1"><g><path id="node-undefined" class="node-bkg node-undefined" d="M0 45 v-40 q0,-5 5,-5 h180 q5,0 5,5 v45 H0 Z"></path><line class="node-line-1" x1="0" y1="50" x2="190" y2="50"></line></g><g transform="translate(95, 10)"><text dy="1em" alignment-baseline="middle" dominant-baseline="middle" text-anchor="middle"><tspan x="0" dy="1em">Q1   2027</tspan></text></g></g></g><g class="eventWrapper" transform="translate(500, 310)"><g class="timeline-node section-1"><g><path id="node-undefined" class="node-bkg node-undefined" d="M0 77.99999694824218 v-72.99999694824218 q0,-5 5,-5 h180 q5,0 5,5 v77.99999694824218 H0 Z"></path><line class="node-line-1" x1="0" y1="82.99999694824218" x2="190" y2="82.99999694824218"></line></g><g transform="translate(95, 10)"><text dy="1em" alignment-baseline="middle" dominant-baseline="middle" text-anchor="middle"><tspan x="0" dy="1em">Conceptualisation</tspan><tspan x="0" dy="1.1em">and   requirements</tspan><tspan x="0" dy="1.1em">analysis</tspan></text></g></g></g><g class="eventWrapper" transform="translate(500, 402.9999969482422)"><g class="timeline-node section-1"><g><path id="node-undefined" class="node-bkg node-undefined" d="M0 45 v-40 q0,-5 5,-5 h180 q5,0 5,5 v45 H0 Z"></path><line class="node-line-1" x1="0" y1="50" x2="190" y2="50"></line></g><g transform="translate(95, 10)"><text dy="1em" alignment-baseline="middle" dominant-baseline="middle" text-anchor="middle"><tspan x="0" dy="1em">Q2   2027</tspan></text></g></g></g><g class="eventWrapper" transform="translate(500, 462.9999969482422)"><g class="timeline-node section-1"><g><path id="node-undefined" class="node-bkg node-undefined" d="M0 60.39999847412109 v-55.39999847412109 q0,-5 5,-5 h180 q5,0 5,5 v60.39999847412109 H0 Z"></path><line class="node-line-1" x1="0" y1="65.39999847412109" x2="190" y2="65.39999847412109"></line></g><g transform="translate(95, 10)"><text dy="1em" alignment-baseline="middle" dominant-baseline="middle" text-anchor="middle"><tspan x="0" dy="1em">IIIF-HTR   integration</tspan><tspan x="0" dy="1.1em">development   begins</tspan></text></g></g></g><g class="eventWrapper" transform="translate(500, 538.3999954223633)"><g class="timeline-node section-1"><g><path id="node-undefined" class="node-bkg node-undefined" d="M0 45 v-40 q0,-5 5,-5 h180 q5,0 5,5 v45 H0 Z"></path><line class="node-line-1" x1="0" y1="50" x2="190" y2="50"></line></g><g transform="translate(95, 10)"><text dy="1em" alignment-baseline="middle" dominant-baseline="middle" text-anchor="middle"><tspan x="0" dy="1em">Q4   2027</tspan></text></g></g></g><g class="eventWrapper" transform="translate(500, 598.3999954223633)"><g class="timeline-node section-1"><g><path id="node-undefined" class="node-bkg node-undefined" d="M0 77.99999694824218 v-72.99999694824218 q0,-5 5,-5 h180 q5,0 5,5 v77.99999694824218 H0 Z"></path><line class="node-line-1" x1="0" y1="82.99999694824218" x2="190" y2="82.99999694824218"></line></g><g transform="translate(95, 10)"><text dy="1em" alignment-baseline="middle" dominant-baseline="middle" text-anchor="middle"><tspan x="0" dy="1em">First   HTR-IIIF   Web</tspan><tspan x="0" dy="1.1em">Annotations</tspan><tspan x="0" dy="1.1em">prototype</tspan></text></g></g></g><g class="taskWrapper" transform="translate(700, 50)"><g class="timeline-node section-2"><g><path id="node-undefined" class="node-bkg node-undefined" d="M0 62.8 v-57.8 q0,-5 5,-5 h180 q5,0 5,5 v62.8 H0 Z"></path><line class="node-line-2" x1="0" y1="67.8" x2="190" y2="67.8"></line></g><g transform="translate(95, 10)"><text dy="1em" alignment-baseline="middle" dominant-baseline="middle" text-anchor="middle"><tspan x="0" dy="1em">2028</tspan></text></g></g></g><g class="lineWrapper"><line x1="795" y1="117.8" x2="795" y2="893.3999893188477" stroke-width="2" stroke="black" marker-end="url(#arrowhead)" stroke-dasharray="5,5"></line></g><g class="eventWrapper" transform="translate(700, 250)"><g class="timeline-node section-2"><g><path id="node-undefined" class="node-bkg node-undefined" d="M0 45 v-40 q0,-5 5,-5 h180 q5,0 5,5 v45 H0 Z"></path><line class="node-line-2" x1="0" y1="50" x2="190" y2="50"></line></g><g transform="translate(95, 10)"><text dy="1em" alignment-baseline="middle" dominant-baseline="middle" text-anchor="middle"><tspan x="0" dy="1em">Q1   2028</tspan></text></g></g></g><g class="eventWrapper" transform="translate(700, 310)"><g class="timeline-node section-2"><g><path id="node-undefined" class="node-bkg node-undefined" d="M0 60.39999847412109 v-55.39999847412109 q0,-5 5,-5 h180 q5,0 5,5 v60.39999847412109 H0 Z"></path><line class="node-line-2" x1="0" y1="65.39999847412109" x2="190" y2="65.39999847412109"></line></g><g transform="translate(95, 10)"><text dy="1em" alignment-baseline="middle" dominant-baseline="middle" text-anchor="middle"><tspan x="0" dy="1em">RAG   system</tspan><tspan x="0" dy="1.1em">architecture   design</tspan></text></g></g></g><g class="eventWrapper" transform="translate(700, 385.3999984741211)"><g class="timeline-node section-2"><g><path id="node-undefined" class="node-bkg node-undefined" d="M0 45 v-40 q0,-5 5,-5 h180 q5,0 5,5 v45 H0 Z"></path><line class="node-line-2" x1="0" y1="50" x2="190" y2="50"></line></g><g transform="translate(95, 10)"><text dy="1em" alignment-baseline="middle" dominant-baseline="middle" text-anchor="middle"><tspan x="0" dy="1em">Q2   2028</tspan></text></g></g></g><g class="eventWrapper" transform="translate(700, 445.3999984741211)"><g class="timeline-node section-2"><g><path id="node-undefined" class="node-bkg node-undefined" d="M0 77.99999694824218 v-72.99999694824218 q0,-5 5,-5 h180 q5,0 5,5 v77.99999694824218 H0 Z"></path><line class="node-line-2" x1="0" y1="82.99999694824218" x2="190" y2="82.99999694824218"></line></g><g transform="translate(95, 10)"><text dy="1em" alignment-baseline="middle" dominant-baseline="middle" text-anchor="middle"><tspan x="0" dy="1em">White   Paper   "GLAM</tspan><tspan x="0" dy="1.1em">AI   Integration</tspan><tspan x="0" dy="1.1em">Standards"</tspan></text></g></g></g><g class="eventWrapper" transform="translate(700, 538.3999954223633)"><g class="timeline-node section-2"><g><path id="node-undefined" class="node-bkg node-undefined" d="M0 45 v-40 q0,-5 5,-5 h180 q5,0 5,5 v45 H0 Z"></path><line class="node-line-2" x1="0" y1="50" x2="190" y2="50"></line></g><g transform="translate(95, 10)"><text dy="1em" alignment-baseline="middle" dominant-baseline="middle" text-anchor="middle"><tspan x="0" dy="1em">Q3   2028</tspan></text></g></g></g><g class="eventWrapper" transform="translate(700, 598.3999954223633)"><g class="timeline-node section-2"><g><path id="node-undefined" class="node-bkg node-undefined" d="M0 77.99999694824218 v-72.99999694824218 q0,-5 5,-5 h180 q5,0 5,5 v77.99999694824218 H0 Z"></path><line class="node-line-2" x1="0" y1="82.99999694824218" x2="190" y2="82.99999694824218"></line></g><g transform="translate(95, 10)"><text dy="1em" alignment-baseline="middle" dominant-baseline="middle" text-anchor="middle"><tspan x="0" dy="1em">Pilot   deployment</tspan><tspan x="0" dy="1.1em">with   e-rara</tspan><tspan x="0" dy="1.1em">institutions</tspan></text></g></g></g><g class="eventWrapper" transform="translate(700, 691.3999923706054)"><g class="timeline-node section-2"><g><path id="node-undefined" class="node-bkg node-undefined" d="M0 45 v-40 q0,-5 5,-5 h180 q5,0 5,5 v45 H0 Z"></path><line class="node-line-2" x1="0" y1="50" x2="190" y2="50"></line></g><g transform="translate(95, 10)"><text dy="1em" alignment-baseline="middle" dominant-baseline="middle" text-anchor="middle"><tspan x="0" dy="1em">Q4   2028</tspan></text></g></g></g><g class="eventWrapper" transform="translate(700, 751.3999923706054)"><g class="timeline-node section-2"><g><path id="node-undefined" class="node-bkg node-undefined" d="M0 77.99999694824218 v-72.99999694824218 q0,-5 5,-5 h180 q5,0 5,5 v77.99999694824218 H0 Z"></path><line class="node-line-2" x1="0" y1="82.99999694824218" x2="190" y2="82.99999694824218"></line></g><g transform="translate(95, 10)"><text dy="1em" alignment-baseline="middle" dominant-baseline="middle" text-anchor="middle"><tspan x="0" dy="1em">RAG-enhanced</tspan><tspan x="0" dy="1.1em">discovery   system</tspan><tspan x="0" dy="1.1em">launch</tspan></text></g></g></g><g class="taskWrapper" transform="translate(900, 50)"><g class="timeline-node section-3"><g><path id="node-undefined" class="node-bkg node-undefined" d="M0 62.8 v-57.8 q0,-5 5,-5 h180 q5,0 5,5 v62.8 H0 Z"></path><line class="node-line-3" x1="0" y1="67.8" x2="190" y2="67.8"></line></g><g transform="translate(95, 10)"><text dy="1em" alignment-baseline="middle" dominant-baseline="middle" text-anchor="middle"><tspan x="0" dy="1em">2029</tspan></text></g></g></g><g class="lineWrapper"><line x1="995" y1="117.8" x2="995" y2="893.3999893188477" stroke-width="2" stroke="black" marker-end="url(#arrowhead)" stroke-dasharray="5,5"></line></g><g class="eventWrapper" transform="translate(900, 250)"><g class="timeline-node section-3"><g><path id="node-undefined" class="node-bkg node-undefined" d="M0 45 v-40 q0,-5 5,-5 h180 q5,0 5,5 v45 H0 Z"></path><line class="node-line-3" x1="0" y1="50" x2="190" y2="50"></line></g><g transform="translate(95, 10)"><text dy="1em" alignment-baseline="middle" dominant-baseline="middle" text-anchor="middle"><tspan x="0" dy="1em">Q1   2029</tspan></text></g></g></g><g class="eventWrapper" transform="translate(900, 310)"><g class="timeline-node section-3"><g><path id="node-undefined" class="node-bkg node-undefined" d="M0 77.99999694824218 v-72.99999694824218 q0,-5 5,-5 h180 q5,0 5,5 v77.99999694824218 H0 Z"></path><line class="node-line-3" x1="0" y1="82.99999694824218" x2="190" y2="82.99999694824218"></line></g><g transform="translate(95, 10)"><text dy="1em" alignment-baseline="middle" dominant-baseline="middle" text-anchor="middle"><tspan x="0" dy="1em">Final   evaluation   and</tspan><tspan x="0" dy="1.1em">sustainability</tspan><tspan x="0" dy="1.1em">planning</tspan></text></g></g></g><g class="eventWrapper" transform="translate(900, 402.9999969482422)"><g class="timeline-node section-3"><g><path id="node-undefined" class="node-bkg node-undefined" d="M0 45 v-40 q0,-5 5,-5 h180 q5,0 5,5 v45 H0 Z"></path><line class="node-line-3" x1="0" y1="50" x2="190" y2="50"></line></g><g transform="translate(95, 10)"><text dy="1em" alignment-baseline="middle" dominant-baseline="middle" text-anchor="middle"><tspan x="0" dy="1em">Q2   2029</tspan></text></g></g></g><g class="eventWrapper" transform="translate(900, 462.9999969482422)"><g class="timeline-node section-3"><g><path id="node-undefined" class="node-bkg node-undefined" d="M0 60.39999847412109 v-55.39999847412109 q0,-5 5,-5 h180 q5,0 5,5 v60.39999847412109 H0 Z"></path><line class="node-line-3" x1="0" y1="65.39999847412109" x2="190" y2="65.39999847412109"></line></g><g transform="translate(95, 10)"><text dy="1em" alignment-baseline="middle" dominant-baseline="middle" text-anchor="middle"><tspan x="0" dy="1em">End   of   project   and</tspan><tspan x="0" dy="1.1em">knowledge   transfer</tspan></text></g></g></g><text x="445" font-size="4ex" font-weight="bold" y="20">Flow 2: Project Timeline</text><g class="lineWrapper"><line x1="50" y1="167.8" x2="1140" y2="167.8" stroke-width="4" stroke="black" marker-end="url(#arrowhead)"></line></g></g></svg>