<?xml version="1.0" encoding="UTF-8"?>
<svg xmlns="http://www.w3.org/2000/svg" xmlns:xlink="http://www.w3.org/1999/xlink" width="813pt" height="529pt" viewBox="0 0 813 529" version="1.1">
<g id="surface1">
<rect x="0" y="0" width="813" height="529" style="fill:rgb(100%,100%,100%);fill-opacity:1;stroke:none;"/>
<path style="fill:none;stroke-width:3;stroke-linecap:round;stroke-linejoin:round;stroke:rgb(0%,0%,0%);stroke-opacity:1;stroke-miterlimit:10;" d="M 453.902344 265 C 453.902344 351.292969 383.949219 421.25 297.652344 421.25 C 211.359375 421.25 141.402344 351.292969 141.402344 265 C 141.402344 178.707031 211.359375 108.75 297.652344 108.75 C 383.949219 108.75 453.902344 178.707031 453.902344 265 Z M 453.902344 265 "/>
<path style="fill:none;stroke-width:3;stroke-linecap:round;stroke-linejoin:round;stroke:rgb(0%,0%,0%);stroke-opacity:1;stroke-miterlimit:10;" d="M 675.058594 265 C 675.058594 351.292969 605.101562 421.25 518.808594 421.25 C 432.511719 421.25 362.558594 351.292969 362.558594 265 C 362.558594 178.707031 432.511719 108.75 518.808594 108.75 C 605.101562 108.75 675.058594 178.707031 675.058594 265 Z M 675.058594 265 "/>
<path style="fill:none;stroke-width:5;stroke-linecap:round;stroke-linejoin:round;stroke:rgb(0%,0%,0%);stroke-opacity:1;stroke-miterlimit:10;" d="M 792.847656 24.617188 L 23.617188 24.617188 "/>
<path style="fill:none;stroke-width:5;stroke-linecap:round;stroke-linejoin:round;stroke:rgb(0%,0%,0%);stroke-opacity:1;stroke-miterlimit:10;" d="M 792.847656 505.382812 L 792.847656 24.617188 "/>
<path style="fill:none;stroke-width:5;stroke-linecap:round;stroke-linejoin:round;stroke:rgb(0%,0%,0%);stroke-opacity:1;stroke-miterlimit:10;" d="M 23.617188 505.382812 L 23.617188 24.617188 "/>
<path style="fill:none;stroke-width:5;stroke-linecap:round;stroke-linejoin:round;stroke:rgb(0%,0%,0%);stroke-opacity:1;stroke-miterlimit:10;" d="M 23.617188 505.382812 L 792.847656 505.382812 "/>
<path style=" stroke:none;fill-rule:nonzero;fill:rgb(0%,0%,0%);fill-opacity:1;" d="M 64.5 36.550781 L 62.136719 46.113281 C 62.136719 46.113281 61.949219 46.789062 61.761719 46.824219 L 61.726562 46.863281 L 61.460938 46.863281 C 61.460938 46.863281 60.898438 46.863281 60.898438 46.488281 L 61.011719 44.648438 L 61.011719 44.574219 C 61.011719 44.574219 61.011719 39.925781 58.085938 38.164062 L 58.050781 38.125 C 58.050781 38.125 56.738281 37.335938 54.976562 37.335938 C 54.976562 37.335938 51 37.335938 47.4375 40.300781 C 47.4375 40.300781 46.539062 41.011719 45.824219 41.875 C 45.824219 41.875 42.261719 46.039062 41.4375 52.449219 C 41.4375 52.449219 41.289062 53.613281 41.289062 54.476562 C 41.289062 54.476562 41.289062 59.726562 45.261719 61.5625 C 45.261719 61.5625 46.800781 62.273438 48.636719 62.273438 C 48.636719 62.273438 52.164062 62.273438 55.539062 59.539062 C 55.539062 59.539062 58.164062 57.324219 59.324219 53.613281 C 59.324219 53.613281 59.398438 53.238281 59.8125 53.238281 C 59.8125 53.238281 60.261719 53.238281 60.261719 53.613281 C 60.261719 53.613281 60.261719 54.289062 59.398438 56.011719 C 59.398438 56.011719 58.238281 58.375 56.136719 60.210938 C 56.136719 60.210938 52.425781 63.4375 48.039062 63.4375 C 48.039062 63.4375 43.238281 63.4375 40.351562 60.136719 C 40.351562 60.136719 37.875 57.324219 37.875 53.164062 C 37.875 53.164062 37.875 47.574219 41.960938 42.699219 C 41.960938 42.699219 45.75 38.164062 50.925781 36.699219 C 50.925781 36.699219 52.835938 36.175781 54.675781 36.175781 C 54.675781 36.175781 58.761719 36.175781 60.898438 39.511719 L 63.523438 36.625 C 63.523438 36.625 63.976562 36.175781 64.085938 36.175781 C 64.085938 36.175781 64.5 36.175781 64.5 36.550781 Z M 64.5 36.550781 "/>
<path style=" stroke:none;fill-rule:nonzero;fill:rgb(0%,0%,0%);fill-opacity:1;" d="M 83.101562 52.375 C 83.101562 52.375 83.101562 56.351562 80.0625 59.613281 C 80.0625 59.613281 77.175781 62.761719 73.574219 62.988281 C 73.574219 62.988281 73.3125 63.023438 73.050781 63.023438 C 73.050781 63.023438 69.789062 63.023438 68.101562 60.4375 C 68.101562 60.4375 67.050781 58.824219 67.050781 56.6875 C 67.050781 56.6875 67.050781 52.824219 70.050781 49.523438 C 70.050781 49.523438 72.898438 46.375 76.5 46.074219 C 76.5 46.074219 76.800781 46.039062 77.101562 46.039062 C 77.101562 46.039062 80.324219 46.039062 82.011719 48.550781 C 82.011719 48.550781 83.101562 50.164062 83.101562 52.375 M 73.085938 62.199219 C 73.085938 62.199219 75.300781 62.199219 77.25 60.023438 C 77.25 60.023438 77.773438 59.425781 78.1875 58.75 C 78.1875 58.75 79.761719 56.050781 80.289062 52.039062 C 80.289062 52.039062 80.324219 51.738281 80.324219 51.4375 L 80.324219 51.398438 L 80.363281 51.363281 L 80.363281 50.914062 C 80.363281 50.914062 80.363281 48.136719 78.523438 47.199219 C 78.523438 47.199219 77.886719 46.863281 77.0625 46.863281 C 77.0625 46.863281 74.773438 46.863281 72.75 49.261719 C 72.75 49.261719 72.488281 49.601562 72.261719 49.9375 C 72.261719 49.9375 72.113281 50.125 72 50.3125 C 72 50.3125 70.648438 52.488281 70.011719 56.386719 C 70.011719 56.386719 69.824219 57.4375 69.824219 58.113281 C 69.824219 58.113281 69.824219 61.226562 72 62.011719 C 72 62.011719 72.523438 62.199219 73.085938 62.199219 Z M 73.085938 62.199219 "/>
<path style=" stroke:none;fill-rule:nonzero;fill:rgb(0%,0%,0%);fill-opacity:1;" d="M 87 60.398438 L 89.175781 51.738281 C 89.175781 51.738281 89.773438 49.335938 89.773438 48.585938 C 89.773438 48.585938 89.773438 46.863281 88.613281 46.863281 C 88.613281 46.863281 87.074219 46.863281 86.101562 50.425781 C 86.101562 50.425781 85.988281 50.835938 85.875 51.324219 C 85.875 51.324219 85.460938 52.148438 85.238281 52.1875 C 85.238281 52.1875 84.789062 52.1875 84.789062 51.8125 C 84.789062 51.8125 84.789062 51.210938 85.5 49.261719 C 85.5 49.261719 85.726562 48.625 85.949219 48.175781 C 85.949219 48.175781 86.851562 46.335938 88.199219 46.074219 C 88.199219 46.074219 88.460938 46.039062 88.726562 46.039062 C 88.726562 46.039062 90.75 46.039062 91.726562 47.726562 C 91.726562 47.726562 92.101562 48.4375 92.175781 49.300781 C 92.175781 49.300781 94.574219 46.039062 98.023438 46.039062 C 98.023438 46.039062 99.9375 46.039062 101.101562 47.011719 C 101.101562 47.011719 102.148438 47.914062 102.300781 49.675781 C 102.300781 49.675781 104.851562 46.039062 108.414062 46.039062 C 108.414062 46.039062 111.75 46.039062 112.539062 48.625 L 112.539062 48.664062 C 112.539062 48.664062 112.726562 49.300781 112.726562 50.050781 C 112.726562 50.050781 112.726562 52.039062 110.4375 58.300781 C 110.4375 58.300781 109.761719 59.949219 109.761719 60.960938 C 109.761719 60.960938 109.761719 62.199219 110.664062 62.199219 C 110.664062 62.199219 112.988281 62.199219 114.335938 58.074219 L 114.488281 57.550781 C 114.488281 57.550781 114.675781 56.949219 114.863281 56.914062 L 114.863281 56.875 L 115.050781 56.875 C 115.050781 56.875 115.5 56.875 115.5 57.25 C 115.5 57.25 115.5 57.886719 114.710938 59.613281 C 114.710938 59.613281 113.101562 63.023438 110.585938 63.023438 C 110.585938 63.023438 108.675781 63.023438 107.851562 61.414062 C 107.851562 61.414062 107.511719 60.738281 107.511719 59.949219 C 107.511719 59.949219 107.511719 59.199219 108 57.886719 C 108 57.886719 110.324219 51.738281 110.324219 49.488281 C 110.324219 49.488281 110.324219 46.863281 108.300781 46.863281 C 108.300781 46.863281 105 46.863281 102.824219 50.425781 C 102.824219 50.425781 102.226562 51.363281 102.113281 51.851562 C 102.113281 51.851562 102 52.335938 99.863281 60.886719 C 99.863281 60.886719 99.449219 62.5 98.925781 62.835938 L 98.886719 62.875 L 98.851562 62.875 C 98.851562 62.875 98.585938 63.023438 98.175781 63.023438 C 98.175781 63.023438 97.238281 62.835938 97.085938 62.011719 L 97.574219 59.800781 L 98.324219 56.949219 L 99.375 52.601562 C 99.375 52.601562 99.9375 50.5 99.9375 49.488281 C 99.9375 49.488281 99.9375 46.863281 97.914062 46.863281 C 97.914062 46.863281 94.539062 46.863281 92.25 50.613281 C 92.25 50.613281 91.988281 51.023438 91.800781 51.4375 L 91.3125 53.3125 C 91.3125 53.3125 91.125 54.175781 90.675781 55.824219 L 89.851562 59.199219 C 89.851562 59.199219 89.210938 61.789062 89.136719 61.976562 C 89.136719 61.976562 88.800781 62.949219 87.75 63.023438 C 87.75 63.023438 86.8125 62.835938 86.664062 62.011719 C 86.664062 62.011719 86.664062 62.085938 87 60.398438 Z M 87 60.398438 "/>
<path style=" stroke:none;fill-rule:nonzero;fill:rgb(0%,0%,0%);fill-opacity:1;" d="M 119.925781 60.398438 L 122.101562 51.738281 C 122.101562 51.738281 122.699219 49.335938 122.699219 48.585938 C 122.699219 48.585938 122.699219 46.863281 121.539062 46.863281 C 121.539062 46.863281 120 46.863281 119.023438 50.425781 C 119.023438 50.425781 118.914062 50.835938 118.800781 51.324219 C 118.800781 51.324219 118.386719 52.148438 118.164062 52.1875 C 118.164062 52.1875 117.710938 52.1875 117.710938 51.8125 C 117.710938 51.8125 117.710938 51.210938 118.425781 49.261719 C 118.425781 49.261719 118.648438 48.625 118.875 48.175781 C 118.875 48.175781 119.773438 46.335938 121.125 46.074219 C 121.125 46.074219 121.386719 46.039062 121.648438 46.039062 C 121.648438 46.039062 123.675781 46.039062 124.648438 47.726562 C 124.648438 47.726562 125.023438 48.4375 125.101562 49.300781 C 125.101562 49.300781 127.5 46.039062 130.949219 46.039062 C 130.949219 46.039062 132.863281 46.039062 134.023438 47.011719 C 134.023438 47.011719 135.074219 47.914062 135.226562 49.675781 C 135.226562 49.675781 137.773438 46.039062 141.335938 46.039062 C 141.335938 46.039062 144.675781 46.039062 145.460938 48.625 L 145.460938 48.664062 C 145.460938 48.664062 145.648438 49.300781 145.648438 50.050781 C 145.648438 50.050781 145.648438 52.039062 143.363281 58.300781 C 143.363281 58.300781 142.6875 59.949219 142.6875 60.960938 C 142.6875 60.960938 142.6875 62.199219 143.585938 62.199219 C 143.585938 62.199219 145.914062 62.199219 147.261719 58.074219 L 147.414062 57.550781 C 147.414062 57.550781 147.601562 56.949219 147.789062 56.914062 L 147.789062 56.875 L 147.976562 56.875 C 147.976562 56.875 148.425781 56.875 148.425781 57.25 C 148.425781 57.25 148.425781 57.886719 147.636719 59.613281 C 147.636719 59.613281 146.023438 63.023438 143.511719 63.023438 C 143.511719 63.023438 141.601562 63.023438 140.773438 61.414062 C 140.773438 61.414062 140.4375 60.738281 140.4375 59.949219 C 140.4375 59.949219 140.4375 59.199219 140.925781 57.886719 C 140.925781 57.886719 143.25 51.738281 143.25 49.488281 C 143.25 49.488281 143.25 46.863281 141.226562 46.863281 C 141.226562 46.863281 137.925781 46.863281 135.75 50.425781 C 135.75 50.425781 135.148438 51.363281 135.039062 51.851562 C 135.039062 51.851562 134.925781 52.335938 132.789062 60.886719 C 132.789062 60.886719 132.375 62.5 131.851562 62.835938 L 131.8125 62.875 L 131.773438 62.875 C 131.773438 62.875 131.511719 63.023438 131.101562 63.023438 C 131.101562 63.023438 130.164062 62.835938 130.011719 62.011719 L 130.5 59.800781 L 131.25 56.949219 L 132.300781 52.601562 C 132.300781 52.601562 132.863281 50.5 132.863281 49.488281 C 132.863281 49.488281 132.863281 46.863281 130.835938 46.863281 C 130.835938 46.863281 127.460938 46.863281 125.175781 50.613281 C 125.175781 50.613281 124.914062 51.023438 124.726562 51.4375 L 124.238281 53.3125 C 124.238281 53.3125 124.050781 54.175781 123.601562 55.824219 L 122.773438 59.199219 C 122.773438 59.199219 122.136719 61.789062 122.0625 61.976562 C 122.0625 61.976562 121.726562 62.949219 120.675781 63.023438 C 120.675781 63.023438 119.738281 62.835938 119.585938 62.011719 C 119.585938 62.011719 119.585938 62.085938 119.925781 60.398438 Z M 119.925781 60.398438 "/>
<path style=" stroke:none;fill-rule:nonzero;fill:rgb(0%,0%,0%);fill-opacity:1;" d="M 162.675781 60.511719 C 162.675781 60.511719 160.726562 63.023438 158.210938 63.023438 C 158.210938 63.023438 155.175781 63.023438 154.085938 60.8125 C 154.085938 60.8125 153.601562 59.835938 153.601562 58.523438 C 153.601562 58.523438 153.601562 56.5 155.585938 51.175781 C 155.585938 51.175781 155.664062 50.914062 155.773438 50.648438 C 155.773438 50.648438 156.414062 49.039062 156.414062 48.101562 C 156.414062 48.101562 156.414062 46.863281 155.476562 46.863281 C 155.476562 46.863281 153.375 46.863281 152.0625 50.425781 C 152.0625 50.425781 152.023438 50.425781 152.023438 50.460938 L 152.023438 50.5 C 152.023438 50.5 151.835938 50.988281 151.6875 51.511719 C 151.6875 51.511719 151.273438 52.148438 151.085938 52.1875 C 151.085938 52.1875 150.636719 52.1875 150.636719 51.8125 C 150.636719 51.8125 150.636719 51.136719 151.425781 49.449219 C 151.425781 49.449219 153.074219 46.039062 155.585938 46.039062 C 155.585938 46.039062 157.574219 46.039062 158.363281 47.726562 C 158.363281 47.726562 158.664062 48.363281 158.664062 49.113281 C 158.664062 49.113281 158.664062 49.863281 158.023438 51.476562 C 158.023438 51.476562 156 56.835938 156 59.125 C 156 59.125 156 62.199219 158.324219 62.199219 C 158.324219 62.199219 160.6875 62.199219 162.300781 59.613281 C 162.300781 59.613281 162.523438 59.273438 162.601562 59.050781 C 162.601562 59.050781 163.425781 55.335938 165.414062 47.761719 C 165.414062 47.761719 165.710938 46.449219 166.875 46.449219 C 166.875 46.449219 167.8125 46.636719 167.960938 47.460938 C 167.960938 47.460938 167.960938 47.386719 167.398438 49.976562 C 167.398438 49.976562 166.875 51.886719 166.761719 52.523438 L 165.710938 56.574219 C 165.710938 56.574219 164.960938 59.835938 164.960938 60.476562 C 164.960938 60.476562 164.960938 62.199219 166.125 62.199219 C 166.125 62.199219 167.699219 62.199219 168.710938 58.449219 C 168.710938 58.449219 168.824219 58.074219 168.9375 57.550781 C 168.9375 57.550781 169.238281 56.914062 169.460938 56.875 C 169.460938 56.875 169.914062 56.875 169.914062 57.25 C 169.914062 57.25 169.914062 57.8125 169.238281 59.875 C 169.238281 59.875 169.011719 60.511719 168.789062 60.960938 C 168.789062 60.960938 167.773438 63.023438 166.011719 63.023438 C 166.011719 63.023438 163.875 63.023438 162.976562 61.226562 C 162.976562 61.226562 162.789062 60.886719 162.675781 60.511719 Z M 162.675781 60.511719 "/>
<path style=" stroke:none;fill-rule:nonzero;fill:rgb(0%,0%,0%);fill-opacity:1;" d="M 174.300781 60.398438 L 176.476562 51.738281 C 176.476562 51.738281 177.074219 49.335938 177.074219 48.585938 C 177.074219 48.585938 177.074219 46.863281 175.914062 46.863281 C 175.914062 46.863281 174.375 46.863281 173.398438 50.425781 C 173.398438 50.425781 173.289062 50.835938 173.175781 51.324219 C 173.175781 51.324219 172.761719 52.148438 172.539062 52.1875 C 172.539062 52.1875 172.085938 52.1875 172.085938 51.8125 C 172.085938 51.8125 172.085938 51.210938 172.835938 49.113281 L 172.835938 49.074219 C 172.835938 49.074219 172.835938 49.039062 172.875 49.039062 L 172.875 48.960938 L 173.210938 48.175781 C 173.210938 48.175781 174.039062 46.675781 174.898438 46.300781 C 174.898438 46.300781 175.425781 46.039062 176.023438 46.039062 C 176.023438 46.039062 178.125 46.039062 179.0625 47.800781 C 179.0625 47.800781 179.398438 48.476562 179.476562 49.300781 C 179.476562 49.300781 181.875 46.039062 185.324219 46.039062 C 185.324219 46.039062 188.550781 46.039062 189.414062 48.511719 C 189.414062 48.511719 189.636719 49.1875 189.636719 50.050781 C 189.636719 50.050781 189.636719 51.960938 187.351562 58.300781 C 187.351562 58.300781 186.675781 59.949219 186.675781 60.960938 C 186.675781 60.960938 186.675781 62.199219 187.574219 62.199219 C 187.574219 62.199219 190.050781 62.199219 191.398438 57.550781 C 191.398438 57.550781 191.585938 56.949219 191.773438 56.914062 L 191.773438 56.875 L 191.960938 56.875 C 191.960938 56.875 192.414062 56.875 192.414062 57.25 C 192.414062 57.25 192.414062 57.886719 191.625 59.613281 C 191.625 59.613281 190.011719 63.023438 187.5 63.023438 C 187.5 63.023438 185.585938 63.023438 184.761719 61.414062 C 184.761719 61.414062 184.425781 60.738281 184.425781 59.949219 C 184.425781 59.949219 184.425781 59.199219 184.800781 58.226562 C 184.800781 58.226562 187.238281 51.664062 187.238281 49.488281 C 187.238281 49.488281 187.238281 46.863281 185.210938 46.863281 C 185.210938 46.863281 181.835938 46.863281 179.550781 50.613281 C 179.550781 50.613281 179.289062 51.023438 179.101562 51.4375 L 178.613281 53.3125 C 178.613281 53.3125 178.425781 54.175781 177.976562 55.824219 L 177.148438 59.199219 C 177.148438 59.199219 176.511719 61.789062 176.4375 61.976562 C 176.4375 61.976562 176.101562 62.949219 175.050781 63.023438 C 175.050781 63.023438 174.113281 62.835938 173.960938 62.011719 C 173.960938 62.011719 173.960938 62.085938 174.300781 60.398438 Z M 174.300781 60.398438 "/>
<path style=" stroke:none;fill-rule:nonzero;fill:rgb(0%,0%,0%);fill-opacity:1;" d="M 204.148438 39.175781 C 204.148438 39.175781 204.148438 40.335938 202.988281 40.9375 C 202.988281 40.9375 202.574219 41.164062 202.164062 41.164062 C 202.164062 41.164062 201.039062 41.164062 200.773438 40.148438 C 200.773438 40.148438 200.738281 39.960938 200.738281 39.8125 C 200.738281 39.8125 200.738281 38.761719 201.789062 38.125 C 201.789062 38.125 202.273438 37.824219 202.761719 37.824219 C 202.761719 37.824219 203.886719 37.824219 204.113281 38.835938 L 204.113281 38.875 C 204.113281 38.875 204.148438 39.023438 204.148438 39.175781 M 201.300781 53.273438 L 199.835938 57.210938 C 199.835938 57.210938 198.789062 60.25 198.75 60.960938 C 198.75 60.960938 198.75 62.199219 199.648438 62.199219 C 199.648438 62.199219 202.011719 62.199219 203.324219 58 L 203.476562 57.550781 C 203.476562 57.550781 203.664062 56.949219 203.851562 56.914062 L 203.851562 56.875 L 204.039062 56.875 C 204.039062 56.875 204.488281 56.875 204.488281 57.25 C 204.488281 57.25 204.488281 57.925781 203.664062 59.648438 C 203.664062 59.648438 202.050781 63.023438 199.574219 63.023438 C 199.574219 63.023438 197.585938 63.023438 196.800781 61.375 C 196.800781 61.375 196.5 60.699219 196.5 59.949219 C 196.5 59.949219 196.5 59.199219 197.363281 56.949219 C 197.363281 56.949219 199.988281 49.898438 199.949219 50.011719 C 199.949219 50.011719 200.363281 48.960938 200.363281 48.0625 C 200.363281 48.0625 200.363281 46.863281 199.425781 46.863281 C 199.425781 46.863281 197.363281 46.863281 196.050781 50.273438 L 196.050781 50.3125 C 196.050781 50.3125 195.824219 50.875 195.636719 51.511719 C 195.636719 51.511719 195.226562 52.148438 195.039062 52.1875 C 195.039062 52.1875 194.585938 52.1875 194.585938 51.8125 C 194.585938 51.8125 194.585938 51.136719 195.414062 49.449219 C 195.414062 49.449219 197.023438 46.039062 199.539062 46.039062 C 199.539062 46.039062 201.523438 46.039062 202.3125 47.726562 C 202.3125 47.726562 202.613281 48.363281 202.613281 49.113281 C 202.613281 49.113281 202.613281 49.863281 202.125 51.101562 C 202.125 51.101562 201.488281 52.824219 201.300781 53.273438 Z M 201.300781 53.273438 "/>
<path style=" stroke:none;fill-rule:nonzero;fill:rgb(0%,0%,0%);fill-opacity:1;" d="M 214.164062 47.613281 L 211.386719 58.675781 C 211.386719 58.675781 211.164062 59.613281 211.164062 60.476562 C 211.164062 60.476562 211.164062 62.199219 212.324219 62.199219 C 212.324219 62.199219 214.800781 62.199219 216.675781 58.5625 L 217.199219 57.398438 C 217.199219 57.398438 217.425781 56.914062 217.761719 56.875 C 217.761719 56.875 218.210938 56.875 218.210938 57.25 C 218.210938 57.25 218.210938 57.738281 217.238281 59.386719 C 217.238281 59.386719 215.0625 63.023438 212.25 63.023438 C 212.25 63.023438 210.074219 63.023438 209.175781 61.226562 C 209.175781 61.226562 208.800781 60.476562 208.800781 59.574219 C 208.800781 59.574219 208.800781 58.863281 211.085938 49.863281 L 211.648438 47.613281 L 208.351562 47.613281 C 208.351562 47.613281 207.414062 47.613281 207.335938 47.3125 L 207.300781 47.3125 L 207.300781 47.164062 C 207.300781 47.164062 207.300781 46.523438 207.898438 46.449219 L 211.949219 46.449219 L 213.414062 40.488281 C 213.414062 40.488281 213.75 39.175781 214.914062 39.136719 C 214.914062 39.136719 215.886719 39.136719 216 40.148438 C 216 40.148438 216 40.375 214.460938 46.449219 L 217.761719 46.449219 C 217.761719 46.449219 218.738281 46.449219 218.8125 46.863281 C 218.8125 46.863281 218.8125 47.539062 218.210938 47.613281 Z M 214.164062 47.613281 "/>
<path style=" stroke:none;fill-rule:nonzero;fill:rgb(0%,0%,0%);fill-opacity:1;" d="M 230.625 39.175781 C 230.625 39.175781 230.625 40.335938 229.460938 40.9375 C 229.460938 40.9375 229.050781 41.164062 228.636719 41.164062 C 228.636719 41.164062 227.511719 41.164062 227.25 40.148438 C 227.25 40.148438 227.210938 39.960938 227.210938 39.8125 C 227.210938 39.8125 227.210938 38.761719 228.261719 38.125 C 228.261719 38.125 228.75 37.824219 229.238281 37.824219 C 229.238281 37.824219 230.363281 37.824219 230.585938 38.835938 L 230.585938 38.875 C 230.585938 38.875 230.625 39.023438 230.625 39.175781 M 227.773438 53.273438 L 226.3125 57.210938 C 226.3125 57.210938 225.261719 60.25 225.226562 60.960938 C 225.226562 60.960938 225.226562 62.199219 226.125 62.199219 C 226.125 62.199219 228.488281 62.199219 229.800781 58 L 229.949219 57.550781 C 229.949219 57.550781 230.136719 56.949219 230.324219 56.914062 L 230.324219 56.875 L 230.511719 56.875 C 230.511719 56.875 230.960938 56.875 230.960938 57.25 C 230.960938 57.25 230.960938 57.925781 230.136719 59.648438 C 230.136719 59.648438 228.523438 63.023438 226.050781 63.023438 C 226.050781 63.023438 224.0625 63.023438 223.273438 61.375 C 223.273438 61.375 222.976562 60.699219 222.976562 59.949219 C 222.976562 59.949219 222.976562 59.199219 223.835938 56.949219 C 223.835938 56.949219 226.460938 49.898438 226.425781 50.011719 C 226.425781 50.011719 226.835938 48.960938 226.835938 48.0625 C 226.835938 48.0625 226.835938 46.863281 225.898438 46.863281 C 225.898438 46.863281 223.835938 46.863281 222.523438 50.273438 L 222.523438 50.3125 C 222.523438 50.3125 222.300781 50.875 222.113281 51.511719 C 222.113281 51.511719 221.699219 52.148438 221.511719 52.1875 C 221.511719 52.1875 221.0625 52.1875 221.0625 51.8125 C 221.0625 51.8125 221.0625 51.136719 221.886719 49.449219 C 221.886719 49.449219 223.5 46.039062 226.011719 46.039062 C 226.011719 46.039062 228 46.039062 228.789062 47.726562 C 228.789062 47.726562 229.085938 48.363281 229.085938 49.113281 C 229.085938 49.113281 229.085938 49.863281 228.601562 51.101562 C 228.601562 51.101562 227.960938 52.824219 227.773438 53.273438 Z M 227.773438 53.273438 "/>
<path style=" stroke:none;fill-rule:nonzero;fill:rgb(0%,0%,0%);fill-opacity:1;" d="M 239.925781 53.949219 L 237.9375 53.949219 C 237.9375 53.949219 237.335938 56.386719 237.335938 57.851562 C 237.335938 57.851562 237.335938 60.8125 239.0625 61.824219 C 239.0625 61.824219 239.699219 62.199219 240.601562 62.199219 C 240.601562 62.199219 243.976562 62.199219 246.675781 59.949219 C 246.675781 59.949219 247.460938 59.3125 248.101562 58.488281 C 248.101562 58.488281 248.363281 58.113281 248.585938 58.113281 C 248.585938 58.113281 248.925781 58.113281 249.039062 58.601562 C 249.039062 58.601562 249.039062 59.011719 247.761719 60.210938 C 247.761719 60.210938 244.648438 63.023438 240.523438 63.023438 C 240.523438 63.023438 237.148438 63.023438 235.574219 60.136719 C 235.574219 60.136719 234.636719 58.449219 234.636719 56.238281 C 234.636719 56.238281 234.636719 51.324219 238.460938 48.289062 C 238.460938 48.289062 241.273438 46.039062 244.460938 46.039062 C 244.460938 46.039062 247.164062 46.039062 248.136719 47.914062 C 248.136719 47.914062 248.476562 48.511719 248.476562 49.226562 C 248.476562 49.226562 248.476562 51.175781 246.789062 52.449219 L 246.75 52.488281 C 246.75 52.488281 246.261719 52.824219 245.664062 53.085938 C 245.664062 53.085938 243.601562 53.949219 239.925781 53.949219 M 238.164062 53.125 L 239.699219 53.125 C 239.699219 53.125 247.238281 53.125 247.238281 49.226562 C 247.238281 49.226562 247.238281 47.726562 245.773438 47.085938 C 245.773438 47.085938 245.25 46.898438 244.460938 46.863281 C 244.460938 46.863281 242.363281 46.863281 240.601562 48.585938 C 240.601562 48.585938 238.914062 50.238281 238.164062 53.125 Z M 238.164062 53.125 "/>
<path style=" stroke:none;fill-rule:nonzero;fill:rgb(0%,0%,0%);fill-opacity:1;" d="M 265.050781 48.585938 C 265.050781 48.585938 264.261719 46.9375 261.675781 46.863281 C 261.675781 46.863281 258.636719 46.863281 257.699219 49.148438 C 257.699219 49.148438 257.476562 49.710938 257.476562 50.238281 C 257.476562 50.238281 257.476562 51.699219 259.273438 52.226562 L 259.3125 52.261719 C 259.3125 52.261719 259.574219 52.335938 260.324219 52.488281 C 260.324219 52.488281 262.648438 52.976562 263.4375 53.539062 C 263.4375 53.539062 263.773438 53.761719 264.074219 54.0625 C 264.074219 54.0625 265.238281 55.226562 265.238281 56.800781 C 265.238281 56.800781 265.238281 58.75 263.773438 60.511719 C 263.773438 60.511719 261.675781 63.023438 257.699219 63.023438 C 257.699219 63.023438 254.210938 63.023438 252.863281 61.074219 C 252.863281 61.074219 252.335938 60.324219 252.335938 59.386719 C 252.335938 59.386719 252.335938 57.550781 253.761719 57.023438 C 253.761719 57.023438 254.101562 56.914062 254.4375 56.914062 C 254.4375 56.914062 255.675781 57.101562 255.824219 58.226562 C 255.824219 58.226562 255.824219 59.386719 254.8125 59.949219 C 254.8125 59.949219 254.210938 60.324219 253.460938 60.210938 C 253.460938 60.210938 254.324219 62.199219 257.738281 62.199219 C 257.738281 62.199219 261.601562 62.199219 262.800781 59.386719 C 262.800781 59.386719 263.101562 58.675781 263.101562 58.074219 C 263.101562 58.074219 263.101562 56.273438 260.886719 55.601562 L 260.851562 55.601562 C 260.851562 55.601562 260.289062 55.449219 259.199219 55.226562 C 259.199219 55.226562 255.824219 54.511719 255.414062 52.226562 C 255.414062 52.226562 255.335938 51.886719 255.335938 51.511719 C 255.335938 51.511719 255.335938 49.636719 256.761719 48.023438 C 256.761719 48.023438 258.523438 46.039062 261.675781 46.039062 C 261.675781 46.039062 264.636719 46.039062 265.761719 47.875 C 265.761719 47.875 266.136719 48.511719 266.136719 49.261719 C 266.136719 49.261719 266.136719 50.949219 264.863281 51.289062 C 264.863281 51.289062 264.636719 51.363281 264.414062 51.363281 C 264.414062 51.363281 263.363281 51.210938 263.25 50.273438 C 263.25 50.273438 263.25 49.261719 264.261719 48.773438 C 264.261719 48.773438 264.636719 48.585938 265.050781 48.585938 Z M 265.050781 48.585938 "/>
<path style=" stroke:none;fill-rule:nonzero;fill:rgb(100%,100%,100%);fill-opacity:1;" d="M 113 193 L 224 193 L 224 155 L 113 155 Z M 113 193 "/>
<path style=" stroke:none;fill-rule:nonzero;fill:rgb(0%,0%,0%);fill-opacity:1;" d="M 135.539062 163.550781 L 130.210938 184.886719 C 130.210938 184.886719 131.1875 184.960938 132.199219 184.960938 L 132.988281 184.960938 C 132.988281 184.960938 134.261719 184.960938 134.261719 185.636719 C 134.261719 185.636719 134.261719 186.726562 133.136719 186.726562 C 133.136719 186.726562 132.6875 186.726562 131.710938 186.6875 C 131.710938 186.6875 130.738281 186.648438 130.25 186.648438 C 130.25 186.648438 129.726562 186.648438 128.695312 186.632812 C 128.695312 186.632812 127.664062 186.613281 127.136719 186.613281 C 127.136719 186.613281 126.648438 186.613281 125.636719 186.632812 C 125.636719 186.632812 124.625 186.648438 124.101562 186.648438 C 124.101562 186.648438 123.648438 186.648438 122.675781 186.6875 C 122.675781 186.6875 121.699219 186.726562 121.25 186.726562 C 121.25 186.726562 120.425781 186.726562 120.425781 186.050781 C 120.425781 186.050781 120.425781 185.523438 120.648438 185.28125 C 120.648438 185.28125 120.875 185.039062 121.101562 185 C 121.101562 185 121.324219 184.960938 121.8125 184.960938 L 122.601562 184.960938 C 122.601562 184.960938 123.761719 184.960938 124.210938 184.886719 C 124.210938 184.886719 124.738281 184.851562 124.867188 184.757812 C 124.867188 184.757812 125 184.664062 125.113281 184.210938 L 130.476562 162.835938 C 130.476562 162.835938 128.976562 162.761719 128.488281 162.761719 L 127.699219 162.761719 C 127.699219 162.761719 127.25 162.761719 127.042969 162.742188 C 127.042969 162.742188 126.835938 162.726562 126.632812 162.554688 C 126.632812 162.554688 126.425781 162.386719 126.425781 162.085938 C 126.425781 162.085938 126.425781 161.601562 126.632812 161.335938 C 126.632812 161.335938 126.835938 161.074219 127.023438 161.039062 C 127.023438 161.039062 127.210938 161 127.511719 161 C 127.511719 161 127.960938 161 128.957031 161.039062 C 128.957031 161.039062 129.949219 161.074219 130.4375 161.074219 C 130.4375 161.074219 130.925781 161.074219 131.976562 161.09375 C 131.976562 161.09375 133.023438 161.113281 133.550781 161.113281 C 133.550781 161.113281 134.074219 161.113281 135.070312 161.09375 C 135.070312 161.09375 136.0625 161.074219 136.550781 161.074219 C 136.550781 161.074219 137 161.074219 137.976562 161.039062 C 137.976562 161.039062 138.949219 161 139.398438 161 C 139.398438 161 140.226562 161 140.226562 161.675781 C 140.226562 161.675781 140.226562 162.351562 139.886719 162.574219 C 139.886719 162.574219 139.664062 162.761719 138.875 162.761719 L 138.085938 162.761719 C 138.085938 162.761719 137.039062 162.761719 136.476562 162.800781 C 136.476562 162.800781 135.914062 162.835938 135.78125 162.949219 C 135.78125 162.949219 135.648438 163.0625 135.539062 163.550781 Z M 135.539062 163.550781 "/>
<path style=" stroke:none;fill-rule:nonzero;fill:rgb(0%,0%,0%);fill-opacity:1;" d="M 157.625 163.550781 L 152.300781 184.886719 C 152.300781 184.886719 153.273438 184.960938 154.289062 184.960938 L 155.074219 184.960938 C 155.074219 184.960938 156.351562 184.960938 156.351562 185.636719 C 156.351562 185.636719 156.351562 186.726562 155.226562 186.726562 C 155.226562 186.726562 154.773438 186.726562 153.800781 186.6875 C 153.800781 186.6875 152.824219 186.648438 152.335938 186.648438 C 152.335938 186.648438 151.8125 186.648438 150.78125 186.632812 C 150.78125 186.632812 149.75 186.613281 149.226562 186.613281 C 149.226562 186.613281 148.738281 186.613281 147.726562 186.632812 C 147.726562 186.632812 146.710938 186.648438 146.1875 186.648438 C 146.1875 186.648438 145.738281 186.648438 144.761719 186.6875 C 144.761719 186.6875 143.789062 186.726562 143.335938 186.726562 C 143.335938 186.726562 142.511719 186.726562 142.511719 186.050781 C 142.511719 186.050781 142.511719 185.523438 142.738281 185.28125 C 142.738281 185.28125 142.960938 185.039062 143.1875 185 C 143.1875 185 143.414062 184.960938 143.898438 184.960938 L 144.6875 184.960938 C 144.6875 184.960938 145.851562 184.960938 146.300781 184.886719 C 146.300781 184.886719 146.824219 184.851562 146.957031 184.757812 C 146.957031 184.757812 147.085938 184.664062 147.199219 184.210938 L 152.5625 162.835938 C 152.5625 162.835938 151.0625 162.761719 150.574219 162.761719 L 149.789062 162.761719 C 149.789062 162.761719 149.335938 162.761719 149.132812 162.742188 C 149.132812 162.742188 148.925781 162.726562 148.71875 162.554688 C 148.71875 162.554688 148.511719 162.386719 148.511719 162.085938 C 148.511719 162.085938 148.511719 161.601562 148.71875 161.335938 C 148.71875 161.335938 148.925781 161.074219 149.113281 161.039062 C 149.113281 161.039062 149.300781 161 149.601562 161 C 149.601562 161 150.050781 161 151.042969 161.039062 C 151.042969 161.039062 152.039062 161.074219 152.523438 161.074219 C 152.523438 161.074219 153.011719 161.074219 154.0625 161.09375 C 154.0625 161.09375 155.113281 161.113281 155.636719 161.113281 C 155.636719 161.113281 156.164062 161.113281 157.15625 161.09375 C 157.15625 161.09375 158.148438 161.074219 158.636719 161.074219 C 158.636719 161.074219 159.085938 161.074219 160.0625 161.039062 C 160.0625 161.039062 161.039062 161 161.488281 161 C 161.488281 161 162.3125 161 162.3125 161.675781 C 162.3125 161.675781 162.3125 162.351562 161.976562 162.574219 C 161.976562 162.574219 161.75 162.761719 160.960938 162.761719 L 160.175781 162.761719 C 160.175781 162.761719 159.125 162.761719 158.5625 162.800781 C 158.5625 162.800781 158 162.835938 157.867188 162.949219 C 157.867188 162.949219 157.738281 163.0625 157.625 163.550781 Z M 157.625 163.550781 "/>
<path style=" stroke:none;fill-rule:nonzero;fill:rgb(0%,0%,0%);fill-opacity:1;" d="M 179.710938 163.550781 L 174.386719 184.886719 C 174.386719 184.886719 175.363281 184.960938 176.375 184.960938 L 177.164062 184.960938 C 177.164062 184.960938 178.4375 184.960938 178.4375 185.636719 C 178.4375 185.636719 178.4375 186.726562 177.3125 186.726562 C 177.3125 186.726562 176.863281 186.726562 175.886719 186.6875 C 175.886719 186.6875 174.914062 186.648438 174.425781 186.648438 C 174.425781 186.648438 173.898438 186.648438 172.867188 186.632812 C 172.867188 186.632812 171.835938 186.613281 171.3125 186.613281 C 171.3125 186.613281 170.824219 186.613281 169.8125 186.632812 C 169.8125 186.632812 168.800781 186.648438 168.273438 186.648438 C 168.273438 186.648438 167.824219 186.648438 166.851562 186.6875 C 166.851562 186.6875 165.875 186.726562 165.425781 186.726562 C 165.425781 186.726562 164.601562 186.726562 164.601562 186.050781 C 164.601562 186.050781 164.601562 185.523438 164.824219 185.28125 C 164.824219 185.28125 165.050781 185.039062 165.273438 185 C 165.273438 185 165.5 184.960938 165.988281 184.960938 L 166.773438 184.960938 C 166.773438 184.960938 167.9375 184.960938 168.386719 184.886719 C 168.386719 184.886719 168.914062 184.851562 169.042969 184.757812 C 169.042969 184.757812 169.175781 184.664062 169.289062 184.210938 L 174.648438 162.835938 C 174.648438 162.835938 173.148438 162.761719 172.664062 162.761719 L 171.875 162.761719 C 171.875 162.761719 171.425781 162.761719 171.21875 162.742188 C 171.21875 162.742188 171.011719 162.726562 170.804688 162.554688 C 170.804688 162.554688 170.601562 162.386719 170.601562 162.085938 C 170.601562 162.085938 170.601562 161.601562 170.804688 161.335938 C 170.804688 161.335938 171.011719 161.074219 171.199219 161.039062 C 171.199219 161.039062 171.386719 161 171.6875 161 C 171.6875 161 172.136719 161 173.132812 161.039062 C 173.132812 161.039062 174.125 161.074219 174.613281 161.074219 C 174.613281 161.074219 175.101562 161.074219 176.148438 161.09375 C 176.148438 161.09375 177.199219 161.113281 177.726562 161.113281 C 177.726562 161.113281 178.25 161.113281 179.242188 161.09375 C 179.242188 161.09375 180.238281 161.074219 180.726562 161.074219 C 180.726562 161.074219 181.175781 161.074219 182.148438 161.039062 C 182.148438 161.039062 183.125 161 183.574219 161 C 183.574219 161 184.398438 161 184.398438 161.675781 C 184.398438 161.675781 184.398438 162.351562 184.0625 162.574219 C 184.0625 162.574219 183.835938 162.761719 183.050781 162.761719 L 182.261719 162.761719 C 182.261719 162.761719 181.210938 162.761719 180.648438 162.800781 C 180.648438 162.800781 180.085938 162.835938 179.957031 162.949219 C 179.957031 162.949219 179.824219 163.0625 179.710938 163.550781 Z M 179.710938 163.550781 "/>
<path style=" stroke:none;fill-rule:nonzero;fill:rgb(0%,0%,0%);fill-opacity:1;" d="M 198.988281 174.835938 L 196.476562 184.8125 C 196.476562 184.8125 197.226562 184.960938 198.835938 184.960938 L 200.074219 184.960938 C 200.074219 184.960938 201.3125 184.960938 201.3125 185.636719 C 201.3125 185.636719 201.3125 186.726562 200.1875 186.726562 C 200.1875 186.726562 199.664062 186.726562 198.59375 186.6875 C 198.59375 186.6875 197.523438 186.648438 196.960938 186.648438 C 196.960938 186.648438 196.398438 186.648438 195.273438 186.632812 C 195.273438 186.632812 194.148438 186.613281 193.585938 186.613281 C 193.585938 186.613281 193.0625 186.613281 192.050781 186.632812 C 192.050781 186.632812 191.039062 186.648438 190.550781 186.648438 C 190.550781 186.648438 190.0625 186.648438 189.125 186.6875 C 189.125 186.6875 188.1875 186.726562 187.699219 186.726562 C 187.699219 186.726562 186.875 186.726562 186.875 186.050781 C 186.875 186.050781 186.875 185.300781 187.324219 185.039062 C 187.324219 185.039062 187.476562 184.960938 188.523438 184.960938 C 188.523438 184.960938 189.875 184.960938 190.511719 184.925781 C 190.511719 184.925781 191 184.886719 191.132812 184.773438 C 191.132812 184.773438 191.261719 184.664062 191.375 184.210938 L 196.664062 163.0625 C 196.664062 163.0625 195.085938 162.988281 194.375 162.988281 C 194.375 162.988281 193.738281 162.988281 193.492188 162.96875 C 193.492188 162.96875 193.25 162.949219 193.042969 162.800781 C 193.042969 162.800781 192.835938 162.648438 192.835938 162.3125 C 192.835938 162.3125 192.835938 161.636719 193.175781 161.414062 C 193.175781 161.414062 193.398438 161.226562 194.1875 161.226562 L 214.363281 161.226562 C 214.363281 161.226562 215.601562 161.226562 215.601562 161.898438 L 215.5625 162.5 L 214.886719 169.210938 C 214.886719 169.210938 214.851562 169.625 214.792969 169.792969 C 214.792969 169.792969 214.738281 169.960938 214.550781 170.113281 C 214.550781 170.113281 214.363281 170.261719 213.988281 170.261719 C 213.988281 170.261719 213.085938 170.261719 213.085938 169.550781 L 213.164062 168.726562 C 213.164062 168.726562 213.238281 167.898438 213.238281 167.375 C 213.238281 167.375 213.238281 164.898438 212.039062 163.945312 C 212.039062 163.945312 210.835938 162.988281 207.648438 162.988281 L 203.1875 162.988281 C 203.1875 162.988281 202.398438 162.988281 201.914062 163.0625 L 199.4375 173.074219 L 201.539062 173.074219 C 201.539062 173.074219 203.636719 173.074219 204.632812 172.398438 C 204.632812 172.398438 205.625 171.726562 206.148438 169.664062 C 206.148438 169.664062 206.300781 169.0625 206.46875 168.875 C 206.46875 168.875 206.636719 168.6875 207.125 168.6875 C 207.125 168.6875 208.023438 168.6875 208.023438 169.363281 C 208.023438 169.363281 208.023438 169.476562 207.875 169.960938 L 205.773438 178.324219 C 205.773438 178.324219 205.664062 178.738281 205.605469 178.867188 C 205.605469 178.867188 205.550781 179 205.363281 179.113281 C 205.363281 179.113281 205.175781 179.226562 204.835938 179.226562 C 204.835938 179.226562 203.976562 179.226562 203.976562 178.550781 C 203.976562 178.550781 203.976562 178.398438 204.085938 178.023438 C 204.085938 178.023438 204.3125 177.125 204.3125 176.449219 C 204.3125 176.449219 204.3125 175.511719 203.710938 175.175781 C 203.710938 175.175781 203.113281 174.835938 201.425781 174.835938 Z M 198.988281 174.835938 "/>
<path style=" stroke:none;fill-rule:nonzero;fill:rgb(100%,100%,100%);fill-opacity:1;" d="M 526 383 L 745 383 L 745 344 L 526 344 Z M 526 383 "/>
<path style=" stroke:none;fill-rule:nonzero;fill:rgb(0%,0%,0%);fill-opacity:1;" d="M 548.539062 352.851562 L 543.210938 374.226562 C 543.210938 374.226562 543.476562 374.261719 544.113281 374.261719 L 547.113281 374.261719 C 547.113281 374.261719 548.648438 374.261719 549.945312 373.90625 C 549.945312 373.90625 551.238281 373.550781 552.195312 372.855469 C 552.195312 372.855469 553.148438 372.164062 553.84375 371.488281 C 553.84375 371.488281 554.539062 370.8125 555.101562 369.800781 C 555.101562 369.800781 555.664062 368.789062 555.945312 368.1875 C 555.945312 368.1875 556.226562 367.585938 556.601562 366.6875 C 556.601562 366.6875 556.824219 366.050781 556.992188 365.898438 C 556.992188 365.898438 557.164062 365.75 557.613281 365.75 C 557.613281 365.75 558.511719 365.75 558.511719 366.425781 C 558.511719 366.425781 558.511719 366.800781 555.210938 375.199219 C 555.210938 375.199219 554.988281 375.800781 554.820312 375.914062 C 554.820312 375.914062 554.648438 376.023438 553.863281 376.023438 L 534.886719 376.023438 C 534.886719 376.023438 533.613281 376.023438 533.613281 375.351562 C 533.613281 375.351562 533.613281 374.601562 534.0625 374.335938 C 534.0625 374.335938 534.210938 374.261719 535.261719 374.261719 C 535.261719 374.261719 536.613281 374.261719 537.25 374.226562 C 537.25 374.226562 537.738281 374.1875 537.867188 374.074219 C 537.867188 374.074219 538 373.960938 538.113281 373.511719 L 543.476562 352.136719 C 543.476562 352.136719 541.898438 352.0625 541.1875 352.0625 C 541.1875 352.0625 540.511719 352.0625 540.25 352.042969 C 540.25 352.042969 539.988281 352.023438 539.800781 351.875 C 539.800781 351.875 539.613281 351.726562 539.613281 351.386719 C 539.613281 351.386719 539.613281 350.898438 539.835938 350.636719 C 539.835938 350.636719 540.0625 350.375 540.25 350.335938 C 540.25 350.335938 540.4375 350.300781 540.699219 350.300781 C 540.699219 350.300781 541.148438 350.300781 542.125 350.335938 C 542.125 350.335938 543.101562 350.375 543.585938 350.375 C 543.585938 350.375 544.074219 350.375 545.125 350.394531 C 545.125 350.394531 546.175781 350.414062 546.699219 350.414062 C 546.699219 350.414062 547.226562 350.414062 548.273438 350.394531 C 548.273438 350.394531 549.324219 350.375 549.851562 350.375 C 549.851562 350.375 550.414062 350.375 551.539062 350.335938 C 551.539062 350.335938 552.664062 350.300781 553.1875 350.300781 C 553.1875 350.300781 554.050781 350.300781 554.050781 350.976562 C 554.050781 350.976562 554.050781 351.726562 553.730469 351.894531 C 553.730469 351.894531 553.414062 352.0625 552.699219 352.0625 L 551.460938 352.0625 C 551.460938 352.0625 549.175781 352.0625 548.800781 352.25 C 548.800781 352.25 548.6875 352.289062 548.539062 352.851562 Z M 548.539062 352.851562 "/>
<path style=" stroke:none;fill-rule:nonzero;fill:rgb(0%,0%,0%);fill-opacity:1;" d="M 572.875 351.800781 C 572.875 351.800781 572.875 352.773438 572.050781 353.582031 C 572.050781 353.582031 571.226562 354.386719 570.210938 354.386719 C 570.210938 354.386719 569.425781 354.386719 568.898438 353.882812 C 568.898438 353.882812 568.375 353.375 568.375 352.585938 C 568.375 352.585938 568.375 351.613281 569.179688 350.804688 C 569.179688 350.804688 569.988281 350 571.039062 350 C 571.039062 350 571.824219 350 572.351562 350.523438 C 572.351562 350.523438 572.875 351.050781 572.875 351.800781 M 573.8125 370.476562 C 573.8125 370.476562 573.8125 371.074219 573.210938 372.367188 C 573.210938 372.367188 572.613281 373.664062 571.1875 374.992188 C 571.1875 374.992188 569.761719 376.324219 568 376.324219 C 568 376.324219 566.238281 376.324219 564.980469 375.367188 C 564.980469 375.367188 563.726562 374.414062 563.726562 372.949219 C 563.726562 372.949219 563.726562 372.460938 564.023438 371.675781 L 566.539062 365.1875 C 566.539062 365.1875 567.773438 362.074219 567.773438 361.25 C 567.773438 361.25 567.773438 360.425781 567.175781 360.425781 C 567.175781 360.425781 566.648438 360.425781 566.070312 360.707031 C 566.070312 360.707031 565.488281 360.988281 564.664062 362.074219 C 564.664062 362.074219 563.835938 363.164062 563.3125 364.960938 C 563.3125 364.960938 563.164062 365.449219 562.449219 365.449219 C 562.449219 365.449219 561.550781 365.449219 561.550781 364.925781 C 561.550781 364.925781 561.550781 364.324219 562.148438 363.03125 C 562.148438 363.03125 562.75 361.738281 564.175781 360.40625 C 564.175781 360.40625 565.601562 359.074219 567.363281 359.074219 C 567.363281 359.074219 569.125 359.074219 570.382812 360.03125 C 570.382812 360.03125 571.636719 360.988281 571.636719 362.449219 C 571.636719 362.449219 571.636719 362.9375 571.335938 363.726562 L 568.824219 370.210938 C 568.824219 370.210938 567.585938 373.324219 567.585938 374.148438 C 567.585938 374.148438 567.585938 374.976562 568.1875 374.976562 C 568.1875 374.976562 568.710938 374.976562 569.292969 374.695312 C 569.292969 374.695312 569.875 374.414062 570.699219 373.324219 C 570.699219 373.324219 571.523438 372.238281 572.050781 370.4375 C 572.050781 370.4375 572.199219 369.949219 572.914062 369.949219 C 572.914062 369.949219 573.8125 369.949219 573.8125 370.476562 Z M 573.8125 370.476562 "/>
<path style=" stroke:none;fill-rule:nonzero;fill:rgb(0%,0%,0%);fill-opacity:1;" d="M 586.039062 361.925781 C 586.039062 361.925781 588.699219 359.074219 592.226562 359.074219 C 592.226562 359.074219 594.625 359.074219 596.21875 360.070312 C 596.21875 360.070312 597.8125 361.0625 597.8125 363.425781 C 597.8125 363.425781 597.8125 365.488281 595.488281 371.449219 C 595.488281 371.449219 594.738281 373.324219 594.738281 374.1875 C 594.738281 374.1875 594.738281 374.5625 594.851562 374.75 C 594.851562 374.75 594.960938 374.9375 595.074219 374.957031 C 595.074219 374.957031 595.1875 374.976562 595.375 374.976562 C 595.375 374.976562 595.710938 374.976562 596.085938 374.824219 C 596.085938 374.824219 596.460938 374.675781 597.042969 374.28125 C 597.042969 374.28125 597.625 373.886719 598.207031 372.894531 C 598.207031 372.894531 598.789062 371.898438 599.238281 370.4375 C 599.238281 370.4375 599.386719 369.949219 600.101562 369.949219 C 600.101562 369.949219 601 369.949219 601 370.476562 C 601 370.476562 601 370.851562 600.625 371.730469 C 600.625 371.730469 600.25 372.613281 599.574219 373.679688 C 599.574219 373.679688 598.898438 374.75 597.71875 375.539062 C 597.71875 375.539062 596.539062 376.324219 595.148438 376.324219 C 595.148438 376.324219 593.460938 376.324219 592.1875 375.40625 C 592.1875 375.40625 590.914062 374.488281 590.914062 372.949219 C 590.914062 372.949219 590.914062 372.3125 591.4375 371.039062 C 591.4375 371.039062 593.800781 364.8125 593.800781 362.636719 C 593.800781 362.636719 593.800781 360.425781 591.925781 360.425781 C 591.925781 360.425781 589.9375 360.425781 588.0625 361.886719 C 588.0625 361.886719 587.238281 362.5625 586.507812 363.554688 C 586.507812 363.554688 585.773438 364.550781 585.738281 364.8125 C 585.738281 364.8125 585.699219 364.886719 585.175781 366.988281 C 585.175781 366.988281 584.648438 369.085938 584.574219 369.273438 C 584.574219 369.273438 584.050781 371.523438 583.523438 373.476562 C 583.523438 373.476562 583.375 374.039062 583.242188 374.414062 C 583.242188 374.414062 583.113281 374.789062 582.832031 375.292969 C 582.832031 375.292969 582.550781 375.800781 582.042969 376.0625 C 582.042969 376.0625 581.539062 376.324219 580.863281 376.324219 C 580.863281 376.324219 580.039062 376.324219 579.570312 375.820312 C 579.570312 375.820312 579.101562 375.3125 579.101562 374.675781 C 579.101562 374.675781 579.101562 374.5625 579.398438 373.175781 L 580.75 367.925781 C 580.75 367.925781 580.9375 367.101562 581.574219 364.550781 C 581.574219 364.550781 582.101562 362.449219 582.101562 361.8125 C 582.101562 361.8125 582.101562 360.425781 581.238281 360.425781 C 581.238281 360.425781 579.664062 360.425781 578.6875 364.175781 C 578.6875 364.175781 578.425781 365.226562 578.386719 365.261719 C 578.386719 365.261719 578.199219 365.449219 577.636719 365.449219 C 577.636719 365.449219 576.738281 365.449219 576.738281 364.925781 C 576.738281 364.925781 576.738281 364.625 577.148438 363.40625 C 577.148438 363.40625 577.5625 362.1875 578.164062 361.210938 C 578.164062 361.210938 579.476562 359.074219 581.425781 359.074219 C 581.425781 359.074219 583.039062 359.074219 584.351562 359.824219 C 584.351562 359.824219 585.664062 360.574219 586.039062 361.925781 Z M 586.039062 361.925781 "/>
<path style=" stroke:none;fill-rule:nonzero;fill:rgb(0%,0%,0%);fill-opacity:1;" d="M 614.125 351.3125 L 610.523438 365.789062 C 610.523438 365.789062 612.398438 364.738281 614.125 362.863281 C 614.125 362.863281 616.039062 361.023438 617.574219 360.050781 C 617.574219 360.050781 619.113281 359.074219 620.6875 359.074219 C 620.6875 359.074219 621.925781 359.074219 622.730469 359.898438 C 622.730469 359.898438 623.539062 360.726562 623.539062 362.148438 C 623.539062 362.148438 623.539062 363.875 622.617188 364.585938 C 622.617188 364.585938 621.699219 365.300781 620.835938 365.300781 C 620.835938 365.300781 619.976562 365.300781 619.46875 364.773438 C 619.46875 364.773438 618.960938 364.25 618.960938 363.574219 C 618.960938 363.574219 618.960938 362.710938 619.617188 361.886719 C 619.617188 361.886719 620.273438 361.0625 621.550781 360.875 C 621.550781 360.875 621.550781 360.800781 621.289062 360.613281 C 621.289062 360.613281 621.023438 360.425781 620.574219 360.425781 C 620.574219 360.425781 618.324219 360.425781 614.988281 363.726562 C 614.988281 363.726562 613.039062 365.601562 611.648438 366.574219 C 611.648438 366.574219 612.925781 366.6875 613.84375 366.875 C 613.84375 366.875 614.761719 367.0625 615.851562 367.476562 C 615.851562 367.476562 616.9375 367.886719 617.539062 368.695312 C 617.539062 368.695312 618.136719 369.5 618.136719 370.625 C 618.136719 370.625 618.136719 371.148438 618.023438 371.5625 C 618.023438 371.5625 617.726562 372.726562 617.726562 373.511719 C 617.726562 373.511719 617.726562 374.976562 618.699219 374.976562 C 618.699219 374.976562 620.648438 374.976562 621.8125 370.699219 C 621.8125 370.699219 621.960938 370.175781 622.113281 370.0625 C 622.113281 370.0625 622.261719 369.949219 622.75 369.949219 C 622.75 369.949219 623.648438 369.949219 623.648438 370.476562 C 623.648438 370.476562 623.648438 370.699219 623.351562 371.542969 C 623.351562 371.542969 623.050781 372.386719 622.507812 373.492188 C 622.507812 373.492188 621.960938 374.601562 620.875 375.460938 C 620.875 375.460938 619.789062 376.324219 618.511719 376.324219 C 618.511719 376.324219 616.5625 376.324219 615.136719 375.273438 C 615.136719 375.273438 613.710938 374.226562 613.710938 372.460938 C 613.710938 372.460938 613.710938 372.050781 613.824219 371.5625 C 613.824219 371.5625 613.9375 371.148438 613.9375 370.773438 C 613.9375 370.773438 613.9375 369.988281 613.449219 369.40625 C 613.449219 369.40625 612.960938 368.824219 612.195312 368.523438 C 612.195312 368.523438 611.425781 368.226562 610.917969 368.113281 C 610.917969 368.113281 610.414062 368 609.960938 367.960938 C 609.960938 367.960938 608.273438 374.710938 608.238281 374.824219 C 608.238281 374.824219 607.5625 376.324219 605.949219 376.324219 C 605.949219 376.324219 605.164062 376.324219 604.65625 375.835938 C 604.65625 375.835938 604.148438 375.351562 604.148438 374.636719 C 604.148438 374.636719 604.148438 374.375 604.300781 373.773438 L 609.699219 352.136719 C 609.699219 352.136719 609.210938 352.0625 608.125 352.0625 C 608.125 352.0625 607.148438 352.0625 607.148438 351.386719 C 607.148438 351.386719 607.148438 350.898438 607.375 350.636719 C 607.375 350.636719 607.601562 350.375 607.789062 350.335938 C 607.789062 350.335938 607.976562 350.300781 608.351562 350.261719 L 613.1875 350.039062 C 613.1875 350.039062 613.261719 350 613.449219 350 C 613.449219 350 614.273438 350 614.273438 350.675781 C 614.273438 350.675781 614.273438 350.789062 614.125 351.3125 Z M 614.125 351.3125 "/>
<path style=" stroke:none;fill-rule:nonzero;fill:rgb(0%,0%,0%);fill-opacity:1;" d="M 633.960938 367.851562 L 632.3125 367.851562 C 632.3125 367.851562 631.75 369.949219 631.75 371.335938 C 631.75 371.335938 631.75 374.976562 635.425781 374.976562 C 635.425781 374.976562 640.488281 374.976562 643.300781 372.011719 C 643.300781 372.011719 643.675781 371.601562 643.863281 371.601562 C 643.863281 371.601562 644.125 371.601562 644.460938 371.976562 C 644.460938 371.976562 644.800781 372.351562 644.800781 372.574219 C 644.800781 372.574219 644.800781 372.988281 643.710938 373.90625 C 643.710938 373.90625 642.625 374.824219 641.125 375.425781 C 641.125 375.425781 638.761719 376.324219 635.3125 376.324219 C 635.3125 376.324219 631.601562 376.324219 629.539062 374.5625 C 629.539062 374.5625 627.476562 372.800781 627.476562 369.574219 C 627.476562 369.574219 627.476562 365.148438 630.757812 362.113281 C 630.757812 362.113281 634.039062 359.074219 639.0625 359.074219 C 639.0625 359.074219 641.386719 359.074219 642.792969 360.070312 C 642.792969 360.070312 644.199219 361.0625 644.199219 362.675781 C 644.199219 362.675781 644.199219 365.824219 640.488281 367.101562 C 640.488281 367.101562 638.238281 367.851562 633.960938 367.851562 M 632.648438 366.5 C 632.648438 366.5 633.738281 366.5 634.335938 366.5 C 634.335938 366.5 634.9375 366.5 636.0625 366.425781 C 636.0625 366.425781 637.1875 366.351562 637.863281 366.21875 C 637.863281 366.21875 638.539062 366.085938 639.398438 365.804688 C 639.398438 365.804688 640.261719 365.523438 640.75 365.132812 C 640.75 365.132812 641.238281 364.738281 641.59375 364.117188 C 641.59375 364.117188 641.949219 363.5 641.949219 362.710938 C 641.949219 362.710938 641.949219 361.550781 641.085938 360.988281 C 641.085938 360.988281 640.226562 360.425781 639.0625 360.425781 C 639.0625 360.425781 636.585938 360.425781 634.863281 362.148438 C 634.863281 362.148438 633.363281 363.539062 632.648438 366.5 Z M 632.648438 366.5 "/>
<path style=" stroke:none;fill-rule:nonzero;fill:rgb(0%,0%,0%);fill-opacity:1;" d="M 668.914062 351.3125 L 663.738281 371.976562 C 663.738281 371.976562 663.511719 372.761719 663.511719 373.585938 C 663.511719 373.585938 663.511719 374.976562 664.375 374.976562 C 664.375 374.976562 665.988281 374.976562 666.925781 371.226562 C 666.925781 371.226562 667.1875 370.175781 667.226562 370.136719 C 667.226562 370.136719 667.414062 369.949219 667.976562 369.949219 C 667.976562 369.949219 668.875 369.949219 668.875 370.476562 C 668.875 370.476562 668.875 370.773438 668.460938 371.992188 C 668.460938 371.992188 668.050781 373.210938 667.449219 374.1875 C 667.449219 374.1875 666.210938 376.324219 664.1875 376.324219 C 664.1875 376.324219 661.300781 376.324219 659.875 374.300781 C 659.875 374.300781 657.699219 376.324219 654.664062 376.324219 C 654.664062 376.324219 651.960938 376.324219 650.03125 374.824219 C 650.03125 374.824219 648.101562 373.324219 648.101562 370.136719 C 648.101562 370.136719 648.101562 365.976562 651.082031 362.523438 C 651.082031 362.523438 654.0625 359.074219 658.675781 359.074219 C 658.675781 359.074219 661 359.074219 662.460938 360.425781 L 664.488281 352.136719 C 664.488281 352.136719 664 352.0625 662.914062 352.0625 C 662.914062 352.0625 661.9375 352.0625 661.9375 351.386719 C 661.9375 351.386719 661.9375 350.898438 662.164062 350.636719 C 662.164062 350.636719 662.386719 350.375 662.574219 350.335938 C 662.574219 350.335938 662.761719 350.300781 663.136719 350.261719 L 667.976562 350.039062 C 667.976562 350.039062 668.050781 350 668.238281 350 C 668.238281 350 669.0625 350 669.0625 350.675781 C 669.0625 350.675781 669.0625 350.789062 668.914062 351.3125 M 659.5 372.539062 L 661.789062 363.125 L 661.863281 362.601562 C 661.863281 362.601562 661.863281 362.074219 661.019531 361.25 C 661.019531 361.25 660.175781 360.425781 658.75 360.425781 C 658.75 360.425781 655.789062 360.425781 654.210938 364.101562 C 654.210938 364.101562 653.6875 365.375 653.011719 368.074219 C 653.011719 368.074219 652.335938 370.773438 652.335938 372.125 C 652.335938 372.125 652.335938 374.976562 654.851562 374.976562 C 654.851562 374.976562 656.125 374.976562 657.363281 374.28125 C 657.363281 374.28125 658.601562 373.585938 659.5 372.539062 Z M 659.5 372.539062 "/>
<path style=" stroke:none;fill-rule:nonzero;fill:rgb(0%,0%,0%);fill-opacity:1;" d="M 693.476562 350.449219 L 697 373.511719 C 697 373.511719 697.074219 374 697.167969 374.09375 C 697.167969 374.09375 697.261719 374.1875 697.601562 374.226562 C 697.601562 374.226562 698.125 374.261719 699.0625 374.261719 C 699.0625 374.261719 699.664062 374.261719 699.90625 374.28125 C 699.90625 374.28125 700.148438 374.300781 700.355469 374.449219 C 700.355469 374.449219 700.5625 374.601562 700.5625 374.9375 C 700.5625 374.9375 700.5625 375.425781 700.335938 375.6875 C 700.335938 375.6875 700.113281 375.949219 699.945312 375.988281 C 699.945312 375.988281 699.773438 376.023438 699.511719 376.023438 C 699.511719 376.023438 699.0625 376.023438 698.199219 375.988281 C 698.199219 375.988281 697.335938 375.949219 696.886719 375.949219 C 696.886719 375.949219 696.4375 375.949219 695.574219 375.929688 C 695.574219 375.929688 694.710938 375.914062 694.300781 375.914062 C 694.300781 375.914062 693.664062 375.914062 691.488281 375.96875 C 691.488281 375.96875 689.3125 376.023438 688.710938 376.023438 C 688.710938 376.023438 687.886719 376.023438 687.886719 375.351562 C 687.886719 375.351562 687.886719 374.824219 688.113281 374.582031 C 688.113281 374.582031 688.335938 374.335938 688.5625 374.300781 C 688.5625 374.300781 688.789062 374.261719 689.273438 374.261719 C 689.273438 374.261719 690.8125 374.261719 691.710938 374.074219 L 690.851562 368.601562 L 680.726562 368.601562 L 677.273438 373.851562 C 677.273438 373.851562 678.101562 374.261719 679.449219 374.261719 C 679.449219 374.261719 680.425781 374.261719 680.425781 374.9375 C 680.425781 374.9375 680.425781 376.023438 679.414062 376.023438 C 679.414062 376.023438 678.738281 376.023438 677.351562 375.96875 C 677.351562 375.96875 675.960938 375.914062 675.25 375.914062 C 675.25 375.914062 674.648438 375.914062 673.449219 375.96875 C 673.449219 375.96875 672.25 376.023438 671.6875 376.023438 C 671.6875 376.023438 671.386719 376.023438 671.179688 375.820312 C 671.179688 375.820312 670.976562 375.613281 670.976562 375.351562 C 670.976562 375.351562 670.976562 374.863281 671.199219 374.601562 C 671.199219 374.601562 671.425781 374.335938 671.613281 374.300781 C 671.613281 374.300781 671.800781 374.261719 672.175781 374.261719 C 672.175781 374.261719 673.449219 374.261719 674.238281 374.019531 C 674.238281 374.019531 675.023438 373.773438 675.269531 373.53125 C 675.269531 373.53125 675.511719 373.289062 675.8125 372.835938 L 690.550781 350.300781 C 690.550781 350.300781 690.925781 349.699219 691.242188 349.53125 C 691.242188 349.53125 691.5625 349.363281 692.199219 349.363281 C 692.199219 349.363281 692.914062 349.363281 693.136719 349.550781 C 693.136719 349.550781 693.363281 349.738281 693.476562 350.449219 M 688.9375 356.039062 L 681.886719 366.835938 L 690.585938 366.835938 Z M 688.9375 356.039062 "/>
<path style=" stroke:none;fill-rule:nonzero;fill:rgb(0%,0%,0%);fill-opacity:1;" d="M 718.523438 360.949219 C 718.523438 360.949219 718 360.425781 717.0625 360.425781 C 717.0625 360.425781 714.664062 360.425781 712.9375 362.601562 C 712.9375 362.601562 712.488281 363.125 712.300781 363.800781 C 712.300781 363.800781 712.261719 363.949219 710.988281 369.085938 C 710.988281 369.085938 709.710938 374.226562 709.675781 374.335938 C 709.675781 374.335938 709.414062 375.386719 708.664062 375.855469 C 708.664062 375.855469 707.914062 376.324219 707.199219 376.324219 C 707.199219 376.324219 706.375 376.324219 705.90625 375.820312 C 705.90625 375.820312 705.4375 375.3125 705.4375 374.675781 L 706.113281 371.75 C 706.113281 371.75 706.523438 370.210938 706.863281 368.675781 C 706.863281 368.675781 706.976562 368.226562 707.386719 366.59375 C 707.386719 366.59375 707.800781 364.960938 707.914062 364.625 C 707.914062 364.625 708.4375 362.375 708.4375 361.773438 C 708.4375 361.773438 708.4375 360.425781 707.574219 360.425781 C 707.574219 360.425781 705.960938 360.425781 705.023438 364.175781 C 705.023438 364.175781 704.761719 365.226562 704.726562 365.261719 C 704.726562 365.261719 704.539062 365.449219 703.976562 365.449219 C 703.976562 365.449219 703.074219 365.449219 703.074219 364.925781 C 703.074219 364.925781 703.074219 364.625 703.488281 363.386719 C 703.488281 363.386719 703.898438 362.148438 704.5 361.210938 C 704.5 361.210938 705.8125 359.074219 707.761719 359.074219 C 707.761719 359.074219 709 359.074219 710.273438 359.617188 C 710.273438 359.617188 711.550781 360.164062 712.148438 361.324219 C 712.148438 361.324219 714.25 359.074219 717.136719 359.074219 C 717.136719 359.074219 718.824219 359.074219 719.820312 360.03125 C 719.820312 360.03125 720.8125 360.988281 720.8125 362.335938 C 720.8125 362.335938 720.8125 363.6875 719.988281 364.492188 C 719.988281 364.492188 719.164062 365.300781 718.113281 365.300781 C 718.113281 365.300781 717.25 365.300781 716.742188 364.773438 C 716.742188 364.773438 716.238281 364.25 716.238281 363.574219 C 716.238281 363.574219 716.238281 363.238281 716.351562 362.804688 C 716.351562 362.804688 716.460938 362.375 717.023438 361.757812 C 717.023438 361.757812 717.585938 361.136719 718.523438 360.949219 Z M 718.523438 360.949219 "/>
<path style=" stroke:none;fill-rule:nonzero;fill:rgb(0%,0%,0%);fill-opacity:1;" d="M 732.363281 361.136719 L 729.625 371.976562 C 729.625 371.976562 729.398438 372.949219 729.398438 373.585938 C 729.398438 373.585938 729.398438 374.074219 729.476562 374.375 C 729.476562 374.375 729.550781 374.675781 729.71875 374.804688 C 729.71875 374.804688 729.886719 374.9375 730 374.957031 C 730 374.957031 730.113281 374.976562 730.300781 374.976562 C 730.300781 374.976562 731.539062 374.976562 732.925781 373.886719 C 732.925781 373.886719 734.3125 372.800781 735.289062 370.550781 C 735.289062 370.550781 735.476562 370.136719 735.605469 370.042969 C 735.605469 370.042969 735.738281 369.949219 736.226562 369.949219 C 736.226562 369.949219 737.125 369.949219 737.125 370.476562 C 737.125 370.476562 737.125 370.773438 736.636719 371.675781 C 736.636719 371.675781 736.148438 372.574219 735.304688 373.644531 C 735.304688 373.644531 734.460938 374.710938 733.054688 375.519531 C 733.054688 375.519531 731.648438 376.324219 730.113281 376.324219 C 730.113281 376.324219 728.199219 376.324219 726.792969 375.351562 C 726.792969 375.351562 725.386719 374.375 725.386719 372.648438 C 725.386719 372.648438 725.386719 372.050781 726.023438 369.6875 L 728.164062 361.136719 L 725.125 361.136719 C 725.125 361.136719 724.675781 361.136719 724.46875 361.117188 C 724.46875 361.117188 724.261719 361.101562 724.054688 360.929688 C 724.054688 360.929688 723.851562 360.761719 723.851562 360.460938 C 723.851562 360.460938 723.851562 359.9375 724.074219 359.695312 C 724.074219 359.695312 724.300781 359.449219 724.523438 359.414062 C 724.523438 359.414062 724.75 359.375 725.238281 359.375 L 728.613281 359.375 L 729.363281 356.300781 C 729.363281 356.300781 730.039062 353.601562 730.226562 353.226562 C 730.226562 353.226562 730.976562 351.914062 732.398438 351.914062 C 732.398438 351.914062 733.074219 351.914062 733.617188 352.324219 C 733.617188 352.324219 734.164062 352.738281 734.164062 353.5625 C 734.164062 353.5625 734.164062 353.9375 734.011719 354.539062 L 732.8125 359.375 L 735.8125 359.375 C 735.8125 359.375 737.050781 359.375 737.050781 360.050781 C 737.050781 360.050781 737.050781 360.726562 736.710938 360.949219 C 736.710938 360.949219 736.523438 361.136719 735.699219 361.136719 Z M 732.363281 361.136719 "/>
<path style=" stroke:none;fill-rule:nonzero;fill:rgb(0%,0%,0%);fill-opacity:1;" d="M 261.875 265.949219 C 261.875 265.949219 265.625 266.699219 267.273438 269.625 C 267.273438 269.625 268.136719 271.085938 268.136719 272.738281 C 268.136719 272.738281 268.136719 275.925781 265.511719 278.101562 C 265.511719 278.101562 263.226562 279.976562 260.148438 279.976562 C 260.148438 279.976562 256.4375 279.976562 254.1875 277.761719 C 254.1875 277.761719 252.574219 276.1875 252.574219 274.085938 C 252.574219 274.085938 252.574219 272.324219 254.148438 271.988281 C 254.148438 271.988281 254.414062 271.914062 254.675781 271.914062 C 254.675781 271.914062 256.101562 271.914062 256.585938 273.113281 C 256.585938 273.113281 256.738281 273.601562 256.773438 274.011719 C 256.773438 274.011719 256.773438 275.511719 255.425781 275.960938 C 255.425781 275.960938 254.898438 276.148438 254.300781 276.074219 C 254.300781 276.074219 255.6875 278.398438 259.101562 278.851562 C 259.101562 278.851562 259.585938 278.925781 260.039062 278.925781 C 260.039062 278.925781 262.4375 278.925781 263.5625 276.5625 C 263.5625 276.5625 264.273438 275.0625 264.273438 272.738281 C 264.273438 272.738281 264.273438 267.75 261.273438 266.738281 C 261.273438 266.738281 260.601562 266.511719 259.8125 266.511719 L 258.164062 266.511719 C 258.164062 266.511719 257.335938 266.511719 257.261719 266.101562 C 257.261719 266.101562 257.261719 265.726562 257.824219 265.648438 C 257.824219 265.648438 258.386719 265.648438 259.289062 265.539062 C 259.289062 265.539062 261.199219 265.460938 262.289062 264.074219 L 262.289062 264.039062 L 262.324219 264 L 262.363281 263.960938 L 262.398438 263.960938 L 262.625 263.585938 C 262.625 263.585938 263.675781 261.824219 263.675781 259.3125 C 263.675781 259.3125 263.675781 255.824219 260.976562 255.226562 C 260.976562 255.226562 260.523438 255.113281 260.074219 255.113281 C 260.074219 255.113281 257.449219 255.113281 255.800781 256.613281 C 255.800781 256.613281 255.386719 256.988281 255.085938 257.4375 C 255.085938 257.4375 257.414062 257.4375 257.414062 259.3125 C 257.414062 259.3125 257.414062 260.664062 256.25 261.113281 C 256.25 261.113281 255.914062 261.226562 255.5 261.226562 C 255.5 261.226562 254.039062 261.226562 253.664062 259.914062 L 253.664062 259.875 C 253.664062 259.875 253.585938 259.574219 253.585938 259.273438 C 253.585938 259.273438 253.585938 256.761719 256.0625 255.261719 C 256.0625 255.261719 257.863281 254.175781 260.226562 254.175781 C 260.226562 254.175781 263.636719 254.175781 265.738281 256.199219 L 265.8125 256.273438 C 265.8125 256.273438 267.125 257.625 267.125 259.351562 C 267.125 259.351562 267.125 262.460938 264.460938 264.5625 C 264.460938 264.5625 263.300781 265.460938 261.875 265.949219 Z M 261.875 265.949219 "/>
<path style=" stroke:none;fill-rule:nonzero;fill:rgb(0%,0%,0%);fill-opacity:1;" d="M 274.699219 266.851562 C 274.699219 266.851562 276.238281 263.136719 279.386719 263.136719 C 279.386719 263.136719 282.835938 263.136719 285.050781 265.988281 C 285.050781 265.988281 286.289062 267.523438 286.699219 269.585938 C 286.699219 269.585938 286.886719 270.523438 286.886719 271.5 C 286.886719 271.5 286.886719 275.664062 284 278.175781 C 284 278.175781 281.898438 279.976562 279.164062 279.976562 C 279.164062 279.976562 275.335938 279.976562 273.199219 276.335938 C 273.199219 276.335938 271.324219 273.074219 271.324219 267.300781 C 271.324219 267.300781 271.324219 260.8125 275 256.988281 C 275 256.988281 277.738281 254.175781 281.1875 254.175781 C 281.1875 254.175781 284.449219 254.175781 285.574219 256.460938 C 285.574219 256.460938 285.949219 257.25 285.949219 258.226562 C 285.949219 258.226562 285.949219 259.726562 284.5625 259.988281 C 284.5625 259.988281 284.375 260.023438 284.226562 260.023438 C 284.226562 260.023438 283.023438 260.023438 282.613281 258.976562 C 282.613281 258.976562 282.5 258.675781 282.5 258.300781 C 282.5 258.300781 282.5 256.613281 284.5625 256.613281 C 284.5625 256.613281 283.585938 255.113281 281.261719 255.113281 C 281.261719 255.113281 278.636719 255.113281 276.835938 257.476562 C 276.835938 257.476562 274.699219 260.289062 274.699219 265.949219 L 274.699219 266.851562 M 279.164062 278.925781 C 279.164062 278.925781 281.675781 278.925781 282.875 276.488281 C 282.875 276.488281 283.511719 275.136719 283.511719 271.460938 C 283.511719 271.460938 283.511719 267.710938 282.835938 266.324219 C 282.835938 266.324219 281.675781 264 279.351562 264 C 279.351562 264 276.386719 264 275.261719 267.523438 C 275.261719 267.523438 274.773438 268.988281 274.773438 270.675781 C 274.773438 270.675781 274.773438 274.351562 275.449219 276.113281 C 275.449219 276.113281 276.164062 277.835938 277.664062 278.585938 C 277.664062 278.585938 278.375 278.925781 279.164062 278.925781 Z M 279.164062 278.925781 "/>
<path style=" stroke:none;fill-rule:nonzero;fill:rgb(0%,0%,0%);fill-opacity:1;" d="M 559.835938 274.625 L 558.789062 281.148438 L 544.875 281.148438 C 544.875 281.148438 544.875 280.210938 545.101562 279.949219 L 545.289062 279.761719 L 552.488281 271.738281 C 552.488281 271.738281 556.425781 267.3125 556.425781 263.449219 C 556.425781 263.449219 556.425781 260.113281 554.398438 258.386719 L 554.363281 258.351562 L 554.324219 258.351562 C 554.324219 258.351562 553.125 257.335938 551.398438 257.335938 C 551.398438 257.335938 548.699219 257.335938 547.085938 259.664062 C 547.085938 259.664062 546.636719 260.335938 546.335938 261.164062 C 546.335938 261.164062 546.449219 261.125 546.824219 261.125 C 546.824219 261.125 548.324219 261.125 548.738281 262.476562 L 548.738281 262.511719 C 548.738281 262.511719 548.8125 262.773438 548.8125 263.074219 C 548.8125 263.074219 548.8125 264.574219 547.386719 264.988281 C 547.386719 264.988281 547.085938 265.0625 546.863281 265.0625 C 546.863281 265.0625 545.476562 265.0625 545.023438 263.898438 C 545.023438 263.898438 544.875 263.488281 544.875 262.960938 C 544.875 262.960938 544.875 260.074219 547.085938 258.011719 C 547.085938 258.011719 549.074219 256.175781 551.886719 256.175781 C 551.886719 256.175781 556.011719 256.175781 558.300781 258.949219 C 558.300781 258.949219 559.613281 260.5625 559.800781 262.773438 C 559.800781 262.773438 559.835938 263.113281 559.835938 263.449219 C 559.835938 263.449219 559.835938 266.1875 557.773438 268.664062 C 557.773438 268.664062 556.6875 269.9375 554.398438 272.039062 L 552.113281 274.0625 L 551.738281 274.398438 L 547.761719 278.261719 L 554.511719 278.261719 C 554.511719 278.261719 557.8125 278.261719 558.074219 277.960938 C 558.074219 277.960938 558.449219 277.4375 558.898438 274.625 Z M 559.835938 274.625 "/>
<path style=" stroke:none;fill-rule:nonzero;fill:rgb(0%,0%,0%);fill-opacity:1;" d="M 405.273438 257.789062 L 405.273438 279.386719 L 410.523438 279.386719 L 410.523438 281.148438 C 410.523438 281.148438 408.875 281.039062 403.0625 281.039062 C 403.0625 281.039062 397.25 281.039062 395.601562 281.148438 L 395.601562 279.386719 L 400.8125 279.386719 L 400.8125 260 C 400.8125 260 398.488281 260.75 395.9375 260.75 L 395.1875 260.75 L 395.1875 258.988281 L 395.9375 258.988281 C 395.9375 258.988281 400.585938 258.988281 403.476562 256.851562 C 403.476562 256.851562 403.8125 256.585938 404.300781 256.585938 C 404.300781 256.585938 404.976562 256.585938 405.125 256.832031 C 405.125 256.832031 405.273438 257.074219 405.273438 257.789062 Z M 405.273438 257.789062 "/>
<path style=" stroke:none;fill-rule:nonzero;fill:rgb(0%,0%,0%);fill-opacity:1;" d="M 420.460938 268.324219 C 420.460938 268.324219 422.039062 265.476562 424.960938 265.476562 C 424.960938 265.476562 428.523438 265.476562 430.90625 267.574219 C 430.90625 267.574219 433.289062 269.675781 433.289062 273.460938 C 433.289062 273.460938 433.289062 277.175781 430.851562 279.367188 C 430.851562 279.367188 428.414062 281.5625 424.476562 281.5625 C 424.476562 281.5625 419.5625 281.5625 417.238281 277.8125 C 417.238281 277.8125 415.363281 274.664062 415.363281 269.261719 C 415.363281 269.261719 415.363281 265.886719 416.394531 263.320312 C 416.394531 263.320312 417.425781 260.75 419.113281 259.34375 C 419.113281 259.34375 420.800781 257.9375 422.710938 257.261719 C 422.710938 257.261719 424.625 256.585938 426.648438 256.585938 C 426.648438 256.585938 429.425781 256.585938 430.8125 257.957031 C 430.8125 257.957031 432.199219 259.324219 432.199219 261.273438 C 432.199219 261.273438 432.199219 262.363281 431.5625 263.019531 C 431.5625 263.019531 430.925781 263.675781 429.835938 263.675781 C 429.835938 263.675781 428.789062 263.675781 428.148438 263 C 428.148438 263 427.511719 262.324219 427.511719 261.351562 C 427.511719 261.351562 427.511719 260.449219 428.039062 259.8125 C 428.039062 259.8125 428.5625 259.175781 429.539062 259.023438 C 429.539062 259.023438 428.5625 258.050781 426.726562 258.050781 C 426.726562 258.050781 425.039062 258.050781 423.632812 258.929688 C 423.632812 258.929688 422.226562 259.8125 421.511719 261.164062 C 421.511719 261.164062 420.460938 263.414062 420.460938 267.613281 L 420.460938 268.324219 M 424.398438 279.949219 C 424.398438 279.949219 425.488281 279.949219 426.238281 279.59375 C 426.238281 279.59375 426.988281 279.238281 427.363281 278.769531 C 427.363281 278.769531 427.738281 278.300781 427.925781 277.289062 C 427.925781 277.289062 428.113281 276.273438 428.148438 275.5625 C 428.148438 275.5625 428.1875 274.851562 428.1875 273.386719 C 428.1875 273.386719 428.1875 271.925781 428.167969 271.230469 C 428.167969 271.230469 428.148438 270.539062 427.960938 269.507812 C 427.960938 269.507812 427.773438 268.476562 427.417969 268.007812 C 427.417969 268.007812 427.0625 267.539062 426.367188 267.179688 C 426.367188 267.179688 425.675781 266.824219 424.625 266.824219 C 424.625 266.824219 422.898438 266.824219 421.71875 268.417969 C 421.71875 268.417969 420.539062 270.011719 420.539062 273.273438 C 420.539062 273.273438 420.539062 276.6875 421.136719 277.886719 C 421.136719 277.886719 422.1875 279.949219 424.398438 279.949219 Z M 424.398438 279.949219 "/>
<path style=" stroke:none;fill-rule:nonzero;fill:rgb(0%,0%,0%);fill-opacity:1;" d="M 402.425781 462.980469 C 402.425781 462.980469 402.214844 462.980469 402.214844 462.742188 L 402.214844 462.652344 C 402.214844 462.652344 402.742188 460.570312 404.140625 458.816406 C 404.140625 458.816406 405.539062 457.0625 407.449219 455.992188 C 407.449219 455.992188 408.726562 455.253906 409.703125 454.457031 C 409.703125 454.457031 410.679688 453.660156 411.382812 452.699219 C 411.382812 452.699219 412.089844 451.734375 412.484375 450.550781 C 412.484375 450.550781 412.878906 449.363281 412.878906 447.9375 C 412.878906 447.9375 412.878906 447.214844 412.628906 446.5625 C 412.628906 446.5625 412.378906 445.910156 411.859375 445.507812 C 411.859375 445.507812 411.339844 445.105469 410.585938 445.105469 C 410.585938 445.105469 409.585938 445.105469 408.617188 445.777344 C 408.617188 445.777344 407.648438 446.449219 406.910156 447.503906 C 406.910156 447.503906 406.171875 448.558594 405.742188 449.730469 C 405.742188 449.730469 405.3125 450.90625 405.3125 451.800781 C 405.3125 451.800781 405.3125 452.617188 405.855469 452.617188 C 405.855469 452.617188 406.5 452.617188 407.097656 452.011719 C 407.097656 452.011719 407.699219 451.40625 408.074219 450.550781 C 408.074219 450.550781 408.449219 449.691406 408.449219 449.074219 C 408.449219 449.074219 408.449219 448.808594 408.285156 448.386719 C 408.285156 448.386719 408.121094 447.964844 408.121094 447.9375 C 408.121094 447.9375 408.121094 447.808594 408.257812 447.6875 C 408.257812 447.6875 408.398438 447.570312 408.554688 447.570312 C 408.554688 447.570312 408.832031 447.570312 408.992188 448.089844 C 408.992188 448.089844 409.148438 448.609375 409.148438 449.019531 C 409.148438 449.019531 409.148438 449.863281 408.6875 450.878906 C 408.6875 450.878906 408.226562 451.894531 407.441406 452.605469 C 407.441406 452.605469 406.65625 453.316406 405.800781 453.316406 C 405.800781 453.316406 405.128906 453.316406 404.777344 452.816406 C 404.777344 452.816406 404.429688 452.316406 404.429688 451.589844 C 404.429688 451.589844 404.429688 450.785156 404.824219 449.707031 C 404.824219 449.707031 405.222656 448.625 405.820312 447.667969 C 405.820312 447.667969 406.421875 446.710938 407.054688 446.078125 C 407.054688 446.078125 408.703125 444.40625 410.640625 444.40625 C 410.640625 444.40625 411.90625 444.40625 412.867188 445.011719 C 412.867188 445.011719 413.828125 445.617188 414.351562 446.671875 C 414.351562 446.671875 414.871094 447.726562 414.871094 448.941406 C 414.871094 448.941406 414.871094 450.800781 413.894531 452.203125 C 413.894531 452.203125 412.921875 453.609375 411.601562 454.503906 C 411.601562 454.503906 410.285156 455.402344 407.988281 456.691406 C 407.988281 456.691406 405.644531 458.039062 404.246094 460.253906 C 404.246094 460.253906 404.378906 460.226562 404.613281 460.226562 C 404.613281 460.226562 405.417969 460.226562 406.347656 460.417969 C 406.347656 460.417969 407.277344 460.609375 408.199219 460.800781 C 408.199219 460.800781 409.125 460.992188 409.941406 460.992188 C 409.941406 460.992188 411.023438 460.992188 411.886719 460.023438 C 411.886719 460.023438 412.75 459.050781 413.039062 457.878906 C 413.039062 457.878906 413.089844 457.722656 413.261719 457.722656 L 413.738281 457.722656 C 413.738281 457.722656 413.84375 457.722656 413.914062 457.792969 C 413.914062 457.792969 413.988281 457.867188 413.988281 457.957031 C 413.988281 457.957031 413.988281 457.984375 413.960938 458.039062 C 413.960938 458.039062 413.710938 459.144531 413.105469 460.3125 C 413.105469 460.3125 412.5 461.476562 411.59375 462.230469 C 411.59375 462.230469 410.691406 462.980469 409.558594 462.980469 C 409.558594 462.980469 408.914062 462.980469 408.410156 462.757812 C 408.410156 462.757812 407.910156 462.53125 407.144531 462.011719 C 407.144531 462.011719 406.382812 461.492188 405.792969 461.207031 C 405.792969 461.207031 405.207031 460.925781 404.589844 460.925781 C 404.589844 460.925781 404.101562 460.925781 403.824219 461.3125 C 403.824219 461.3125 403.546875 461.703125 403.289062 462.328125 C 403.289062 462.328125 403.03125 462.953125 402.914062 462.980469 Z M 402.425781 462.980469 "/>
<path style=" stroke:none;fill-rule:nonzero;fill:rgb(0%,0%,0%);fill-opacity:1;" d="M 423.785156 462.980469 C 423.785156 462.980469 422.214844 462.980469 421.285156 461.914062 C 421.285156 461.914062 420.355469 460.84375 420.355469 459.277344 C 420.355469 459.277344 420.355469 458.25 420.710938 457.511719 C 420.710938 457.511719 421.066406 456.773438 421.976562 456.773438 C 421.976562 456.773438 422.414062 456.773438 422.710938 457.035156 C 422.710938 457.035156 423.007812 457.300781 423.007812 457.722656 C 423.007812 457.722656 423.007812 458.3125 422.550781 458.757812 C 422.550781 458.757812 422.097656 459.199219 421.488281 459.199219 L 421.304688 459.199219 C 421.304688 459.199219 421.304688 460.027344 421.601562 460.6875 C 421.601562 460.6875 421.898438 461.347656 422.472656 461.734375 C 422.472656 461.734375 423.046875 462.125 423.863281 462.125 C 423.863281 462.125 425.011719 462.125 425.992188 461.320312 C 425.992188 461.320312 426.972656 460.515625 427.542969 459.394531 C 427.542969 459.394531 427.871094 458.710938 428.179688 457.707031 C 428.179688 457.707031 428.492188 456.707031 428.6875 455.683594 C 428.6875 455.683594 428.886719 454.664062 428.886719 454.015625 C 428.886719 454.015625 428.886719 453.476562 428.734375 452.957031 C 428.734375 452.957031 428.582031 452.433594 428.238281 452.089844 C 428.238281 452.089844 427.898438 451.75 427.355469 451.75 C 427.355469 451.75 426.511719 451.75 425.820312 452.03125 C 425.820312 452.03125 425.128906 452.316406 424.679688 452.683594 C 424.679688 452.683594 424.230469 453.054688 423.84375 453.457031 C 423.84375 453.457031 423.453125 453.859375 423.347656 453.882812 L 423.058594 453.882812 C 423.058594 453.882812 422.78125 453.882812 422.78125 453.527344 L 425.023438 444.644531 C 425.023438 444.644531 425.074219 444.40625 425.300781 444.40625 C 425.300781 444.40625 425.378906 444.433594 425.433594 444.457031 C 425.433594 444.457031 426.882812 445.277344 428.703125 445.277344 C 428.703125 445.277344 430.546875 445.277344 432.457031 444.40625 L 432.539062 444.40625 C 432.539062 444.40625 432.644531 444.40625 432.710938 444.492188 C 432.710938 444.492188 432.773438 444.578125 432.773438 444.683594 C 432.773438 444.683594 432.695312 445 432.589844 445.105469 C 432.589844 445.105469 431.535156 446.160156 430.152344 446.792969 C 430.152344 446.792969 428.765625 447.425781 427.332031 447.425781 C 427.332031 447.425781 426.277344 447.425781 425.378906 447.082031 L 424.085938 452.261719 C 424.085938 452.261719 425.601562 451.050781 427.382812 451.050781 C 427.382812 451.050781 429.042969 451.050781 429.96875 452.28125 C 429.96875 452.28125 430.890625 453.515625 430.890625 455.230469 C 430.890625 455.230469 430.890625 456.613281 430.335938 457.992188 C 430.335938 457.992188 429.78125 459.367188 428.789062 460.507812 C 428.789062 460.507812 427.792969 461.648438 426.5 462.316406 C 426.5 462.316406 425.207031 462.980469 423.785156 462.980469 Z M 423.785156 462.980469 "/>
</g>
</svg>
