<?xml version="1.0" encoding="utf-8" standalone="no"?>
<!DOCTYPE svg PUBLIC "-//W3C//DTD SVG 1.1//EN"
  "http://www.w3.org/Graphics/SVG/1.1/DTD/svg11.dtd">
<svg xmlns:xlink="http://www.w3.org/1999/xlink" width="720pt" height="432pt" viewBox="0 0 720 432" xmlns="http://www.w3.org/2000/svg" version="1.1">
 <metadata>
  <rdf:RDF xmlns:dc="http://purl.org/dc/elements/1.1/" xmlns:cc="http://creativecommons.org/ns#" xmlns:rdf="http://www.w3.org/1999/02/22-rdf-syntax-ns#">
   <cc:Work>
    <dc:type rdf:resource="http://purl.org/dc/dcmitype/StillImage"/>
    <dc:date>2023-06-07T02:26:36.902944</dc:date>
    <dc:format>image/svg+xml</dc:format>
    <dc:creator>
     <cc:Agent>
      <dc:title>Matplotlib v3.5.2, https://matplotlib.org/</dc:title>
     </cc:Agent>
    </dc:creator>
   </cc:Work>
  </rdf:RDF>
 </metadata>
 <defs>
  <style type="text/css">*{stroke-linejoin: round; stroke-linecap: butt}</style>
 </defs>
 <g id="figure_1">
  <g id="patch_1">
   <path d="M 0 432 
L 720 432 
L 720 0 
L 0 0 
z
" style="fill: #ffffff"/>
  </g>
  <g id="axes_1">
   <g id="patch_2">
    <path d="M 90 384.48 
L 648 384.48 
L 648 51.84 
L 90 51.84 
z
" style="fill: #ffffff"/>
   </g>
   <g id="PathCollection_1">
    <path d="M 115.363636 374.103416 
C 116.621605 374.103416 117.82822 373.60362 118.717738 372.714102 
C 119.607257 371.824584 120.107053 370.617969 120.107053 369.36 
C 120.107053 368.102031 119.607257 366.895416 118.717738 366.005898 
C 117.82822 365.11638 116.621605 364.616584 115.363636 364.616584 
C 114.105668 364.616584 112.899053 365.11638 112.009534 366.005898 
C 111.120016 366.895416 110.62022 368.102031 110.62022 369.36 
C 110.62022 370.617969 111.120016 371.824584 112.009534 372.714102 
C 112.899053 373.60362 114.105668 374.103416 115.363636 374.103416 
z
" clip-path="url(#p30ddd5d490)" style="fill: #800080; fill-opacity: 0.7; stroke: #800080; stroke-opacity: 0.7"/>
    <path d="M 232.426573 368.397756 
C 233.684542 368.397756 234.891157 367.89796 235.780675 367.008442 
C 236.670194 366.118923 237.16999 364.912308 237.16999 363.65434 
C 237.16999 362.396371 236.670194 361.189756 235.780675 360.300238 
C 234.891157 359.410719 233.684542 358.910923 232.426573 358.910923 
C 231.168605 358.910923 229.96199 359.410719 229.072471 360.300238 
C 228.182953 361.189756 227.683157 362.396371 227.683157 363.65434 
C 227.683157 364.912308 228.182953 366.118923 229.072471 367.008442 
C 229.96199 367.89796 231.168605 368.397756 232.426573 368.397756 
z
" clip-path="url(#p30ddd5d490)" style="fill: #ff0000; fill-opacity: 0.7; stroke: #ff0000; stroke-opacity: 0.7"/>
    <path d="M 349.48951 360.687292 
C 350.215799 360.687292 350.912439 360.398735 351.426002 359.885171 
C 351.939566 359.371607 352.228123 358.674968 352.228123 357.948679 
C 352.228123 357.222391 351.939566 356.525751 351.426002 356.012188 
C 350.912439 355.498624 350.215799 355.210066 349.48951 355.210066 
C 348.763222 355.210066 348.066582 355.498624 347.553019 356.012188 
C 347.039455 356.525751 346.750898 357.222391 346.750898 357.948679 
C 346.750898 358.674968 347.039455 359.371607 347.553019 359.885171 
C 348.066582 360.398735 348.763222 360.687292 349.48951 360.687292 
z
" clip-path="url(#p30ddd5d490)" style="fill: #ff0000; fill-opacity: 0.7; stroke: #ff0000; stroke-opacity: 0.7"/>
    <path d="M 466.552448 356.986435 
C 467.810416 356.986435 469.017031 356.486639 469.90655 355.597121 
C 470.796068 354.707603 471.295864 353.500988 471.295864 352.243019 
C 471.295864 350.98505 470.796068 349.778435 469.90655 348.888917 
C 469.017031 347.999399 467.810416 347.499602 466.552448 347.499602 
C 465.294479 347.499602 464.087864 347.999399 463.198346 348.888917 
C 462.308827 349.778435 461.809031 350.98505 461.809031 352.243019 
C 461.809031 353.500988 462.308827 354.707603 463.198346 355.597121 
C 464.087864 356.486639 465.294479 356.986435 466.552448 356.986435 
z
" clip-path="url(#p30ddd5d490)" style="fill: #ff0000; fill-opacity: 0.7; stroke: #ff0000; stroke-opacity: 0.7"/>
    <path d="M 544.594406 353.245562 
C 546.373442 353.245562 548.079853 352.538744 549.337822 351.280775 
C 550.595791 350.022806 551.30261 348.316395 551.30261 346.537358 
C 551.30261 344.758322 550.595791 343.051911 549.337822 341.793942 
C 548.079853 340.535973 546.373442 339.829155 544.594406 339.829155 
C 542.815369 339.829155 541.108958 340.535973 539.850989 341.793942 
C 538.59302 343.051911 537.886202 344.758322 537.886202 346.537358 
C 537.886202 348.316395 538.59302 350.022806 539.850989 351.280775 
C 541.108958 352.538744 542.815369 353.245562 544.594406 353.245562 
z
" clip-path="url(#p30ddd5d490)" style="fill: #ff0000; fill-opacity: 0.7; stroke: #ff0000; stroke-opacity: 0.7"/>
    <path d="M 583.615385 343.570311 
C 584.341673 343.570311 585.038313 343.281753 585.551876 342.76819 
C 586.06544 342.254626 586.353997 341.557987 586.353997 340.831698 
C 586.353997 340.10541 586.06544 339.40877 585.551876 338.895206 
C 585.038313 338.381643 584.341673 338.093085 583.615385 338.093085 
C 582.889096 338.093085 582.192457 338.381643 581.678893 338.895206 
C 581.165329 339.40877 580.876772 340.10541 580.876772 340.831698 
C 580.876772 341.557987 581.165329 342.254626 581.678893 342.76819 
C 582.192457 343.281753 582.889096 343.570311 583.615385 343.570311 
z
" clip-path="url(#p30ddd5d490)" style="fill: #ff0000; fill-opacity: 0.7; stroke: #ff0000; stroke-opacity: 0.7"/>
    <path d="M 349.48951 337.864651 
C 350.215799 337.864651 350.912439 337.576093 351.426002 337.062529 
C 351.939566 336.548966 352.228123 335.852326 352.228123 335.126038 
C 352.228123 334.399749 351.939566 333.70311 351.426002 333.189546 
C 350.912439 332.675982 350.215799 332.387425 349.48951 332.387425 
C 348.763222 332.387425 348.066582 332.675982 347.553019 333.189546 
C 347.039455 333.70311 346.750898 334.399749 346.750898 335.126038 
C 346.750898 335.852326 347.039455 336.548966 347.553019 337.062529 
C 348.066582 337.576093 348.763222 337.864651 349.48951 337.864651 
z
" clip-path="url(#p30ddd5d490)" style="fill: #ff0000; fill-opacity: 0.7; stroke: #ff0000; stroke-opacity: 0.7"/>
    <path d="M 388.51049 334.163794 
C 389.768458 334.163794 390.975073 333.663998 391.864591 332.774479 
C 392.75411 331.884961 393.253906 330.678346 393.253906 329.420377 
C 393.253906 328.162409 392.75411 326.955794 391.864591 326.066275 
C 390.975073 325.176757 389.768458 324.676961 388.51049 324.676961 
C 387.252521 324.676961 386.045906 325.176757 385.156388 326.066275 
C 384.266869 326.955794 383.767073 328.162409 383.767073 329.420377 
C 383.767073 330.678346 384.266869 331.884961 385.156388 332.774479 
C 386.045906 333.663998 387.252521 334.163794 388.51049 334.163794 
z
" clip-path="url(#p30ddd5d490)" style="fill: #800080; fill-opacity: 0.7; stroke: #800080; stroke-opacity: 0.7"/>
    <path d="M 505.573427 328.458133 
C 506.831395 328.458133 508.03801 327.958337 508.927529 327.068819 
C 509.817047 326.179301 510.316843 324.972686 510.316843 323.714717 
C 510.316843 322.456748 509.817047 321.250133 508.927529 320.360615 
C 508.03801 319.471097 506.831395 318.9713 505.573427 318.9713 
C 504.315458 318.9713 503.108843 319.471097 502.219325 320.360615 
C 501.329806 321.250133 500.83001 322.456748 500.83001 323.714717 
C 500.83001 324.972686 501.329806 326.179301 502.219325 327.068819 
C 503.108843 327.958337 504.315458 328.458133 505.573427 328.458133 
z
" clip-path="url(#p30ddd5d490)" style="fill: #ff0000; fill-opacity: 0.7; stroke: #ff0000; stroke-opacity: 0.7"/>
    <path d="M 505.573427 322.752473 
C 506.831395 322.752473 508.03801 322.252677 508.927529 321.363159 
C 509.817047 320.47364 510.316843 319.267025 510.316843 318.009057 
C 510.316843 316.751088 509.817047 315.544473 508.927529 314.654955 
C 508.03801 313.765436 506.831395 313.26564 505.573427 313.26564 
C 504.315458 313.26564 503.108843 313.765436 502.219325 314.654955 
C 501.329806 315.544473 500.83001 316.751088 500.83001 318.009057 
C 500.83001 319.267025 501.329806 320.47364 502.219325 321.363159 
C 503.108843 322.252677 504.315458 322.752473 505.573427 322.752473 
z
" clip-path="url(#p30ddd5d490)" style="fill: #ff0000; fill-opacity: 0.7; stroke: #ff0000; stroke-opacity: 0.7"/>
    <path d="M 310.468531 319.0116 
C 312.247568 319.0116 313.953979 318.304781 315.211948 317.046813 
C 316.469917 315.788844 317.176735 314.082433 317.176735 312.303396 
C 317.176735 310.52436 316.469917 308.817948 315.211948 307.55998 
C 313.953979 306.302011 312.247568 305.595192 310.468531 305.595192 
C 308.689495 305.595192 306.983084 306.302011 305.725115 307.55998 
C 304.467146 308.817948 303.760328 310.52436 303.760328 312.303396 
C 303.760328 314.082433 304.467146 315.788844 305.725115 317.046813 
C 306.983084 318.304781 308.689495 319.0116 310.468531 319.0116 
z
" clip-path="url(#p30ddd5d490)" style="fill: #ff0000; fill-opacity: 0.7; stroke: #ff0000; stroke-opacity: 0.7"/>
    <path d="M 427.531469 311.341152 
C 428.789437 311.341152 429.996052 310.841356 430.88557 309.951838 
C 431.775089 309.06232 432.274885 307.855705 432.274885 306.597736 
C 432.274885 305.339767 431.775089 304.133152 430.88557 303.243634 
C 429.996052 302.354116 428.789437 301.854319 427.531469 301.854319 
C 426.2735 301.854319 425.066885 302.354116 424.177367 303.243634 
C 423.287848 304.133152 422.788052 305.339767 422.788052 306.597736 
C 422.788052 307.855705 423.287848 309.06232 424.177367 309.951838 
C 425.066885 310.841356 426.2735 311.341152 427.531469 311.341152 
z
" clip-path="url(#p30ddd5d490)" style="fill: #ff0000; fill-opacity: 0.7; stroke: #ff0000; stroke-opacity: 0.7"/>
    <path d="M 349.48951 305.635492 
C 350.747479 305.635492 351.954094 305.135696 352.843612 304.246177 
C 353.733131 303.356659 354.232927 302.150044 354.232927 300.892075 
C 354.232927 299.634107 353.733131 298.427492 352.843612 297.537974 
C 351.954094 296.648455 350.747479 296.148659 349.48951 296.148659 
C 348.231542 296.148659 347.024927 296.648455 346.135409 297.537974 
C 345.24589 298.427492 344.746094 299.634107 344.746094 300.892075 
C 344.746094 302.150044 345.24589 303.356659 346.135409 304.246177 
C 347.024927 305.135696 348.231542 305.635492 349.48951 305.635492 
z
" clip-path="url(#p30ddd5d490)" style="fill: #ff0000; fill-opacity: 0.7; stroke: #ff0000; stroke-opacity: 0.7"/>
    <path d="M 466.552448 297.925028 
C 467.278736 297.925028 467.975376 297.63647 468.488939 297.122907 
C 469.002503 296.609343 469.29106 295.912704 469.29106 295.186415 
C 469.29106 294.460126 469.002503 293.763487 468.488939 293.249923 
C 467.975376 292.73636 467.278736 292.447802 466.552448 292.447802 
C 465.826159 292.447802 465.129519 292.73636 464.615956 293.249923 
C 464.102392 293.763487 463.813835 294.460126 463.813835 295.186415 
C 463.813835 295.912704 464.102392 296.609343 464.615956 297.122907 
C 465.129519 297.63647 465.826159 297.925028 466.552448 297.925028 
z
" clip-path="url(#p30ddd5d490)" style="fill: #800080; fill-opacity: 0.7; stroke: #800080; stroke-opacity: 0.7"/>
    <path d="M 427.531469 294.224171 
C 428.789437 294.224171 429.996052 293.724375 430.88557 292.834857 
C 431.775089 291.945338 432.274885 290.738723 432.274885 289.480755 
C 432.274885 288.222786 431.775089 287.016171 430.88557 286.126653 
C 429.996052 285.237135 428.789437 284.737338 427.531469 284.737338 
C 426.2735 284.737338 425.066885 285.237135 424.177367 286.126653 
C 423.287848 287.016171 422.788052 288.222786 422.788052 289.480755 
C 422.788052 290.738723 423.287848 291.945338 424.177367 292.834857 
C 425.066885 293.724375 426.2735 294.224171 427.531469 294.224171 
z
" clip-path="url(#p30ddd5d490)" style="fill: #ff0000; fill-opacity: 0.7; stroke: #ff0000; stroke-opacity: 0.7"/>
    <path d="M 349.48951 293.261927 
C 352.005448 293.261927 354.418678 292.262335 356.197714 290.483298 
C 357.976751 288.704262 358.976343 286.291032 358.976343 283.775094 
C 358.976343 281.259157 357.976751 278.845927 356.197714 277.06689 
C 354.418678 275.287854 352.005448 274.288261 349.48951 274.288261 
C 346.973573 274.288261 344.560343 275.287854 342.781307 277.06689 
C 341.00227 278.845927 340.002678 281.259157 340.002678 283.775094 
C 340.002678 286.291032 341.00227 288.704262 342.781307 290.483298 
C 344.560343 292.262335 346.973573 293.261927 349.48951 293.261927 
z
" clip-path="url(#p30ddd5d490)" style="fill: #800080; fill-opacity: 0.7; stroke: #800080; stroke-opacity: 0.7"/>
    <path d="M 349.48951 282.81285 
C 350.747479 282.81285 351.954094 282.313054 352.843612 281.423536 
C 353.733131 280.534018 354.232927 279.327403 354.232927 278.069434 
C 354.232927 276.811465 353.733131 275.60485 352.843612 274.715332 
C 351.954094 273.825814 350.747479 273.326017 349.48951 273.326017 
C 348.231542 273.326017 347.024927 273.825814 346.135409 274.715332 
C 345.24589 275.60485 344.746094 276.811465 344.746094 278.069434 
C 344.746094 279.327403 345.24589 280.534018 346.135409 281.423536 
C 347.024927 282.313054 348.231542 282.81285 349.48951 282.81285 
z
" clip-path="url(#p30ddd5d490)" style="fill: #800080; fill-opacity: 0.7; stroke: #800080; stroke-opacity: 0.7"/>
    <path d="M 388.51049 281.850607 
C 391.026427 281.850607 393.439657 280.851014 395.218693 279.071978 
C 396.99773 277.292941 397.997322 274.879711 397.997322 272.363774 
C 397.997322 269.847836 396.99773 267.434606 395.218693 265.65557 
C 393.439657 263.876533 391.026427 262.876941 388.51049 262.876941 
C 385.994552 262.876941 383.581322 263.876533 381.802286 265.65557 
C 380.023249 267.434606 379.023657 269.847836 379.023657 272.363774 
C 379.023657 274.879711 380.023249 277.292941 381.802286 279.071978 
C 383.581322 280.851014 385.994552 281.850607 388.51049 281.850607 
z
" clip-path="url(#p30ddd5d490)" style="fill: #ff0000; fill-opacity: 0.7; stroke: #ff0000; stroke-opacity: 0.7"/>
    <path d="M 622.636364 271.40153 
C 623.894332 271.40153 625.100947 270.901733 625.990466 270.012215 
C 626.879984 269.122697 627.37978 267.916082 627.37978 266.658113 
C 627.37978 265.400144 626.879984 264.193529 625.990466 263.304011 
C 625.100947 262.414493 623.894332 261.914697 622.636364 261.914697 
C 621.378395 261.914697 620.17178 262.414493 619.282262 263.304011 
C 618.392743 264.193529 617.892947 265.400144 617.892947 266.658113 
C 617.892947 267.916082 618.392743 269.122697 619.282262 270.012215 
C 620.17178 270.901733 621.378395 271.40153 622.636364 271.40153 
z
" clip-path="url(#p30ddd5d490)" style="fill: #ff0000; fill-opacity: 0.7; stroke: #ff0000; stroke-opacity: 0.7"/>
    <path d="M 544.594406 267.660657 
C 546.373442 267.660657 548.079853 266.953838 549.337822 265.695869 
C 550.595791 264.437901 551.30261 262.731489 551.30261 260.952453 
C 551.30261 259.173416 550.595791 257.467005 549.337822 256.209036 
C 548.079853 254.951068 546.373442 254.244249 544.594406 254.244249 
C 542.815369 254.244249 541.108958 254.951068 539.850989 256.209036 
C 538.59302 257.467005 537.886202 259.173416 537.886202 260.952453 
C 537.886202 262.731489 538.59302 264.437901 539.850989 265.695869 
C 541.108958 266.953838 542.815369 267.660657 544.594406 267.660657 
z
" clip-path="url(#p30ddd5d490)" style="fill: #800080; fill-opacity: 0.7; stroke: #800080; stroke-opacity: 0.7"/>
    <path d="M 466.552448 259.990209 
C 467.810416 259.990209 469.017031 259.490413 469.90655 258.600894 
C 470.796068 257.711376 471.295864 256.504761 471.295864 255.246792 
C 471.295864 253.988824 470.796068 252.782209 469.90655 251.89269 
C 469.017031 251.003172 467.810416 250.503376 466.552448 250.503376 
C 465.294479 250.503376 464.087864 251.003172 463.198346 251.89269 
C 462.308827 252.782209 461.809031 253.988824 461.809031 255.246792 
C 461.809031 256.504761 462.308827 257.711376 463.198346 258.600894 
C 464.087864 259.490413 465.294479 259.990209 466.552448 259.990209 
z
" clip-path="url(#p30ddd5d490)" style="fill: #ff0000; fill-opacity: 0.7; stroke: #ff0000; stroke-opacity: 0.7"/>
    <path d="M 622.636364 254.284549 
C 623.894332 254.284549 625.100947 253.784752 625.990466 252.895234 
C 626.879984 252.005716 627.37978 250.799101 627.37978 249.541132 
C 627.37978 248.283163 626.879984 247.076548 625.990466 246.18703 
C 625.100947 245.297512 623.894332 244.797716 622.636364 244.797716 
C 621.378395 244.797716 620.17178 245.297512 619.282262 246.18703 
C 618.392743 247.076548 617.892947 248.283163 617.892947 249.541132 
C 617.892947 250.799101 618.392743 252.005716 619.282262 252.895234 
C 620.17178 253.784752 621.378395 254.284549 622.636364 254.284549 
z
" clip-path="url(#p30ddd5d490)" style="fill: #ff0000; fill-opacity: 0.7; stroke: #ff0000; stroke-opacity: 0.7"/>
    <path d="M 544.594406 248.578888 
C 545.852374 248.578888 547.058989 248.079092 547.948508 247.189574 
C 548.838026 246.300055 549.337822 245.09344 549.337822 243.835472 
C 549.337822 242.577503 548.838026 241.370888 547.948508 240.48137 
C 547.058989 239.591851 545.852374 239.092055 544.594406 239.092055 
C 543.336437 239.092055 542.129822 239.591851 541.240304 240.48137 
C 540.350785 241.370888 539.850989 242.577503 539.850989 243.835472 
C 539.850989 245.09344 540.350785 246.300055 541.240304 247.189574 
C 542.129822 248.079092 543.336437 248.578888 544.594406 248.578888 
z
" clip-path="url(#p30ddd5d490)" style="fill: #800080; fill-opacity: 0.7; stroke: #800080; stroke-opacity: 0.7"/>
    <path d="M 232.426573 242.873228 
C 233.684542 242.873228 234.891157 242.373432 235.780675 241.483913 
C 236.670194 240.594395 237.16999 239.38778 237.16999 238.129811 
C 237.16999 236.871843 236.670194 235.665228 235.780675 234.775709 
C 234.891157 233.886191 233.684542 233.386395 232.426573 233.386395 
C 231.168605 233.386395 229.96199 233.886191 229.072471 234.775709 
C 228.182953 235.665228 227.683157 236.871843 227.683157 238.129811 
C 227.683157 239.38778 228.182953 240.594395 229.072471 241.483913 
C 229.96199 242.373432 231.168605 242.873228 232.426573 242.873228 
z
" clip-path="url(#p30ddd5d490)" style="fill: #ff0000; fill-opacity: 0.7; stroke: #ff0000; stroke-opacity: 0.7"/>
    <path d="M 505.573427 237.167567 
C 506.831395 237.167567 508.03801 236.667771 508.927529 235.778253 
C 509.817047 234.888735 510.316843 233.68212 510.316843 232.424151 
C 510.316843 231.166182 509.817047 229.959567 508.927529 229.070049 
C 508.03801 228.180531 506.831395 227.680734 505.573427 227.680734 
C 504.315458 227.680734 503.108843 228.180531 502.219325 229.070049 
C 501.329806 229.959567 500.83001 231.166182 500.83001 232.424151 
C 500.83001 233.68212 501.329806 234.888735 502.219325 235.778253 
C 503.108843 236.667771 504.315458 237.167567 505.573427 237.167567 
z
" clip-path="url(#p30ddd5d490)" style="fill: #ff0000; fill-opacity: 0.7; stroke: #ff0000; stroke-opacity: 0.7"/>
    <path d="M 544.594406 231.461907 
C 545.852374 231.461907 547.058989 230.962111 547.948508 230.072593 
C 548.838026 229.183074 549.337822 227.976459 549.337822 226.718491 
C 549.337822 225.460522 548.838026 224.253907 547.948508 223.364389 
C 547.058989 222.47487 545.852374 221.975074 544.594406 221.975074 
C 543.336437 221.975074 542.129822 222.47487 541.240304 223.364389 
C 540.350785 224.253907 539.850989 225.460522 539.850989 226.718491 
C 539.850989 227.976459 540.350785 229.183074 541.240304 230.072593 
C 542.129822 230.962111 543.336437 231.461907 544.594406 231.461907 
z
" clip-path="url(#p30ddd5d490)" style="fill: #ff0000; fill-opacity: 0.7; stroke: #ff0000; stroke-opacity: 0.7"/>
    <path d="M 622.636364 223.751443 
C 623.362652 223.751443 624.059292 223.462885 624.572855 222.949322 
C 625.086419 222.435758 625.374976 221.739119 625.374976 221.01283 
C 625.374976 220.286542 625.086419 219.589902 624.572855 219.076339 
C 624.059292 218.562775 623.362652 218.274217 622.636364 218.274217 
C 621.910075 218.274217 621.213436 218.562775 620.699872 219.076339 
C 620.186308 219.589902 619.897751 220.286542 619.897751 221.01283 
C 619.897751 221.739119 620.186308 222.435758 620.699872 222.949322 
C 621.213436 223.462885 621.910075 223.751443 622.636364 223.751443 
z
" clip-path="url(#p30ddd5d490)" style="fill: #ff0000; fill-opacity: 0.7; stroke: #ff0000; stroke-opacity: 0.7"/>
    <path d="M 544.594406 220.050586 
C 545.852374 220.050586 547.058989 219.55079 547.948508 218.661272 
C 548.838026 217.771754 549.337822 216.565139 549.337822 215.30717 
C 549.337822 214.049201 548.838026 212.842586 547.948508 211.953068 
C 547.058989 211.06355 545.852374 210.563753 544.594406 210.563753 
C 543.336437 210.563753 542.129822 211.06355 541.240304 211.953068 
C 540.350785 212.842586 539.850989 214.049201 539.850989 215.30717 
C 539.850989 216.565139 540.350785 217.771754 541.240304 218.661272 
C 542.129822 219.55079 543.336437 220.050586 544.594406 220.050586 
z
" clip-path="url(#p30ddd5d490)" style="fill: #ff0000; fill-opacity: 0.7; stroke: #ff0000; stroke-opacity: 0.7"/>
    <path d="M 622.636364 212.340122 
C 623.362652 212.340122 624.059292 212.051565 624.572855 211.538001 
C 625.086419 211.024438 625.374976 210.327798 625.374976 209.601509 
C 625.374976 208.875221 625.086419 208.178581 624.572855 207.665018 
C 624.059292 207.151454 623.362652 206.862897 622.636364 206.862897 
C 621.910075 206.862897 621.213436 207.151454 620.699872 207.665018 
C 620.186308 208.178581 619.897751 208.875221 619.897751 209.601509 
C 619.897751 210.327798 620.186308 211.024438 620.699872 211.538001 
C 621.213436 212.051565 621.910075 212.340122 622.636364 212.340122 
z
" clip-path="url(#p30ddd5d490)" style="fill: #800080; fill-opacity: 0.7; stroke: #800080; stroke-opacity: 0.7"/>
    <path d="M 271.447552 210.604053 
C 273.226589 210.604053 274.933 209.897234 276.190969 208.639266 
C 277.448938 207.381297 278.155756 205.674886 278.155756 203.895849 
C 278.155756 202.116813 277.448938 200.410401 276.190969 199.152433 
C 274.933 197.894464 273.226589 197.187645 271.447552 197.187645 
C 269.668516 197.187645 267.962105 197.894464 266.704136 199.152433 
C 265.446167 200.410401 264.739349 202.116813 264.739349 203.895849 
C 264.739349 205.674886 265.446167 207.381297 266.704136 208.639266 
C 267.962105 209.897234 269.668516 210.604053 271.447552 210.604053 
z
" clip-path="url(#p30ddd5d490)" style="fill: #ff0000; fill-opacity: 0.7; stroke: #ff0000; stroke-opacity: 0.7"/>
    <path d="M 427.531469 202.933605 
C 428.789437 202.933605 429.996052 202.433809 430.88557 201.544291 
C 431.775089 200.654772 432.274885 199.448157 432.274885 198.190189 
C 432.274885 196.93222 431.775089 195.725605 430.88557 194.836087 
C 429.996052 193.946568 428.789437 193.446772 427.531469 193.446772 
C 426.2735 193.446772 425.066885 193.946568 424.177367 194.836087 
C 423.287848 195.725605 422.788052 196.93222 422.788052 198.190189 
C 422.788052 199.448157 423.287848 200.654772 424.177367 201.544291 
C 425.066885 202.433809 426.2735 202.933605 427.531469 202.933605 
z
" clip-path="url(#p30ddd5d490)" style="fill: #800080; fill-opacity: 0.7; stroke: #800080; stroke-opacity: 0.7"/>
    <path d="M 544.594406 197.227945 
C 545.852374 197.227945 547.058989 196.728149 547.948508 195.83863 
C 548.838026 194.949112 549.337822 193.742497 549.337822 192.484528 
C 549.337822 191.22656 548.838026 190.019945 547.948508 189.130426 
C 547.058989 188.240908 545.852374 187.741112 544.594406 187.741112 
C 543.336437 187.741112 542.129822 188.240908 541.240304 189.130426 
C 540.350785 190.019945 539.850989 191.22656 539.850989 192.484528 
C 539.850989 193.742497 540.350785 194.949112 541.240304 195.83863 
C 542.129822 196.728149 543.336437 197.227945 544.594406 197.227945 
z
" clip-path="url(#p30ddd5d490)" style="fill: #ff0000; fill-opacity: 0.7; stroke: #ff0000; stroke-opacity: 0.7"/>
    <path d="M 310.468531 191.522284 
C 311.7265 191.522284 312.933115 191.022488 313.822633 190.13297 
C 314.712152 189.243452 315.211948 188.036837 315.211948 186.778868 
C 315.211948 185.520899 314.712152 184.314284 313.822633 183.424766 
C 312.933115 182.535248 311.7265 182.035451 310.468531 182.035451 
C 309.210563 182.035451 308.003948 182.535248 307.11443 183.424766 
C 306.224911 184.314284 305.725115 185.520899 305.725115 186.778868 
C 305.725115 188.036837 306.224911 189.243452 307.11443 190.13297 
C 308.003948 191.022488 309.210563 191.522284 310.468531 191.522284 
z
" clip-path="url(#p30ddd5d490)" style="fill: #800080; fill-opacity: 0.7; stroke: #800080; stroke-opacity: 0.7"/>
    <path d="M 466.552448 183.81182 
C 467.278736 183.81182 467.975376 183.523263 468.488939 183.009699 
C 469.002503 182.496136 469.29106 181.799496 469.29106 181.073208 
C 469.29106 180.346919 469.002503 179.650279 468.488939 179.136716 
C 467.975376 178.623152 467.278736 178.334595 466.552448 178.334595 
C 465.826159 178.334595 465.129519 178.623152 464.615956 179.136716 
C 464.102392 179.650279 463.813835 180.346919 463.813835 181.073208 
C 463.813835 181.799496 464.102392 182.496136 464.615956 183.009699 
C 465.129519 183.523263 465.826159 183.81182 466.552448 183.81182 
z
" clip-path="url(#p30ddd5d490)" style="fill: #ff0000; fill-opacity: 0.7; stroke: #ff0000; stroke-opacity: 0.7"/>
    <path d="M 427.531469 180.110964 
C 428.789437 180.110964 429.996052 179.611167 430.88557 178.721649 
C 431.775089 177.832131 432.274885 176.625516 432.274885 175.367547 
C 432.274885 174.109578 431.775089 172.902963 430.88557 172.013445 
C 429.996052 171.123927 428.789437 170.624131 427.531469 170.624131 
C 426.2735 170.624131 425.066885 171.123927 424.177367 172.013445 
C 423.287848 172.902963 422.788052 174.109578 422.788052 175.367547 
C 422.788052 176.625516 423.287848 177.832131 424.177367 178.721649 
C 425.066885 179.611167 426.2735 180.110964 427.531469 180.110964 
z
" clip-path="url(#p30ddd5d490)" style="fill: #ff0000; fill-opacity: 0.7; stroke: #ff0000; stroke-opacity: 0.7"/>
    <path d="M 427.531469 172.4005 
C 428.257757 172.4005 428.954397 172.111942 429.46796 171.598378 
C 429.981524 171.084815 430.270081 170.388175 430.270081 169.661887 
C 430.270081 168.935598 429.981524 168.238959 429.46796 167.725395 
C 428.954397 167.211832 428.257757 166.923274 427.531469 166.923274 
C 426.80518 166.923274 426.10854 167.211832 425.594977 167.725395 
C 425.081413 168.238959 424.792856 168.935598 424.792856 169.661887 
C 424.792856 170.388175 425.081413 171.084815 425.594977 171.598378 
C 426.10854 172.111942 426.80518 172.4005 427.531469 172.4005 
z
" clip-path="url(#p30ddd5d490)" style="fill: #ff0000; fill-opacity: 0.7; stroke: #ff0000; stroke-opacity: 0.7"/>
    <path d="M 310.468531 164.95877 
C 312.247568 164.95877 313.953979 164.251951 315.211948 162.993983 
C 316.469917 161.736014 317.176735 160.029603 317.176735 158.250566 
C 317.176735 156.47153 316.469917 154.765118 315.211948 153.50715 
C 313.953979 152.249181 312.247568 151.542362 310.468531 151.542362 
C 308.689495 151.542362 306.983084 152.249181 305.725115 153.50715 
C 304.467146 154.765118 303.760328 156.47153 303.760328 158.250566 
C 303.760328 160.029603 304.467146 161.736014 305.725115 162.993983 
C 306.983084 164.251951 308.689495 164.95877 310.468531 164.95877 
z
" clip-path="url(#p30ddd5d490)" style="fill: #800080; fill-opacity: 0.7; stroke: #800080; stroke-opacity: 0.7"/>
    <path d="M 505.573427 155.283518 
C 506.299715 155.283518 506.996355 154.994961 507.509918 154.481397 
C 508.023482 153.967834 508.312039 153.271194 508.312039 152.544906 
C 508.312039 151.818617 508.023482 151.121978 507.509918 150.608414 
C 506.996355 150.09485 506.299715 149.806293 505.573427 149.806293 
C 504.847138 149.806293 504.150498 150.09485 503.636935 150.608414 
C 503.123371 151.121978 502.834814 151.818617 502.834814 152.544906 
C 502.834814 153.271194 503.123371 153.967834 503.636935 154.481397 
C 504.150498 154.994961 504.847138 155.283518 505.573427 155.283518 
z
" clip-path="url(#p30ddd5d490)" style="fill: #ff0000; fill-opacity: 0.7; stroke: #ff0000; stroke-opacity: 0.7"/>
    <path d="M 193.405594 149.577858 
C 194.131883 149.577858 194.828522 149.289301 195.342086 148.775737 
C 195.85565 148.262173 196.144207 147.565534 196.144207 146.839245 
C 196.144207 146.112957 195.85565 145.416317 195.342086 144.902754 
C 194.828522 144.38919 194.131883 144.100632 193.405594 144.100632 
C 192.679306 144.100632 191.982666 144.38919 191.469103 144.902754 
C 190.955539 145.416317 190.666982 146.112957 190.666982 146.839245 
C 190.666982 147.565534 190.955539 148.262173 191.469103 148.775737 
C 191.982666 149.289301 192.679306 149.577858 193.405594 149.577858 
z
" clip-path="url(#p30ddd5d490)" style="fill: #ff0000; fill-opacity: 0.7; stroke: #ff0000; stroke-opacity: 0.7"/>
    <path d="M 466.552448 143.872198 
C 467.278736 143.872198 467.975376 143.58364 468.488939 143.070077 
C 469.002503 142.556513 469.29106 141.859874 469.29106 141.133585 
C 469.29106 140.407296 469.002503 139.710657 468.488939 139.197093 
C 467.975376 138.68353 467.278736 138.394972 466.552448 138.394972 
C 465.826159 138.394972 465.129519 138.68353 464.615956 139.197093 
C 464.102392 139.710657 463.813835 140.407296 463.813835 141.133585 
C 463.813835 141.859874 464.102392 142.556513 464.615956 143.070077 
C 465.129519 143.58364 465.826159 143.872198 466.552448 143.872198 
z
" clip-path="url(#p30ddd5d490)" style="fill: #ff0000; fill-opacity: 0.7; stroke: #ff0000; stroke-opacity: 0.7"/>
    <path d="M 583.615385 138.166537 
C 584.341673 138.166537 585.038313 137.87798 585.551876 137.364416 
C 586.06544 136.850853 586.353997 136.154213 586.353997 135.427925 
C 586.353997 134.701636 586.06544 134.004996 585.551876 133.491433 
C 585.038313 132.977869 584.341673 132.689312 583.615385 132.689312 
C 582.889096 132.689312 582.192457 132.977869 581.678893 133.491433 
C 581.165329 134.004996 580.876772 134.701636 580.876772 135.427925 
C 580.876772 136.154213 581.165329 136.850853 581.678893 137.364416 
C 582.192457 137.87798 582.889096 138.166537 583.615385 138.166537 
z
" clip-path="url(#p30ddd5d490)" style="fill: #ff0000; fill-opacity: 0.7; stroke: #ff0000; stroke-opacity: 0.7"/>
    <path d="M 388.51049 126.755217 
C 389.236778 126.755217 389.933418 126.466659 390.446981 125.953095 
C 390.960545 125.439532 391.249102 124.742892 391.249102 124.016604 
C 391.249102 123.290315 390.960545 122.593676 390.446981 122.080112 
C 389.933418 121.566549 389.236778 121.277991 388.51049 121.277991 
C 387.784201 121.277991 387.087561 121.566549 386.573998 122.080112 
C 386.060434 122.593676 385.771877 123.290315 385.771877 124.016604 
C 385.771877 124.742892 386.060434 125.439532 386.573998 125.953095 
C 387.087561 126.466659 387.784201 126.755217 388.51049 126.755217 
z
" clip-path="url(#p30ddd5d490)" style="fill: #800080; fill-opacity: 0.7; stroke: #800080; stroke-opacity: 0.7"/>
    <path d="M 622.636364 123.05436 
C 623.894332 123.05436 625.100947 122.554564 625.990466 121.665045 
C 626.879984 120.775527 627.37978 119.568912 627.37978 118.310943 
C 627.37978 117.052975 626.879984 115.84636 625.990466 114.956841 
C 625.100947 114.067323 623.894332 113.567527 622.636364 113.567527 
C 621.378395 113.567527 620.17178 114.067323 619.282262 114.956841 
C 618.392743 115.84636 617.892947 117.052975 617.892947 118.310943 
C 617.892947 119.568912 618.392743 120.775527 619.282262 121.665045 
C 620.17178 122.554564 621.378395 123.05436 622.636364 123.05436 
z
" clip-path="url(#p30ddd5d490)" style="fill: #ff0000; fill-opacity: 0.7; stroke: #ff0000; stroke-opacity: 0.7"/>
    <path d="M 505.573427 117.3487 
C 506.831395 117.3487 508.03801 116.848903 508.927529 115.959385 
C 509.817047 115.069867 510.316843 113.863252 510.316843 112.605283 
C 510.316843 111.347314 509.817047 110.140699 508.927529 109.251181 
C 508.03801 108.361663 506.831395 107.861867 505.573427 107.861867 
C 504.315458 107.861867 503.108843 108.361663 502.219325 109.251181 
C 501.329806 110.140699 500.83001 111.347314 500.83001 112.605283 
C 500.83001 113.863252 501.329806 115.069867 502.219325 115.959385 
C 503.108843 116.848903 504.315458 117.3487 505.573427 117.3487 
z
" clip-path="url(#p30ddd5d490)" style="fill: #ff0000; fill-opacity: 0.7; stroke: #ff0000; stroke-opacity: 0.7"/>
    <path d="M 505.573427 111.643039 
C 506.831395 111.643039 508.03801 111.143243 508.927529 110.253725 
C 509.817047 109.364206 510.316843 108.157591 510.316843 106.899623 
C 510.316843 105.641654 509.817047 104.435039 508.927529 103.545521 
C 508.03801 102.656002 506.831395 102.156206 505.573427 102.156206 
C 504.315458 102.156206 503.108843 102.656002 502.219325 103.545521 
C 501.329806 104.435039 500.83001 105.641654 500.83001 106.899623 
C 500.83001 108.157591 501.329806 109.364206 502.219325 110.253725 
C 503.108843 111.143243 504.315458 111.643039 505.573427 111.643039 
z
" clip-path="url(#p30ddd5d490)" style="fill: #ff0000; fill-opacity: 0.7; stroke: #ff0000; stroke-opacity: 0.7"/>
    <path d="M 505.573427 105.937379 
C 506.831395 105.937379 508.03801 105.437582 508.927529 104.548064 
C 509.817047 103.658546 510.316843 102.451931 510.316843 101.193962 
C 510.316843 99.935994 509.817047 98.729379 508.927529 97.83986 
C 508.03801 96.950342 506.831395 96.450546 505.573427 96.450546 
C 504.315458 96.450546 503.108843 96.950342 502.219325 97.83986 
C 501.329806 98.729379 500.83001 99.935994 500.83001 101.193962 
C 500.83001 102.451931 501.329806 103.658546 502.219325 104.548064 
C 503.108843 105.437582 504.315458 105.937379 505.573427 105.937379 
z
" clip-path="url(#p30ddd5d490)" style="fill: #800080; fill-opacity: 0.7; stroke: #800080; stroke-opacity: 0.7"/>
    <path d="M 544.594406 100.231718 
C 545.852374 100.231718 547.058989 99.731922 547.948508 98.842404 
C 548.838026 97.952886 549.337822 96.746271 549.337822 95.488302 
C 549.337822 94.230333 548.838026 93.023718 547.948508 92.1342 
C 547.058989 91.244682 545.852374 90.744885 544.594406 90.744885 
C 543.336437 90.744885 542.129822 91.244682 541.240304 92.1342 
C 540.350785 93.023718 539.850989 94.230333 539.850989 95.488302 
C 539.850989 96.746271 540.350785 97.952886 541.240304 98.842404 
C 542.129822 99.731922 543.336437 100.231718 544.594406 100.231718 
z
" clip-path="url(#p30ddd5d490)" style="fill: #ff0000; fill-opacity: 0.7; stroke: #ff0000; stroke-opacity: 0.7"/>
    <path d="M 388.51049 96.490845 
C 390.289526 96.490845 391.995937 95.784027 393.253906 94.526058 
C 394.511875 93.268089 395.218693 91.561678 395.218693 89.782642 
C 395.218693 88.003605 394.511875 86.297194 393.253906 85.039225 
C 391.995937 83.781256 390.289526 83.074438 388.51049 83.074438 
C 386.731453 83.074438 385.025042 83.781256 383.767073 85.039225 
C 382.509104 86.297194 381.802286 88.003605 381.802286 89.782642 
C 381.802286 91.561678 382.509104 93.268089 383.767073 94.526058 
C 385.025042 95.784027 386.731453 96.490845 388.51049 96.490845 
z
" clip-path="url(#p30ddd5d490)" style="fill: #ff0000; fill-opacity: 0.7; stroke: #ff0000; stroke-opacity: 0.7"/>
    <path d="M 466.552448 88.820398 
C 467.810416 88.820398 469.017031 88.320601 469.90655 87.431083 
C 470.796068 86.541565 471.295864 85.33495 471.295864 84.076981 
C 471.295864 82.819012 470.796068 81.612397 469.90655 80.722879 
C 469.017031 79.833361 467.810416 79.333565 466.552448 79.333565 
C 465.294479 79.333565 464.087864 79.833361 463.198346 80.722879 
C 462.308827 81.612397 461.809031 82.819012 461.809031 84.076981 
C 461.809031 85.33495 462.308827 86.541565 463.198346 87.431083 
C 464.087864 88.320601 465.294479 88.820398 466.552448 88.820398 
z
" clip-path="url(#p30ddd5d490)" style="fill: #ff0000; fill-opacity: 0.7; stroke: #ff0000; stroke-opacity: 0.7"/>
    <path d="M 388.51049 81.109934 
C 389.236778 81.109934 389.933418 80.821376 390.446981 80.307812 
C 390.960545 79.794249 391.249102 79.097609 391.249102 78.371321 
C 391.249102 77.645032 390.960545 76.948393 390.446981 76.434829 
C 389.933418 75.921265 389.236778 75.632708 388.51049 75.632708 
C 387.784201 75.632708 387.087561 75.921265 386.573998 76.434829 
C 386.060434 76.948393 385.771877 77.645032 385.771877 78.371321 
C 385.771877 79.097609 386.060434 79.794249 386.573998 80.307812 
C 387.087561 80.821376 387.784201 81.109934 388.51049 81.109934 
z
" clip-path="url(#p30ddd5d490)" style="fill: #800080; fill-opacity: 0.7; stroke: #800080; stroke-opacity: 0.7"/>
    <path d="M 310.468531 75.404273 
C 311.19482 75.404273 311.89146 75.115716 312.405023 74.602152 
C 312.918587 74.088588 313.207144 73.391949 313.207144 72.66566 
C 313.207144 71.939372 312.918587 71.242732 312.405023 70.729169 
C 311.89146 70.215605 311.19482 69.927048 310.468531 69.927048 
C 309.742243 69.927048 309.045603 70.215605 308.53204 70.729169 
C 308.018476 71.242732 307.729919 71.939372 307.729919 72.66566 
C 307.729919 73.391949 308.018476 74.088588 308.53204 74.602152 
C 309.045603 75.115716 309.742243 75.404273 310.468531 75.404273 
z
" clip-path="url(#p30ddd5d490)" style="fill: #800080; fill-opacity: 0.7; stroke: #800080; stroke-opacity: 0.7"/>
    <path d="M 310.468531 71.703416 
C 311.7265 71.703416 312.933115 71.20362 313.822633 70.314102 
C 314.712152 69.424584 315.211948 68.217969 315.211948 66.96 
C 315.211948 65.702031 314.712152 64.495416 313.822633 63.605898 
C 312.933115 62.71638 311.7265 62.216584 310.468531 62.216584 
C 309.210563 62.216584 308.003948 62.71638 307.11443 63.605898 
C 306.224911 64.495416 305.725115 65.702031 305.725115 66.96 
C 305.725115 68.217969 306.224911 69.424584 307.11443 70.314102 
C 308.003948 71.20362 309.210563 71.703416 310.468531 71.703416 
z
" clip-path="url(#p30ddd5d490)" style="fill: #800080; fill-opacity: 0.7; stroke: #800080; stroke-opacity: 0.7"/>
   </g>
   <g id="matplotlib.axis_1">
    <g id="xtick_1">
     <g id="line2d_1">
      <defs>
       <path id="m2ab13f0b20" d="M 0 0 
L 0 3.5 
" style="stroke: #000000; stroke-width: 0.8"/>
      </defs>
      <g>
       <use xlink:href="#m2ab13f0b20" x="154.384615" y="384.48" style="stroke: #000000; stroke-width: 0.8"/>
      </g>
     </g>
     <g id="text_1">
      <!-- 2010 -->
      <g transform="translate(141.659615 399.078438)scale(0.1 -0.1)">
       <defs>
        <path id="DejaVuSans-32" d="M 1228 531 
L 3431 531 
L 3431 0 
L 469 0 
L 469 531 
Q 828 903 1448 1529 
Q 2069 2156 2228 2338 
Q 2531 2678 2651 2914 
Q 2772 3150 2772 3378 
Q 2772 3750 2511 3984 
Q 2250 4219 1831 4219 
Q 1534 4219 1204 4116 
Q 875 4013 500 3803 
L 500 4441 
Q 881 4594 1212 4672 
Q 1544 4750 1819 4750 
Q 2544 4750 2975 4387 
Q 3406 4025 3406 3419 
Q 3406 3131 3298 2873 
Q 3191 2616 2906 2266 
Q 2828 2175 2409 1742 
Q 1991 1309 1228 531 
z
" transform="scale(0.015625)"/>
        <path id="DejaVuSans-30" d="M 2034 4250 
Q 1547 4250 1301 3770 
Q 1056 3291 1056 2328 
Q 1056 1369 1301 889 
Q 1547 409 2034 409 
Q 2525 409 2770 889 
Q 3016 1369 3016 2328 
Q 3016 3291 2770 3770 
Q 2525 4250 2034 4250 
z
M 2034 4750 
Q 2819 4750 3233 4129 
Q 3647 3509 3647 2328 
Q 3647 1150 3233 529 
Q 2819 -91 2034 -91 
Q 1250 -91 836 529 
Q 422 1150 422 2328 
Q 422 3509 836 4129 
Q 1250 4750 2034 4750 
z
" transform="scale(0.015625)"/>
        <path id="DejaVuSans-31" d="M 794 531 
L 1825 531 
L 1825 4091 
L 703 3866 
L 703 4441 
L 1819 4666 
L 2450 4666 
L 2450 531 
L 3481 531 
L 3481 0 
L 794 0 
L 794 531 
z
" transform="scale(0.015625)"/>
       </defs>
       <use xlink:href="#DejaVuSans-32"/>
       <use xlink:href="#DejaVuSans-30" x="63.623047"/>
       <use xlink:href="#DejaVuSans-31" x="127.246094"/>
       <use xlink:href="#DejaVuSans-30" x="190.869141"/>
      </g>
     </g>
    </g>
    <g id="xtick_2">
     <g id="line2d_2">
      <g>
       <use xlink:href="#m2ab13f0b20" x="232.426573" y="384.48" style="stroke: #000000; stroke-width: 0.8"/>
      </g>
     </g>
     <g id="text_2">
      <!-- 2012 -->
      <g transform="translate(219.701573 399.078438)scale(0.1 -0.1)">
       <use xlink:href="#DejaVuSans-32"/>
       <use xlink:href="#DejaVuSans-30" x="63.623047"/>
       <use xlink:href="#DejaVuSans-31" x="127.246094"/>
       <use xlink:href="#DejaVuSans-32" x="190.869141"/>
      </g>
     </g>
    </g>
    <g id="xtick_3">
     <g id="line2d_3">
      <g>
       <use xlink:href="#m2ab13f0b20" x="310.468531" y="384.48" style="stroke: #000000; stroke-width: 0.8"/>
      </g>
     </g>
     <g id="text_3">
      <!-- 2014 -->
      <g transform="translate(297.743531 399.078438)scale(0.1 -0.1)">
       <defs>
        <path id="DejaVuSans-34" d="M 2419 4116 
L 825 1625 
L 2419 1625 
L 2419 4116 
z
M 2253 4666 
L 3047 4666 
L 3047 1625 
L 3713 1625 
L 3713 1100 
L 3047 1100 
L 3047 0 
L 2419 0 
L 2419 1100 
L 313 1100 
L 313 1709 
L 2253 4666 
z
" transform="scale(0.015625)"/>
       </defs>
       <use xlink:href="#DejaVuSans-32"/>
       <use xlink:href="#DejaVuSans-30" x="63.623047"/>
       <use xlink:href="#DejaVuSans-31" x="127.246094"/>
       <use xlink:href="#DejaVuSans-34" x="190.869141"/>
      </g>
     </g>
    </g>
    <g id="xtick_4">
     <g id="line2d_4">
      <g>
       <use xlink:href="#m2ab13f0b20" x="388.51049" y="384.48" style="stroke: #000000; stroke-width: 0.8"/>
      </g>
     </g>
     <g id="text_4">
      <!-- 2016 -->
      <g transform="translate(375.78549 399.078438)scale(0.1 -0.1)">
       <defs>
        <path id="DejaVuSans-36" d="M 2113 2584 
Q 1688 2584 1439 2293 
Q 1191 2003 1191 1497 
Q 1191 994 1439 701 
Q 1688 409 2113 409 
Q 2538 409 2786 701 
Q 3034 994 3034 1497 
Q 3034 2003 2786 2293 
Q 2538 2584 2113 2584 
z
M 3366 4563 
L 3366 3988 
Q 3128 4100 2886 4159 
Q 2644 4219 2406 4219 
Q 1781 4219 1451 3797 
Q 1122 3375 1075 2522 
Q 1259 2794 1537 2939 
Q 1816 3084 2150 3084 
Q 2853 3084 3261 2657 
Q 3669 2231 3669 1497 
Q 3669 778 3244 343 
Q 2819 -91 2113 -91 
Q 1303 -91 875 529 
Q 447 1150 447 2328 
Q 447 3434 972 4092 
Q 1497 4750 2381 4750 
Q 2619 4750 2861 4703 
Q 3103 4656 3366 4563 
z
" transform="scale(0.015625)"/>
       </defs>
       <use xlink:href="#DejaVuSans-32"/>
       <use xlink:href="#DejaVuSans-30" x="63.623047"/>
       <use xlink:href="#DejaVuSans-31" x="127.246094"/>
       <use xlink:href="#DejaVuSans-36" x="190.869141"/>
      </g>
     </g>
    </g>
    <g id="xtick_5">
     <g id="line2d_5">
      <g>
       <use xlink:href="#m2ab13f0b20" x="466.552448" y="384.48" style="stroke: #000000; stroke-width: 0.8"/>
      </g>
     </g>
     <g id="text_5">
      <!-- 2018 -->
      <g transform="translate(453.827448 399.078438)scale(0.1 -0.1)">
       <defs>
        <path id="DejaVuSans-38" d="M 2034 2216 
Q 1584 2216 1326 1975 
Q 1069 1734 1069 1313 
Q 1069 891 1326 650 
Q 1584 409 2034 409 
Q 2484 409 2743 651 
Q 3003 894 3003 1313 
Q 3003 1734 2745 1975 
Q 2488 2216 2034 2216 
z
M 1403 2484 
Q 997 2584 770 2862 
Q 544 3141 544 3541 
Q 544 4100 942 4425 
Q 1341 4750 2034 4750 
Q 2731 4750 3128 4425 
Q 3525 4100 3525 3541 
Q 3525 3141 3298 2862 
Q 3072 2584 2669 2484 
Q 3125 2378 3379 2068 
Q 3634 1759 3634 1313 
Q 3634 634 3220 271 
Q 2806 -91 2034 -91 
Q 1263 -91 848 271 
Q 434 634 434 1313 
Q 434 1759 690 2068 
Q 947 2378 1403 2484 
z
M 1172 3481 
Q 1172 3119 1398 2916 
Q 1625 2713 2034 2713 
Q 2441 2713 2670 2916 
Q 2900 3119 2900 3481 
Q 2900 3844 2670 4047 
Q 2441 4250 2034 4250 
Q 1625 4250 1398 4047 
Q 1172 3844 1172 3481 
z
" transform="scale(0.015625)"/>
       </defs>
       <use xlink:href="#DejaVuSans-32"/>
       <use xlink:href="#DejaVuSans-30" x="63.623047"/>
       <use xlink:href="#DejaVuSans-31" x="127.246094"/>
       <use xlink:href="#DejaVuSans-38" x="190.869141"/>
      </g>
     </g>
    </g>
    <g id="xtick_6">
     <g id="line2d_6">
      <g>
       <use xlink:href="#m2ab13f0b20" x="544.594406" y="384.48" style="stroke: #000000; stroke-width: 0.8"/>
      </g>
     </g>
     <g id="text_6">
      <!-- 2020 -->
      <g transform="translate(531.869406 399.078438)scale(0.1 -0.1)">
       <use xlink:href="#DejaVuSans-32"/>
       <use xlink:href="#DejaVuSans-30" x="63.623047"/>
       <use xlink:href="#DejaVuSans-32" x="127.246094"/>
       <use xlink:href="#DejaVuSans-30" x="190.869141"/>
      </g>
     </g>
    </g>
    <g id="xtick_7">
     <g id="line2d_7">
      <g>
       <use xlink:href="#m2ab13f0b20" x="622.636364" y="384.48" style="stroke: #000000; stroke-width: 0.8"/>
      </g>
     </g>
     <g id="text_7">
      <!-- 2022 -->
      <g transform="translate(609.911364 399.078438)scale(0.1 -0.1)">
       <use xlink:href="#DejaVuSans-32"/>
       <use xlink:href="#DejaVuSans-30" x="63.623047"/>
       <use xlink:href="#DejaVuSans-32" x="127.246094"/>
       <use xlink:href="#DejaVuSans-32" x="190.869141"/>
      </g>
     </g>
    </g>
    <g id="text_8">
     <!-- Year of involvement in the IIIF community -->
     <g transform="translate(264.721875 412.756563)scale(0.1 -0.1)">
      <defs>
       <path id="DejaVuSans-59" d="M -13 4666 
L 666 4666 
L 1959 2747 
L 3244 4666 
L 3922 4666 
L 2272 2222 
L 2272 0 
L 1638 0 
L 1638 2222 
L -13 4666 
z
" transform="scale(0.015625)"/>
       <path id="DejaVuSans-65" d="M 3597 1894 
L 3597 1613 
L 953 1613 
Q 991 1019 1311 708 
Q 1631 397 2203 397 
Q 2534 397 2845 478 
Q 3156 559 3463 722 
L 3463 178 
Q 3153 47 2828 -22 
Q 2503 -91 2169 -91 
Q 1331 -91 842 396 
Q 353 884 353 1716 
Q 353 2575 817 3079 
Q 1281 3584 2069 3584 
Q 2775 3584 3186 3129 
Q 3597 2675 3597 1894 
z
M 3022 2063 
Q 3016 2534 2758 2815 
Q 2500 3097 2075 3097 
Q 1594 3097 1305 2825 
Q 1016 2553 972 2059 
L 3022 2063 
z
" transform="scale(0.015625)"/>
       <path id="DejaVuSans-61" d="M 2194 1759 
Q 1497 1759 1228 1600 
Q 959 1441 959 1056 
Q 959 750 1161 570 
Q 1363 391 1709 391 
Q 2188 391 2477 730 
Q 2766 1069 2766 1631 
L 2766 1759 
L 2194 1759 
z
M 3341 1997 
L 3341 0 
L 2766 0 
L 2766 531 
Q 2569 213 2275 61 
Q 1981 -91 1556 -91 
Q 1019 -91 701 211 
Q 384 513 384 1019 
Q 384 1609 779 1909 
Q 1175 2209 1959 2209 
L 2766 2209 
L 2766 2266 
Q 2766 2663 2505 2880 
Q 2244 3097 1772 3097 
Q 1472 3097 1187 3025 
Q 903 2953 641 2809 
L 641 3341 
Q 956 3463 1253 3523 
Q 1550 3584 1831 3584 
Q 2591 3584 2966 3190 
Q 3341 2797 3341 1997 
z
" transform="scale(0.015625)"/>
       <path id="DejaVuSans-72" d="M 2631 2963 
Q 2534 3019 2420 3045 
Q 2306 3072 2169 3072 
Q 1681 3072 1420 2755 
Q 1159 2438 1159 1844 
L 1159 0 
L 581 0 
L 581 3500 
L 1159 3500 
L 1159 2956 
Q 1341 3275 1631 3429 
Q 1922 3584 2338 3584 
Q 2397 3584 2469 3576 
Q 2541 3569 2628 3553 
L 2631 2963 
z
" transform="scale(0.015625)"/>
       <path id="DejaVuSans-20" transform="scale(0.015625)"/>
       <path id="DejaVuSans-6f" d="M 1959 3097 
Q 1497 3097 1228 2736 
Q 959 2375 959 1747 
Q 959 1119 1226 758 
Q 1494 397 1959 397 
Q 2419 397 2687 759 
Q 2956 1122 2956 1747 
Q 2956 2369 2687 2733 
Q 2419 3097 1959 3097 
z
M 1959 3584 
Q 2709 3584 3137 3096 
Q 3566 2609 3566 1747 
Q 3566 888 3137 398 
Q 2709 -91 1959 -91 
Q 1206 -91 779 398 
Q 353 888 353 1747 
Q 353 2609 779 3096 
Q 1206 3584 1959 3584 
z
" transform="scale(0.015625)"/>
       <path id="DejaVuSans-66" d="M 2375 4863 
L 2375 4384 
L 1825 4384 
Q 1516 4384 1395 4259 
Q 1275 4134 1275 3809 
L 1275 3500 
L 2222 3500 
L 2222 3053 
L 1275 3053 
L 1275 0 
L 697 0 
L 697 3053 
L 147 3053 
L 147 3500 
L 697 3500 
L 697 3744 
Q 697 4328 969 4595 
Q 1241 4863 1831 4863 
L 2375 4863 
z
" transform="scale(0.015625)"/>
       <path id="DejaVuSans-69" d="M 603 3500 
L 1178 3500 
L 1178 0 
L 603 0 
L 603 3500 
z
M 603 4863 
L 1178 4863 
L 1178 4134 
L 603 4134 
L 603 4863 
z
" transform="scale(0.015625)"/>
       <path id="DejaVuSans-6e" d="M 3513 2113 
L 3513 0 
L 2938 0 
L 2938 2094 
Q 2938 2591 2744 2837 
Q 2550 3084 2163 3084 
Q 1697 3084 1428 2787 
Q 1159 2491 1159 1978 
L 1159 0 
L 581 0 
L 581 3500 
L 1159 3500 
L 1159 2956 
Q 1366 3272 1645 3428 
Q 1925 3584 2291 3584 
Q 2894 3584 3203 3211 
Q 3513 2838 3513 2113 
z
" transform="scale(0.015625)"/>
       <path id="DejaVuSans-76" d="M 191 3500 
L 800 3500 
L 1894 563 
L 2988 3500 
L 3597 3500 
L 2284 0 
L 1503 0 
L 191 3500 
z
" transform="scale(0.015625)"/>
       <path id="DejaVuSans-6c" d="M 603 4863 
L 1178 4863 
L 1178 0 
L 603 0 
L 603 4863 
z
" transform="scale(0.015625)"/>
       <path id="DejaVuSans-6d" d="M 3328 2828 
Q 3544 3216 3844 3400 
Q 4144 3584 4550 3584 
Q 5097 3584 5394 3201 
Q 5691 2819 5691 2113 
L 5691 0 
L 5113 0 
L 5113 2094 
Q 5113 2597 4934 2840 
Q 4756 3084 4391 3084 
Q 3944 3084 3684 2787 
Q 3425 2491 3425 1978 
L 3425 0 
L 2847 0 
L 2847 2094 
Q 2847 2600 2669 2842 
Q 2491 3084 2119 3084 
Q 1678 3084 1418 2786 
Q 1159 2488 1159 1978 
L 1159 0 
L 581 0 
L 581 3500 
L 1159 3500 
L 1159 2956 
Q 1356 3278 1631 3431 
Q 1906 3584 2284 3584 
Q 2666 3584 2933 3390 
Q 3200 3197 3328 2828 
z
" transform="scale(0.015625)"/>
       <path id="DejaVuSans-74" d="M 1172 4494 
L 1172 3500 
L 2356 3500 
L 2356 3053 
L 1172 3053 
L 1172 1153 
Q 1172 725 1289 603 
Q 1406 481 1766 481 
L 2356 481 
L 2356 0 
L 1766 0 
Q 1100 0 847 248 
Q 594 497 594 1153 
L 594 3053 
L 172 3053 
L 172 3500 
L 594 3500 
L 594 4494 
L 1172 4494 
z
" transform="scale(0.015625)"/>
       <path id="DejaVuSans-68" d="M 3513 2113 
L 3513 0 
L 2938 0 
L 2938 2094 
Q 2938 2591 2744 2837 
Q 2550 3084 2163 3084 
Q 1697 3084 1428 2787 
Q 1159 2491 1159 1978 
L 1159 0 
L 581 0 
L 581 4863 
L 1159 4863 
L 1159 2956 
Q 1366 3272 1645 3428 
Q 1925 3584 2291 3584 
Q 2894 3584 3203 3211 
Q 3513 2838 3513 2113 
z
" transform="scale(0.015625)"/>
       <path id="DejaVuSans-49" d="M 628 4666 
L 1259 4666 
L 1259 0 
L 628 0 
L 628 4666 
z
" transform="scale(0.015625)"/>
       <path id="DejaVuSans-46" d="M 628 4666 
L 3309 4666 
L 3309 4134 
L 1259 4134 
L 1259 2759 
L 3109 2759 
L 3109 2228 
L 1259 2228 
L 1259 0 
L 628 0 
L 628 4666 
z
" transform="scale(0.015625)"/>
       <path id="DejaVuSans-63" d="M 3122 3366 
L 3122 2828 
Q 2878 2963 2633 3030 
Q 2388 3097 2138 3097 
Q 1578 3097 1268 2742 
Q 959 2388 959 1747 
Q 959 1106 1268 751 
Q 1578 397 2138 397 
Q 2388 397 2633 464 
Q 2878 531 3122 666 
L 3122 134 
Q 2881 22 2623 -34 
Q 2366 -91 2075 -91 
Q 1284 -91 818 406 
Q 353 903 353 1747 
Q 353 2603 823 3093 
Q 1294 3584 2113 3584 
Q 2378 3584 2631 3529 
Q 2884 3475 3122 3366 
z
" transform="scale(0.015625)"/>
       <path id="DejaVuSans-75" d="M 544 1381 
L 544 3500 
L 1119 3500 
L 1119 1403 
Q 1119 906 1312 657 
Q 1506 409 1894 409 
Q 2359 409 2629 706 
Q 2900 1003 2900 1516 
L 2900 3500 
L 3475 3500 
L 3475 0 
L 2900 0 
L 2900 538 
Q 2691 219 2414 64 
Q 2138 -91 1772 -91 
Q 1169 -91 856 284 
Q 544 659 544 1381 
z
M 1991 3584 
L 1991 3584 
z
" transform="scale(0.015625)"/>
       <path id="DejaVuSans-79" d="M 2059 -325 
Q 1816 -950 1584 -1140 
Q 1353 -1331 966 -1331 
L 506 -1331 
L 506 -850 
L 844 -850 
Q 1081 -850 1212 -737 
Q 1344 -625 1503 -206 
L 1606 56 
L 191 3500 
L 800 3500 
L 1894 763 
L 2988 3500 
L 3597 3500 
L 2059 -325 
z
" transform="scale(0.015625)"/>
      </defs>
      <use xlink:href="#DejaVuSans-59"/>
      <use xlink:href="#DejaVuSans-65" x="47.833984"/>
      <use xlink:href="#DejaVuSans-61" x="109.357422"/>
      <use xlink:href="#DejaVuSans-72" x="170.636719"/>
      <use xlink:href="#DejaVuSans-20" x="211.75"/>
      <use xlink:href="#DejaVuSans-6f" x="243.537109"/>
      <use xlink:href="#DejaVuSans-66" x="304.71875"/>
      <use xlink:href="#DejaVuSans-20" x="339.923828"/>
      <use xlink:href="#DejaVuSans-69" x="371.710938"/>
      <use xlink:href="#DejaVuSans-6e" x="399.494141"/>
      <use xlink:href="#DejaVuSans-76" x="462.873047"/>
      <use xlink:href="#DejaVuSans-6f" x="522.052734"/>
      <use xlink:href="#DejaVuSans-6c" x="583.234375"/>
      <use xlink:href="#DejaVuSans-76" x="611.017578"/>
      <use xlink:href="#DejaVuSans-65" x="670.197266"/>
      <use xlink:href="#DejaVuSans-6d" x="731.720703"/>
      <use xlink:href="#DejaVuSans-65" x="829.132812"/>
      <use xlink:href="#DejaVuSans-6e" x="890.65625"/>
      <use xlink:href="#DejaVuSans-74" x="954.035156"/>
      <use xlink:href="#DejaVuSans-20" x="993.244141"/>
      <use xlink:href="#DejaVuSans-69" x="1025.03125"/>
      <use xlink:href="#DejaVuSans-6e" x="1052.814453"/>
      <use xlink:href="#DejaVuSans-20" x="1116.193359"/>
      <use xlink:href="#DejaVuSans-74" x="1147.980469"/>
      <use xlink:href="#DejaVuSans-68" x="1187.189453"/>
      <use xlink:href="#DejaVuSans-65" x="1250.568359"/>
      <use xlink:href="#DejaVuSans-20" x="1312.091797"/>
      <use xlink:href="#DejaVuSans-49" x="1343.878906"/>
      <use xlink:href="#DejaVuSans-49" x="1373.371094"/>
      <use xlink:href="#DejaVuSans-49" x="1402.863281"/>
      <use xlink:href="#DejaVuSans-46" x="1432.355469"/>
      <use xlink:href="#DejaVuSans-20" x="1489.875"/>
      <use xlink:href="#DejaVuSans-63" x="1521.662109"/>
      <use xlink:href="#DejaVuSans-6f" x="1576.642578"/>
      <use xlink:href="#DejaVuSans-6d" x="1637.824219"/>
      <use xlink:href="#DejaVuSans-6d" x="1735.236328"/>
      <use xlink:href="#DejaVuSans-75" x="1832.648438"/>
      <use xlink:href="#DejaVuSans-6e" x="1896.027344"/>
      <use xlink:href="#DejaVuSans-69" x="1959.40625"/>
      <use xlink:href="#DejaVuSans-74" x="1987.189453"/>
      <use xlink:href="#DejaVuSans-79" x="2026.398438"/>
     </g>
    </g>
   </g>
   <g id="matplotlib.axis_2">
    <g id="ytick_1">
     <g id="line2d_8">
      <defs>
       <path id="m385e4b2176" d="M 0 0 
L -3.5 0 
" style="stroke: #000000; stroke-width: 0.8"/>
      </defs>
      <g>
       <use xlink:href="#m385e4b2176" x="90" y="369.36" style="stroke: #000000; stroke-width: 0.8"/>
      </g>
     </g>
     <g id="text_9">
      <!-- 0 -->
      <g transform="translate(76.6375 373.159219)scale(0.1 -0.1)">
       <use xlink:href="#DejaVuSans-30"/>
      </g>
     </g>
    </g>
    <g id="ytick_2">
     <g id="line2d_9">
      <g>
       <use xlink:href="#m385e4b2176" x="90" y="312.303396" style="stroke: #000000; stroke-width: 0.8"/>
      </g>
     </g>
     <g id="text_10">
      <!-- 10 -->
      <g transform="translate(70.275 316.102615)scale(0.1 -0.1)">
       <use xlink:href="#DejaVuSans-31"/>
       <use xlink:href="#DejaVuSans-30" x="63.623047"/>
      </g>
     </g>
    </g>
    <g id="ytick_3">
     <g id="line2d_10">
      <g>
       <use xlink:href="#m385e4b2176" x="90" y="255.246792" style="stroke: #000000; stroke-width: 0.8"/>
      </g>
     </g>
     <g id="text_11">
      <!-- 20 -->
      <g transform="translate(70.275 259.046011)scale(0.1 -0.1)">
       <use xlink:href="#DejaVuSans-32"/>
       <use xlink:href="#DejaVuSans-30" x="63.623047"/>
      </g>
     </g>
    </g>
    <g id="ytick_4">
     <g id="line2d_11">
      <g>
       <use xlink:href="#m385e4b2176" x="90" y="198.190189" style="stroke: #000000; stroke-width: 0.8"/>
      </g>
     </g>
     <g id="text_12">
      <!-- 30 -->
      <g transform="translate(70.275 201.989407)scale(0.1 -0.1)">
       <defs>
        <path id="DejaVuSans-33" d="M 2597 2516 
Q 3050 2419 3304 2112 
Q 3559 1806 3559 1356 
Q 3559 666 3084 287 
Q 2609 -91 1734 -91 
Q 1441 -91 1130 -33 
Q 819 25 488 141 
L 488 750 
Q 750 597 1062 519 
Q 1375 441 1716 441 
Q 2309 441 2620 675 
Q 2931 909 2931 1356 
Q 2931 1769 2642 2001 
Q 2353 2234 1838 2234 
L 1294 2234 
L 1294 2753 
L 1863 2753 
Q 2328 2753 2575 2939 
Q 2822 3125 2822 3475 
Q 2822 3834 2567 4026 
Q 2313 4219 1838 4219 
Q 1578 4219 1281 4162 
Q 984 4106 628 3988 
L 628 4550 
Q 988 4650 1302 4700 
Q 1616 4750 1894 4750 
Q 2613 4750 3031 4423 
Q 3450 4097 3450 3541 
Q 3450 3153 3228 2886 
Q 3006 2619 2597 2516 
z
" transform="scale(0.015625)"/>
       </defs>
       <use xlink:href="#DejaVuSans-33"/>
       <use xlink:href="#DejaVuSans-30" x="63.623047"/>
      </g>
     </g>
    </g>
    <g id="ytick_5">
     <g id="line2d_12">
      <g>
       <use xlink:href="#m385e4b2176" x="90" y="141.133585" style="stroke: #000000; stroke-width: 0.8"/>
      </g>
     </g>
     <g id="text_13">
      <!-- 40 -->
      <g transform="translate(70.275 144.932804)scale(0.1 -0.1)">
       <use xlink:href="#DejaVuSans-34"/>
       <use xlink:href="#DejaVuSans-30" x="63.623047"/>
      </g>
     </g>
    </g>
    <g id="ytick_6">
     <g id="line2d_13">
      <g>
       <use xlink:href="#m385e4b2176" x="90" y="84.076981" style="stroke: #000000; stroke-width: 0.8"/>
      </g>
     </g>
     <g id="text_14">
      <!-- 50 -->
      <g transform="translate(70.275 87.8762)scale(0.1 -0.1)">
       <defs>
        <path id="DejaVuSans-35" d="M 691 4666 
L 3169 4666 
L 3169 4134 
L 1269 4134 
L 1269 2991 
Q 1406 3038 1543 3061 
Q 1681 3084 1819 3084 
Q 2600 3084 3056 2656 
Q 3513 2228 3513 1497 
Q 3513 744 3044 326 
Q 2575 -91 1722 -91 
Q 1428 -91 1123 -41 
Q 819 9 494 109 
L 494 744 
Q 775 591 1075 516 
Q 1375 441 1709 441 
Q 2250 441 2565 725 
Q 2881 1009 2881 1497 
Q 2881 1984 2565 2268 
Q 2250 2553 1709 2553 
Q 1456 2553 1204 2497 
Q 953 2441 691 2322 
L 691 4666 
z
" transform="scale(0.015625)"/>
       </defs>
       <use xlink:href="#DejaVuSans-35"/>
       <use xlink:href="#DejaVuSans-30" x="63.623047"/>
      </g>
     </g>
    </g>
    <g id="text_15">
     <!-- Participant ID -->
     <g transform="translate(64.195312 251.838125)rotate(-90)scale(0.1 -0.1)">
      <defs>
       <path id="DejaVuSans-50" d="M 1259 4147 
L 1259 2394 
L 2053 2394 
Q 2494 2394 2734 2622 
Q 2975 2850 2975 3272 
Q 2975 3691 2734 3919 
Q 2494 4147 2053 4147 
L 1259 4147 
z
M 628 4666 
L 2053 4666 
Q 2838 4666 3239 4311 
Q 3641 3956 3641 3272 
Q 3641 2581 3239 2228 
Q 2838 1875 2053 1875 
L 1259 1875 
L 1259 0 
L 628 0 
L 628 4666 
z
" transform="scale(0.015625)"/>
       <path id="DejaVuSans-70" d="M 1159 525 
L 1159 -1331 
L 581 -1331 
L 581 3500 
L 1159 3500 
L 1159 2969 
Q 1341 3281 1617 3432 
Q 1894 3584 2278 3584 
Q 2916 3584 3314 3078 
Q 3713 2572 3713 1747 
Q 3713 922 3314 415 
Q 2916 -91 2278 -91 
Q 1894 -91 1617 61 
Q 1341 213 1159 525 
z
M 3116 1747 
Q 3116 2381 2855 2742 
Q 2594 3103 2138 3103 
Q 1681 3103 1420 2742 
Q 1159 2381 1159 1747 
Q 1159 1113 1420 752 
Q 1681 391 2138 391 
Q 2594 391 2855 752 
Q 3116 1113 3116 1747 
z
" transform="scale(0.015625)"/>
       <path id="DejaVuSans-44" d="M 1259 4147 
L 1259 519 
L 2022 519 
Q 2988 519 3436 956 
Q 3884 1394 3884 2338 
Q 3884 3275 3436 3711 
Q 2988 4147 2022 4147 
L 1259 4147 
z
M 628 4666 
L 1925 4666 
Q 3281 4666 3915 4102 
Q 4550 3538 4550 2338 
Q 4550 1131 3912 565 
Q 3275 0 1925 0 
L 628 0 
L 628 4666 
z
" transform="scale(0.015625)"/>
      </defs>
      <use xlink:href="#DejaVuSans-50"/>
      <use xlink:href="#DejaVuSans-61" x="55.802734"/>
      <use xlink:href="#DejaVuSans-72" x="117.082031"/>
      <use xlink:href="#DejaVuSans-74" x="158.195312"/>
      <use xlink:href="#DejaVuSans-69" x="197.404297"/>
      <use xlink:href="#DejaVuSans-63" x="225.1875"/>
      <use xlink:href="#DejaVuSans-69" x="280.167969"/>
      <use xlink:href="#DejaVuSans-70" x="307.951172"/>
      <use xlink:href="#DejaVuSans-61" x="371.427734"/>
      <use xlink:href="#DejaVuSans-6e" x="432.707031"/>
      <use xlink:href="#DejaVuSans-74" x="496.085938"/>
      <use xlink:href="#DejaVuSans-20" x="535.294922"/>
      <use xlink:href="#DejaVuSans-49" x="567.082031"/>
      <use xlink:href="#DejaVuSans-44" x="596.574219"/>
     </g>
    </g>
   </g>
   <g id="patch_3">
    <path d="M 90 384.48 
L 90 51.84 
" style="fill: none; stroke: #000000; stroke-width: 0.8; stroke-linejoin: miter; stroke-linecap: square"/>
   </g>
   <g id="patch_4">
    <path d="M 648 384.48 
L 648 51.84 
" style="fill: none; stroke: #000000; stroke-width: 0.8; stroke-linejoin: miter; stroke-linecap: square"/>
   </g>
   <g id="patch_5">
    <path d="M 90 384.48 
L 648 384.48 
" style="fill: none; stroke: #000000; stroke-width: 0.8; stroke-linejoin: miter; stroke-linecap: square"/>
   </g>
   <g id="patch_6">
    <path d="M 90 51.84 
L 648 51.84 
" style="fill: none; stroke: #000000; stroke-width: 0.8; stroke-linejoin: miter; stroke-linecap: square"/>
   </g>
   <g id="text_16">
    <!-- N/A -->
    <g transform="translate(613.791051 69.719375)scale(0.1 -0.1)">
     <defs>
      <path id="DejaVuSans-4e" d="M 628 4666 
L 1478 4666 
L 3547 763 
L 3547 4666 
L 4159 4666 
L 4159 0 
L 3309 0 
L 1241 3903 
L 1241 0 
L 628 0 
L 628 4666 
z
" transform="scale(0.015625)"/>
      <path id="DejaVuSans-2f" d="M 1625 4666 
L 2156 4666 
L 531 -594 
L 0 -594 
L 1625 4666 
z
" transform="scale(0.015625)"/>
      <path id="DejaVuSans-41" d="M 2188 4044 
L 1331 1722 
L 3047 1722 
L 2188 4044 
z
M 1831 4666 
L 2547 4666 
L 4325 0 
L 3669 0 
L 3244 1197 
L 1141 1197 
L 716 0 
L 50 0 
L 1831 4666 
z
" transform="scale(0.015625)"/>
     </defs>
     <use xlink:href="#DejaVuSans-4e"/>
     <use xlink:href="#DejaVuSans-2f" x="74.804688"/>
     <use xlink:href="#DejaVuSans-41" x="108.496094"/>
    </g>
   </g>
   <g id="text_17">
    <!-- N/A -->
    <g transform="translate(613.791051 64.013715)scale(0.1 -0.1)">
     <use xlink:href="#DejaVuSans-4e"/>
     <use xlink:href="#DejaVuSans-2f" x="74.804688"/>
     <use xlink:href="#DejaVuSans-41" x="108.496094"/>
    </g>
   </g>
   <g id="text_18">
    <!-- IIIF Community Engagement -->
    <g transform="translate(283.42875 45.84)scale(0.12 -0.12)">
     <defs>
      <path id="DejaVuSans-43" d="M 4122 4306 
L 4122 3641 
Q 3803 3938 3442 4084 
Q 3081 4231 2675 4231 
Q 1875 4231 1450 3742 
Q 1025 3253 1025 2328 
Q 1025 1406 1450 917 
Q 1875 428 2675 428 
Q 3081 428 3442 575 
Q 3803 722 4122 1019 
L 4122 359 
Q 3791 134 3420 21 
Q 3050 -91 2638 -91 
Q 1578 -91 968 557 
Q 359 1206 359 2328 
Q 359 3453 968 4101 
Q 1578 4750 2638 4750 
Q 3056 4750 3426 4639 
Q 3797 4528 4122 4306 
z
" transform="scale(0.015625)"/>
      <path id="DejaVuSans-45" d="M 628 4666 
L 3578 4666 
L 3578 4134 
L 1259 4134 
L 1259 2753 
L 3481 2753 
L 3481 2222 
L 1259 2222 
L 1259 531 
L 3634 531 
L 3634 0 
L 628 0 
L 628 4666 
z
" transform="scale(0.015625)"/>
      <path id="DejaVuSans-67" d="M 2906 1791 
Q 2906 2416 2648 2759 
Q 2391 3103 1925 3103 
Q 1463 3103 1205 2759 
Q 947 2416 947 1791 
Q 947 1169 1205 825 
Q 1463 481 1925 481 
Q 2391 481 2648 825 
Q 2906 1169 2906 1791 
z
M 3481 434 
Q 3481 -459 3084 -895 
Q 2688 -1331 1869 -1331 
Q 1566 -1331 1297 -1286 
Q 1028 -1241 775 -1147 
L 775 -588 
Q 1028 -725 1275 -790 
Q 1522 -856 1778 -856 
Q 2344 -856 2625 -561 
Q 2906 -266 2906 331 
L 2906 616 
Q 2728 306 2450 153 
Q 2172 0 1784 0 
Q 1141 0 747 490 
Q 353 981 353 1791 
Q 353 2603 747 3093 
Q 1141 3584 1784 3584 
Q 2172 3584 2450 3431 
Q 2728 3278 2906 2969 
L 2906 3500 
L 3481 3500 
L 3481 434 
z
" transform="scale(0.015625)"/>
     </defs>
     <use xlink:href="#DejaVuSans-49"/>
     <use xlink:href="#DejaVuSans-49" x="29.492188"/>
     <use xlink:href="#DejaVuSans-49" x="58.984375"/>
     <use xlink:href="#DejaVuSans-46" x="88.476562"/>
     <use xlink:href="#DejaVuSans-20" x="145.996094"/>
     <use xlink:href="#DejaVuSans-43" x="177.783203"/>
     <use xlink:href="#DejaVuSans-6f" x="247.607422"/>
     <use xlink:href="#DejaVuSans-6d" x="308.789062"/>
     <use xlink:href="#DejaVuSans-6d" x="406.201172"/>
     <use xlink:href="#DejaVuSans-75" x="503.613281"/>
     <use xlink:href="#DejaVuSans-6e" x="566.992188"/>
     <use xlink:href="#DejaVuSans-69" x="630.371094"/>
     <use xlink:href="#DejaVuSans-74" x="658.154297"/>
     <use xlink:href="#DejaVuSans-79" x="697.363281"/>
     <use xlink:href="#DejaVuSans-20" x="756.542969"/>
     <use xlink:href="#DejaVuSans-45" x="788.330078"/>
     <use xlink:href="#DejaVuSans-6e" x="851.513672"/>
     <use xlink:href="#DejaVuSans-67" x="914.892578"/>
     <use xlink:href="#DejaVuSans-61" x="978.369141"/>
     <use xlink:href="#DejaVuSans-67" x="1039.648438"/>
     <use xlink:href="#DejaVuSans-65" x="1103.125"/>
     <use xlink:href="#DejaVuSans-6d" x="1164.648438"/>
     <use xlink:href="#DejaVuSans-65" x="1262.060547"/>
     <use xlink:href="#DejaVuSans-6e" x="1323.583984"/>
     <use xlink:href="#DejaVuSans-74" x="1386.962891"/>
    </g>
   </g>
   <g id="legend_1">
    <g id="patch_7">
     <path d="M 97 103.874375 
L 179.667188 103.874375 
Q 181.667188 103.874375 181.667188 101.874375 
L 181.667188 58.84 
Q 181.667188 56.84 179.667188 56.84 
L 97 56.84 
Q 95 56.84 95 58.84 
L 95 101.874375 
Q 95 103.874375 97 103.874375 
z
" style="fill: #ffffff; opacity: 0.8; stroke: #cccccc; stroke-linejoin: miter"/>
    </g>
    <g id="line2d_14">
     <path d="M 99 64.938437 
L 109 64.938437 
L 119 64.938437 
" style="fill: none; stroke: #ffffff; stroke-width: 1.5; stroke-linecap: square"/>
     <defs>
      <path id="m962f5a8f4a" d="M 0 4 
C 1.060812 4 2.078319 3.578535 2.828427 2.828427 
C 3.578535 2.078319 4 1.060812 4 0 
C 4 -1.060812 3.578535 -2.078319 2.828427 -2.828427 
C 2.078319 -3.578535 1.060812 -4 0 -4 
C -1.060812 -4 -2.078319 -3.578535 -2.828427 -2.828427 
C -3.578535 -2.078319 -4 -1.060812 -4 0 
C -4 1.060812 -3.578535 2.078319 -2.828427 2.828427 
C -2.078319 3.578535 -1.060812 4 0 4 
z
" style="stroke: #ffffff"/>
     </defs>
     <g>
      <use xlink:href="#m962f5a8f4a" x="109" y="64.938437" style="fill: #800080; stroke: #ffffff"/>
     </g>
    </g>
    <g id="text_19">
     <!-- Both -->
     <g transform="translate(127 68.438437)scale(0.1 -0.1)">
      <defs>
       <path id="DejaVuSans-42" d="M 1259 2228 
L 1259 519 
L 2272 519 
Q 2781 519 3026 730 
Q 3272 941 3272 1375 
Q 3272 1813 3026 2020 
Q 2781 2228 2272 2228 
L 1259 2228 
z
M 1259 4147 
L 1259 2741 
L 2194 2741 
Q 2656 2741 2882 2914 
Q 3109 3088 3109 3444 
Q 3109 3797 2882 3972 
Q 2656 4147 2194 4147 
L 1259 4147 
z
M 628 4666 
L 2241 4666 
Q 2963 4666 3353 4366 
Q 3744 4066 3744 3513 
Q 3744 3084 3544 2831 
Q 3344 2578 2956 2516 
Q 3422 2416 3680 2098 
Q 3938 1781 3938 1306 
Q 3938 681 3513 340 
Q 3088 0 2303 0 
L 628 0 
L 628 4666 
z
" transform="scale(0.015625)"/>
      </defs>
      <use xlink:href="#DejaVuSans-42"/>
      <use xlink:href="#DejaVuSans-6f" x="68.603516"/>
      <use xlink:href="#DejaVuSans-74" x="129.785156"/>
      <use xlink:href="#DejaVuSans-68" x="168.994141"/>
     </g>
    </g>
    <g id="line2d_15">
     <path d="M 99 79.616562 
L 109 79.616562 
L 119 79.616562 
" style="fill: none; stroke: #ffffff; stroke-width: 1.5; stroke-linecap: square"/>
     <defs>
      <path id="m39141bfd2d" d="M 0 4 
C 1.060812 4 2.078319 3.578535 2.828427 2.828427 
C 3.578535 2.078319 4 1.060812 4 0 
C 4 -1.060812 3.578535 -2.078319 2.828427 -2.828427 
C 2.078319 -3.578535 1.060812 -4 0 -4 
C -1.060812 -4 -2.078319 -3.578535 -2.828427 -2.828427 
C -3.578535 -2.078319 -4 -1.060812 -4 0 
C -4 1.060812 -3.578535 2.078319 -2.828427 2.828427 
C -2.078319 3.578535 -1.060812 4 0 4 
z
" style="stroke: #ffffff"/>
     </defs>
     <g>
      <use xlink:href="#m39141bfd2d" x="109" y="79.616562" style="fill: #ff0000; stroke: #ffffff"/>
     </g>
    </g>
    <g id="text_20">
     <!-- IIIF -->
     <g transform="translate(127 83.116562)scale(0.1 -0.1)">
      <use xlink:href="#DejaVuSans-49"/>
      <use xlink:href="#DejaVuSans-49" x="29.492188"/>
      <use xlink:href="#DejaVuSans-49" x="58.984375"/>
      <use xlink:href="#DejaVuSans-46" x="88.476562"/>
     </g>
    </g>
    <g id="line2d_16">
     <path d="M 99 94.294687 
L 109 94.294687 
L 119 94.294687 
" style="fill: none; stroke: #ffffff; stroke-width: 1.5; stroke-linecap: square"/>
     <defs>
      <path id="mc9a63e19f6" d="M 0 4 
C 1.060812 4 2.078319 3.578535 2.828427 2.828427 
C 3.578535 2.078319 4 1.060812 4 0 
C 4 -1.060812 3.578535 -2.078319 2.828427 -2.828427 
C 2.078319 -3.578535 1.060812 -4 0 -4 
C -1.060812 -4 -2.078319 -3.578535 -2.828427 -2.828427 
C -3.578535 -2.078319 -4 -1.060812 -4 0 
C -4 1.060812 -3.578535 2.078319 -2.828427 2.828427 
C -2.078319 3.578535 -1.060812 4 0 4 
z
" style="stroke: #ffffff"/>
     </defs>
     <g>
      <use xlink:href="#mc9a63e19f6" x="109" y="94.294687" style="fill: #0000ff; stroke: #ffffff"/>
     </g>
    </g>
    <g id="text_21">
     <!-- Linked Art -->
     <g transform="translate(127 97.794687)scale(0.1 -0.1)">
      <defs>
       <path id="DejaVuSans-4c" d="M 628 4666 
L 1259 4666 
L 1259 531 
L 3531 531 
L 3531 0 
L 628 0 
L 628 4666 
z
" transform="scale(0.015625)"/>
       <path id="DejaVuSans-6b" d="M 581 4863 
L 1159 4863 
L 1159 1991 
L 2875 3500 
L 3609 3500 
L 1753 1863 
L 3688 0 
L 2938 0 
L 1159 1709 
L 1159 0 
L 581 0 
L 581 4863 
z
" transform="scale(0.015625)"/>
       <path id="DejaVuSans-64" d="M 2906 2969 
L 2906 4863 
L 3481 4863 
L 3481 0 
L 2906 0 
L 2906 525 
Q 2725 213 2448 61 
Q 2172 -91 1784 -91 
Q 1150 -91 751 415 
Q 353 922 353 1747 
Q 353 2572 751 3078 
Q 1150 3584 1784 3584 
Q 2172 3584 2448 3432 
Q 2725 3281 2906 2969 
z
M 947 1747 
Q 947 1113 1208 752 
Q 1469 391 1925 391 
Q 2381 391 2643 752 
Q 2906 1113 2906 1747 
Q 2906 2381 2643 2742 
Q 2381 3103 1925 3103 
Q 1469 3103 1208 2742 
Q 947 2381 947 1747 
z
" transform="scale(0.015625)"/>
      </defs>
      <use xlink:href="#DejaVuSans-4c"/>
      <use xlink:href="#DejaVuSans-69" x="55.712891"/>
      <use xlink:href="#DejaVuSans-6e" x="83.496094"/>
      <use xlink:href="#DejaVuSans-6b" x="146.875"/>
      <use xlink:href="#DejaVuSans-65" x="201.160156"/>
      <use xlink:href="#DejaVuSans-64" x="262.683594"/>
      <use xlink:href="#DejaVuSans-20" x="326.160156"/>
      <use xlink:href="#DejaVuSans-41" x="357.947266"/>
      <use xlink:href="#DejaVuSans-72" x="426.355469"/>
      <use xlink:href="#DejaVuSans-74" x="467.46875"/>
     </g>
    </g>
   </g>
  </g>
 </g>
 <defs>
  <clipPath id="p30ddd5d490">
   <rect x="90" y="51.84" width="558" height="332.64"/>
  </clipPath>
 </defs>
</svg>
