<svg version="1.1" viewBox="0.0 0.0 940.0 523.0" fill="none" stroke="none" stroke-linecap="square" stroke-miterlimit="10" width="940" height="523" xmlns:xlink="http://www.w3.org/1999/xlink" xmlns="http://www.w3.org/2000/svg"><path fill="#ffffff" d="M0 0L940.0 0L940.0 523.0L0 523.0L0 0Z" fill-rule="nonzero"/><path stroke="#333333" stroke-width="1.0" stroke-linecap="butt" d="M69.5 420.5L913.5 420.5" fill-rule="nonzero"/><path stroke="#cccccc" stroke-width="1.0" stroke-linecap="butt" d="M69.5 323.5L913.5 323.5" fill-rule="nonzero"/><path stroke="#cccccc" stroke-width="1.0" stroke-linecap="butt" d="M69.5 227.5L913.5 227.5" fill-rule="nonzero"/><path stroke="#cccccc" stroke-width="1.0" stroke-linecap="butt" d="M69.5 130.5L913.5 130.5" fill-rule="nonzero"/><path stroke="#cccccc" stroke-width="1.0" stroke-linecap="butt" d="M69.5 34.5L913.5 34.5" fill-rule="nonzero"/><path stroke="#e6e6e6" stroke-width="1.0" stroke-linecap="butt" d="M69.5 388.5L913.5 388.5" fill-rule="nonzero"/><path stroke="#e6e6e6" stroke-width="1.0" stroke-linecap="butt" d="M69.5 356.5L913.5 356.5" fill-rule="nonzero"/><path stroke="#e6e6e6" stroke-width="1.0" stroke-linecap="butt" d="M69.5 291.5L913.5 291.5" fill-rule="nonzero"/><path stroke="#e6e6e6" stroke-width="1.0" stroke-linecap="butt" d="M69.5 259.5L913.5 259.5" fill-rule="nonzero"/><path stroke="#e6e6e6" stroke-width="1.0" stroke-linecap="butt" d="M69.5 195.5L913.5 195.5" fill-rule="nonzero"/><path stroke="#e6e6e6" stroke-width="1.0" stroke-linecap="butt" d="M69.5 162.5L913.5 162.5" fill-rule="nonzero"/><path stroke="#e6e6e6" stroke-width="1.0" stroke-linecap="butt" d="M69.5 98.5L913.5 98.5" fill-rule="nonzero"/><path stroke="#e6e6e6" stroke-width="1.0" stroke-linecap="butt" d="M69.5 66.5L913.5 66.5" fill-rule="nonzero"/><clipPath id="id_0"><path d="M69.15 34.15L913.85 34.15L913.85 420.41666L69.15 420.41666L69.15 34.15Z" clip-rule="nonzero"/></clipPath><path stroke="#000000" stroke-width="2.0" stroke-linecap="butt" stroke-opacity="0.0" clip-path="url(#id_0)" d="M263.0 420.0L137.0 420.0L137.0 172.0L263.0 172.0Z" fill-rule="nonzero"/><path fill="#93c47d" clip-path="url(#id_0)" d="M263.0 420.0L137.0 420.0L137.0 172.0L263.0 172.0Z" fill-rule="nonzero"/><path stroke="#000000" stroke-width="2.0" stroke-linecap="butt" stroke-opacity="0.0" clip-path="url(#id_0)" d="M457.0 420.0L331.0 420.0L331.0 246.0L457.0 246.0Z" fill-rule="nonzero"/><path fill="#93c47d" clip-path="url(#id_0)" d="M457.0 420.0L331.0 420.0L331.0 246.0L457.0 246.0Z" fill-rule="nonzero"/><path stroke="#000000" stroke-width="2.0" stroke-linecap="butt" stroke-opacity="0.0" clip-path="url(#id_0)" d="M652.0 420.0L526.0 420.0L526.0 218.0L652.0 218.0Z" fill-rule="nonzero"/><path fill="#93c47d" clip-path="url(#id_0)" d="M652.0 420.0L526.0 420.0L526.0 218.0L652.0 218.0Z" fill-rule="nonzero"/><path stroke="#000000" stroke-width="2.0" stroke-linecap="butt" stroke-opacity="0.0" clip-path="url(#id_0)" d="M846.0 420.0L720.0 420.0L720.0 328.0L846.0 328.0Z" fill-rule="nonzero"/><path fill="#93c47d" clip-path="url(#id_0)" d="M846.0 420.0L720.0 420.0L720.0 328.0L846.0 328.0Z" fill-rule="nonzero"/><path stroke="#000000" stroke-width="2.0" stroke-linecap="butt" stroke-opacity="0.0" clip-path="url(#id_0)" d="M263.0 172.0L137.0 172.0L137.0 145.0L263.0 145.0Z" fill-rule="nonzero"/><path fill="#f8db70" clip-path="url(#id_0)" d="M263.0 172.0L137.0 172.0L137.0 145.0L263.0 145.0Z" fill-rule="nonzero"/><path stroke="#000000" stroke-width="2.0" stroke-linecap="butt" stroke-opacity="0.0" clip-path="url(#id_0)" d="M457.0 246.0L331.0 246.0L331.0 236.0L457.0 236.0Z" fill-rule="nonzero"/><path fill="#f8db70" clip-path="url(#id_0)" d="M457.0 246.0L331.0 246.0L331.0 236.0L457.0 236.0Z" fill-rule="nonzero"/><path stroke="#000000" stroke-width="2.0" stroke-linecap="butt" stroke-opacity="0.0" clip-path="url(#id_0)" d="M652.0 218.0L526.0 218.0L526.0 218.0L652.0 218.0Z" fill-rule="nonzero"/><path fill="#f8db70" clip-path="url(#id_0)" d="M652.0 218.0L526.0 218.0L526.0 218.0L652.0 218.0Z" fill-rule="nonzero"/><path stroke="#000000" stroke-width="2.0" stroke-linecap="butt" stroke-opacity="0.0" clip-path="url(#id_0)" d="M846.0 328.0L720.0 328.0L720.0 319.0L846.0 319.0Z" fill-rule="nonzero"/><path fill="#f8db70" clip-path="url(#id_0)" d="M846.0 328.0L720.0 328.0L720.0 319.0L846.0 319.0Z" fill-rule="nonzero"/><path stroke="#000000" stroke-width="2.0" stroke-linecap="butt" stroke-opacity="0.0" clip-path="url(#id_0)" d="M263.0 145.0L137.0 145.0L137.0 36.0C137.0 34.89543 137.89543 34.0 139.0 34.0L261.0 34.0C262.10458 34.0 263.0 34.89543 263.0 36.0Z" fill-rule="nonzero"/><path fill="#cc0000" clip-path="url(#id_0)" d="M263.0 145.0L137.0 145.0L137.0 36.0C137.0 34.89543 137.89543 34.0 139.0 34.0L261.0 34.0C262.10458 34.0 263.0 34.89543 263.0 36.0Z" fill-rule="nonzero"/><path stroke="#000000" stroke-width="2.0" stroke-linecap="butt" stroke-opacity="0.0" clip-path="url(#id_0)" d="M457.0 236.0L331.0 236.0L331.0 36.0C331.0 34.89543 331.89542 34.0 333.0 34.0L455.0 34.0C456.10458 34.0 457.0 34.89543 457.0 36.0Z" fill-rule="nonzero"/><path fill="#cc0000" clip-path="url(#id_0)" d="M457.0 236.0L331.0 236.0L331.0 36.0C331.0 34.89543 331.89542 34.0 333.0 34.0L455.0 34.0C456.10458 34.0 457.0 34.89543 457.0 36.0Z" fill-rule="nonzero"/><path stroke="#000000" stroke-width="2.0" stroke-linecap="butt" stroke-opacity="0.0" clip-path="url(#id_0)" d="M652.0 218.0L526.0 218.0L526.0 36.0C526.0 34.89543 526.89545 34.0 528.0 34.0L650.0 34.0C651.10455 34.0 652.0 34.89543 652.0 36.0Z" fill-rule="nonzero"/><path fill="#cc0000" clip-path="url(#id_0)" d="M652.0 218.0L526.0 218.0L526.0 36.0C526.0 34.89543 526.89545 34.0 528.0 34.0L650.0 34.0C651.10455 34.0 652.0 34.89543 652.0 36.0Z" fill-rule="nonzero"/><path stroke="#000000" stroke-width="2.0" stroke-linecap="butt" stroke-opacity="0.0" clip-path="url(#id_0)" d="M846.0 319.0L720.0 319.0L720.0 36.0C720.0 34.89543 720.89545 34.0 722.0 34.0L844.0 34.0C845.10455 34.0 846.0 34.89543 846.0 36.0Z" fill-rule="nonzero"/><path fill="#cc0000" clip-path="url(#id_0)" d="M846.0 319.0L720.0 319.0L720.0 36.0C720.0 34.89543 720.89545 34.0 722.0 34.0L844.0 34.0C845.10455 34.0 846.0 34.89543 846.0 36.0Z" fill-rule="nonzero"/><path stroke="#93c47d" stroke-width="3.0" stroke-linejoin="round" stroke-linecap="round" d="M199.29688 188.90237L193.70312 188.90237L193.70312 188.12112L196.65625 184.83987Q197.3125 184.08987 197.5625 183.63675Q197.8125 183.168 197.8125 182.668Q197.8125 181.99612 197.40625 181.57425Q197.01562 181.13675 196.32812 181.13675Q195.53125 181.13675 195.07812 181.6055Q194.625 182.05862 194.625 182.88675L193.54688 182.88675Q193.54688 181.69925 194.29688 180.9805Q195.0625 180.24612 196.32812 180.24612Q197.53125 180.24612 198.21875 180.87112Q198.90625 181.49612 198.90625 182.543Q198.90625 183.793 197.29688 185.543L195.01562 188.01175L199.29688 188.01175L199.29688 188.90237ZM206.21875 180.9805L202.6875 188.90237L201.54688 188.90237L205.0625 181.26175L200.45312 181.26175L200.45312 180.37112L206.21875 180.37112L206.21875 180.9805Z" fill-rule="nonzero"/><path fill="#000000" d="M199.29688 188.90237L193.70312 188.90237L193.70312 188.12112L196.65625 184.83987Q197.3125 184.08987 197.5625 183.63675Q197.8125 183.168 197.8125 182.668Q197.8125 181.99612 197.40625 181.57425Q197.01562 181.13675 196.32812 181.13675Q195.53125 181.13675 195.07812 181.6055Q194.625 182.05862 194.625 182.88675L193.54688 182.88675Q193.54688 181.69925 194.29688 180.9805Q195.0625 180.24612 196.32812 180.24612Q197.53125 180.24612 198.21875 180.87112Q198.90625 181.49612 198.90625 182.543Q198.90625 183.793 197.29688 185.543L195.01562 188.01175L199.29688 188.01175L199.29688 188.90237ZM206.21875 180.9805L202.6875 188.90237L201.54688 188.90237L205.0625 181.26175L200.45312 181.26175L200.45312 180.37112L206.21875 180.37112L206.21875 180.9805Z" fill-rule="nonzero"/><path stroke="#93c47d" stroke-width="3.0" stroke-linejoin="round" stroke-linecap="round" d="M391.26562 262.477L390.1875 262.477L390.1875 255.25824L388.0 256.0551L388.0 255.07074L391.10938 253.89886L391.26562 253.89886L391.26562 262.477ZM398.85938 258.727Q398.53125 259.13324 398.04688 259.38324Q397.57812 259.6176 397.01562 259.6176Q396.28125 259.6176 395.73438 259.25824Q395.1875 258.89886 394.89062 258.2426Q394.59375 257.57074 394.59375 256.77386Q394.59375 255.93011 394.90625 255.24261Q395.23438 254.55511 395.82812 254.19574Q396.4375 253.82074 397.23438 253.82074Q398.5 253.82074 399.21875 254.77386Q399.95312 255.72699 399.95312 257.352L399.95312 257.6645Q399.95312 260.1645 398.96875 261.3051Q397.98438 262.44574 396.0 262.477L395.78125 262.477L395.78125 261.57074L396.01562 261.57074Q397.35938 261.5395 398.07812 260.8676Q398.79688 260.19574 398.85938 258.727ZM397.1875 258.727Q397.73438 258.727 398.1875 258.39886Q398.65625 258.0551 398.875 257.57074L398.875 257.13324Q398.875 256.07074 398.40625 255.39886Q397.9375 254.72699 397.23438 254.72699Q396.51562 254.72699 396.07812 255.27386Q395.65625 255.82074 395.65625 256.727Q395.65625 257.602 396.0625 258.1645Q396.48438 258.727 397.1875 258.727Z" fill-rule="nonzero"/><path fill="#000000" d="M391.26562 262.477L390.1875 262.477L390.1875 255.25824L388.0 256.0551L388.0 255.07074L391.10938 253.89886L391.26562 253.89886L391.26562 262.477ZM398.85938 258.727Q398.53125 259.13324 398.04688 259.38324Q397.57812 259.6176 397.01562 259.6176Q396.28125 259.6176 395.73438 259.25824Q395.1875 258.89886 394.89062 258.2426Q394.59375 257.57074 394.59375 256.77386Q394.59375 255.93011 394.90625 255.24261Q395.23438 254.55511 395.82812 254.19574Q396.4375 253.82074 397.23438 253.82074Q398.5 253.82074 399.21875 254.77386Q399.95312 255.72699 399.95312 257.352L399.95312 257.6645Q399.95312 260.1645 398.96875 261.3051Q397.98438 262.44574 396.0 262.477L395.78125 262.477L395.78125 261.57074L396.01562 261.57074Q397.35938 261.5395 398.07812 260.8676Q398.79688 260.19574 398.85938 258.727ZM397.1875 258.727Q397.73438 258.727 398.1875 258.39886Q398.65625 258.0551 398.875 257.57074L398.875 257.13324Q398.875 256.07074 398.40625 255.39886Q397.9375 254.72699 397.23438 254.72699Q396.51562 254.72699 396.07812 255.27386Q395.65625 255.82074 395.65625 256.727Q395.65625 257.602 396.0625 258.1645Q396.48438 258.727 397.1875 258.727Z" fill-rule="nonzero"/><path stroke="#93c47d" stroke-width="3.0" stroke-linejoin="round" stroke-linecap="round" d="M588.2969 234.8865L582.7031 234.8865L582.7031 234.10526L585.65625 230.824Q586.3125 230.074 586.5625 229.62088Q586.8125 229.15213 586.8125 228.65213Q586.8125 227.98026 586.40625 227.55838Q586.0156 227.12088 585.3281 227.12088Q584.53125 227.12088 584.0781 227.58963Q583.625 228.04276 583.625 228.87088L582.5469 228.87088Q582.5469 227.68338 583.2969 226.96463Q584.0625 226.23026 585.3281 226.23026Q586.53125 226.23026 587.21875 226.85526Q587.90625 227.48026 587.90625 228.52713Q587.90625 229.77713 586.2969 231.52713L584.0156 233.99588L588.2969 233.99588L588.2969 234.8865ZM595.2969 234.8865L589.7031 234.8865L589.7031 234.10526L592.65625 230.824Q593.3125 230.074 593.5625 229.62088Q593.8125 229.15213 593.8125 228.65213Q593.8125 227.98026 593.40625 227.55838Q593.0156 227.12088 592.3281 227.12088Q591.53125 227.12088 591.0781 227.58963Q590.625 228.04276 590.625 228.87088L589.5469 228.87088Q589.5469 227.68338 590.2969 226.96463Q591.0625 226.23026 592.3281 226.23026Q593.53125 226.23026 594.21875 226.85526Q594.90625 227.48026 594.90625 228.52713Q594.90625 229.77713 593.2969 231.52713L591.0156 233.99588L595.2969 233.99588L595.2969 234.8865Z" fill-rule="nonzero"/><path fill="#000000" d="M588.2969 234.8865L582.7031 234.8865L582.7031 234.10526L585.65625 230.824Q586.3125 230.074 586.5625 229.62088Q586.8125 229.15213 586.8125 228.65213Q586.8125 227.98026 586.40625 227.55838Q586.0156 227.12088 585.3281 227.12088Q584.53125 227.12088 584.0781 227.58963Q583.625 228.04276 583.625 228.87088L582.5469 228.87088Q582.5469 227.68338 583.2969 226.96463Q584.0625 226.23026 585.3281 226.23026Q586.53125 226.23026 587.21875 226.85526Q587.90625 227.48026 587.90625 228.52713Q587.90625 229.77713 586.2969 231.52713L584.0156 233.99588L588.2969 233.99588L588.2969 234.8865ZM595.2969 234.8865L589.7031 234.8865L589.7031 234.10526L592.65625 230.824Q593.3125 230.074 593.5625 229.62088Q593.8125 229.15213 593.8125 228.65213Q593.8125 227.98026 593.40625 227.55838Q593.0156 227.12088 592.3281 227.12088Q591.53125 227.12088 591.0781 227.58963Q590.625 228.04276 590.625 228.87088L589.5469 228.87088Q589.5469 227.68338 590.2969 226.96463Q591.0625 226.23026 592.3281 226.23026Q593.53125 226.23026 594.21875 226.85526Q594.90625 227.48026 594.90625 228.52713Q594.90625 229.77713 593.2969 231.52713L591.0156 233.99588L595.2969 233.99588L595.2969 234.8865Z" fill-rule="nonzero"/><path stroke="#93c47d" stroke-width="3.0" stroke-linejoin="round" stroke-linecap="round" d="M780.2656 345.2484L779.1875 345.2484L779.1875 338.02966L777.0 338.82654L777.0 337.84216L780.1094 336.6703L780.2656 336.6703L780.2656 345.2484ZM789.0625 341.6078Q789.0625 343.51404 788.40625 344.45154Q787.7656 345.3734 786.375 345.3734Q785.0156 345.3734 784.3594 344.46716Q783.7031 343.5609 783.6719 341.7484L783.6719 340.3109Q783.6719 338.4203 784.3125 337.51404Q784.96875 336.59216 786.3594 336.59216Q787.7344 336.59216 788.3906 337.4828Q789.0469 338.3578 789.0625 340.20154L789.0625 341.6078ZM787.96875 340.1234Q787.96875 338.7484 787.5781 338.1234Q787.2031 337.4828 786.3594 337.4828Q785.53125 337.4828 785.1406 338.1234Q784.7656 338.7484 784.7656 340.0453L784.7656 341.77966Q784.7656 343.15466 785.15625 343.82654Q785.5625 344.4828 786.375 344.4828Q787.1719 344.4828 787.5625 343.8578Q787.9531 343.2328 787.96875 341.90466L787.96875 340.1234Z" fill-rule="nonzero"/><path fill="#000000" d="M780.2656 345.2484L779.1875 345.2484L779.1875 338.02966L777.0 338.82654L777.0 337.84216L780.1094 336.6703L780.2656 336.6703L780.2656 345.2484ZM789.0625 341.6078Q789.0625 343.51404 788.40625 344.45154Q787.7656 345.3734 786.375 345.3734Q785.0156 345.3734 784.3594 344.46716Q783.7031 343.5609 783.6719 341.7484L783.6719 340.3109Q783.6719 338.4203 784.3125 337.51404Q784.96875 336.59216 786.3594 336.59216Q787.7344 336.59216 788.3906 337.4828Q789.0469 338.3578 789.0625 340.20154L789.0625 341.6078ZM787.96875 340.1234Q787.96875 338.7484 787.5781 338.1234Q787.2031 337.4828 786.3594 337.4828Q785.53125 337.4828 785.1406 338.1234Q784.7656 338.7484 784.7656 340.0453L784.7656 341.77966Q784.7656 343.15466 785.15625 343.82654Q785.5625 344.4828 786.375 344.4828Q787.1719 344.4828 787.5625 343.8578Q787.9531 343.2328 787.96875 341.90466L787.96875 340.1234Z" fill-rule="nonzero"/><path stroke="#f8db70" stroke-width="3.0" stroke-linejoin="round" stroke-linecap="round" d="M198.78125 156.51503L199.59375 156.51503Q200.375 156.4994 200.8125 156.10878Q201.25 155.71815 201.25 155.04628Q201.25 153.54628 199.75 153.54628Q199.04688 153.54628 198.625 153.95253Q198.21875 154.35878 198.21875 155.01503L197.125 155.01503Q197.125 153.9994 197.85938 153.32753Q198.60938 152.65565 199.75 152.65565Q200.95312 152.65565 201.64062 153.29628Q202.32812 153.9369 202.32812 155.07753Q202.32812 155.64003 201.96875 156.15565Q201.60938 156.67128 200.98438 156.9369Q201.6875 157.15565 202.0625 157.67128Q202.45312 158.1869 202.45312 158.9369Q202.45312 160.07753 201.70312 160.76503Q200.95312 161.4369 199.75 161.4369Q198.5625 161.4369 197.79688 160.78065Q197.04688 160.1244 197.04688 159.0619L198.14062 159.0619Q198.14062 159.73378 198.57812 160.14003Q199.01562 160.54628 199.76562 160.54628Q200.54688 160.54628 200.95312 160.14003Q201.375 159.71815 201.375 158.95253Q201.375 158.21815 200.92188 157.82753Q200.46875 157.42128 199.59375 157.40565L198.78125 157.40565L198.78125 156.51503Z" fill-rule="nonzero"/><path fill="#000000" d="M198.78125 156.51503L199.59375 156.51503Q200.375 156.4994 200.8125 156.10878Q201.25 155.71815 201.25 155.04628Q201.25 153.54628 199.75 153.54628Q199.04688 153.54628 198.625 153.95253Q198.21875 154.35878 198.21875 155.01503L197.125 155.01503Q197.125 153.9994 197.85938 153.32753Q198.60938 152.65565 199.75 152.65565Q200.95312 152.65565 201.64062 153.29628Q202.32812 153.9369 202.32812 155.07753Q202.32812 155.64003 201.96875 156.15565Q201.60938 156.67128 200.98438 156.9369Q201.6875 157.15565 202.0625 157.67128Q202.45312 158.1869 202.45312 158.9369Q202.45312 160.07753 201.70312 160.76503Q200.95312 161.4369 199.75 161.4369Q198.5625 161.4369 197.79688 160.78065Q197.04688 160.1244 197.04688 159.0619L198.14062 159.0619Q198.14062 159.73378 198.57812 160.14003Q199.01562 160.54628 199.76562 160.54628Q200.54688 160.54628 200.95312 160.14003Q201.375 159.71815 201.375 158.95253Q201.375 158.21815 200.92188 157.82753Q200.46875 157.42128 199.59375 157.40565L198.78125 157.40565L198.78125 156.51503Z" fill-rule="nonzero"/><path fill="#f8db70" d="M394.76562 221.48016L393.6875 221.48016L393.6875 214.26141L391.5 215.05829L391.5 214.07391L394.60938 212.90204L394.76562 212.90204L394.76562 221.48016Z" fill-rule="nonzero"/><path fill="#f8db70" d="M591.5625 199.44588Q591.5625 201.35213 590.90625 202.28963Q590.2656 203.2115 588.875 203.2115Q587.5156 203.2115 586.8594 202.30525Q586.2031 201.399 586.1719 199.5865L586.1719 198.149Q586.1719 196.25838 586.8125 195.35213Q587.46875 194.43025 588.8594 194.43025Q590.2344 194.43025 590.8906 195.32088Q591.5469 196.19588 591.5625 198.03963L591.5625 199.44588ZM590.46875 197.9615Q590.46875 196.5865 590.0781 195.9615Q589.7031 195.32088 588.8594 195.32088Q588.03125 195.32088 587.6406 195.9615Q587.2656 196.5865 587.2656 197.88338L587.2656 199.61775Q587.2656 200.99275 587.65625 201.66463Q588.0625 202.32088 588.875 202.32088Q589.6719 202.32088 590.0625 201.69588Q590.4531 201.07088 590.46875 199.74275L590.46875 197.9615Z" fill-rule="nonzero"/><path fill="#f8db70" d="M783.7656 304.2516L782.6875 304.2516L782.6875 297.03284L780.5 297.8297L780.5 296.84534L783.6094 295.67346L783.7656 295.67346L783.7656 304.2516Z" fill-rule="nonzero"/><path stroke="#cc0000" stroke-width="3.0" stroke-linejoin="round" stroke-linecap="round" d="M197.26562 50.95L196.1875 50.95L196.1875 43.73125L194.0 44.528126L194.0 43.54375L197.10938 42.371876L197.26562 42.371876L197.26562 50.95ZM206.29688 50.95L200.70312 50.95L200.70312 50.16875L203.65625 46.8875Q204.3125 46.1375 204.5625 45.684376Q204.8125 45.215626 204.8125 44.715626Q204.8125 44.04375 204.40625 43.621876Q204.01562 43.184376 203.32812 43.184376Q202.53125 43.184376 202.07812 43.653126Q201.625 44.10625 201.625 44.934376L200.54688 44.934376Q200.54688 43.746876 201.29688 43.028126Q202.0625 42.29375 203.32812 42.29375Q204.53125 42.29375 205.21875 42.91875Q205.90625 43.54375 205.90625 44.590626Q205.90625 45.840626 204.29688 47.590626L202.01562 50.059376L206.29688 50.059376L206.29688 50.95Z" fill-rule="nonzero"/><path fill="#ffffff" d="M197.26562 50.95L196.1875 50.95L196.1875 43.73125L194.0 44.528126L194.0 43.54375L197.10938 42.371876L197.26562 42.371876L197.26562 50.95ZM206.29688 50.95L200.70312 50.95L200.70312 50.16875L203.65625 46.8875Q204.3125 46.1375 204.5625 45.684376Q204.8125 45.215626 204.8125 44.715626Q204.8125 44.04375 204.40625 43.621876Q204.01562 43.184376 203.32812 43.184376Q202.53125 43.184376 202.07812 43.653126Q201.625 44.10625 201.625 44.934376L200.54688 44.934376Q200.54688 43.746876 201.29688 43.028126Q202.0625 42.29375 203.32812 42.29375Q204.53125 42.29375 205.21875 42.91875Q205.90625 43.54375 205.90625 44.590626Q205.90625 45.840626 204.29688 47.590626L202.01562 50.059376L206.29688 50.059376L206.29688 50.95Z" fill-rule="nonzero"/><path stroke="#cc0000" stroke-width="3.0" stroke-linejoin="round" stroke-linecap="round" d="M393.29688 50.95L387.70312 50.95L387.70312 50.16875L390.65625 46.8875Q391.3125 46.1375 391.5625 45.684376Q391.8125 45.215626 391.8125 44.715626Q391.8125 44.04375 391.40625 43.621876Q391.01562 43.184376 390.32812 43.184376Q389.53125 43.184376 389.07812 43.653126Q388.625 44.10625 388.625 44.934376L387.54688 44.934376Q387.54688 43.746876 388.29688 43.028126Q389.0625 42.29375 390.32812 42.29375Q391.53125 42.29375 392.21875 42.91875Q392.90625 43.54375 392.90625 44.590626Q392.90625 45.840626 391.29688 47.590626L389.01562 50.059376L393.29688 50.059376L393.29688 50.95ZM400.29688 50.95L394.70312 50.95L394.70312 50.16875L397.65625 46.8875Q398.3125 46.1375 398.5625 45.684376Q398.8125 45.215626 398.8125 44.715626Q398.8125 44.04375 398.40625 43.621876Q398.01562 43.184376 397.32812 43.184376Q396.53125 43.184376 396.07812 43.653126Q395.625 44.10625 395.625 44.934376L394.54688 44.934376Q394.54688 43.746876 395.29688 43.028126Q396.0625 42.29375 397.32812 42.29375Q398.53125 42.29375 399.21875 42.91875Q399.90625 43.54375 399.90625 44.590626Q399.90625 45.840626 398.29688 47.590626L396.01562 50.059376L400.29688 50.059376L400.29688 50.95Z" fill-rule="nonzero"/><path fill="#ffffff" d="M393.29688 50.95L387.70312 50.95L387.70312 50.16875L390.65625 46.8875Q391.3125 46.1375 391.5625 45.684376Q391.8125 45.215626 391.8125 44.715626Q391.8125 44.04375 391.40625 43.621876Q391.01562 43.184376 390.32812 43.184376Q389.53125 43.184376 389.07812 43.653126Q388.625 44.10625 388.625 44.934376L387.54688 44.934376Q387.54688 43.746876 388.29688 43.028126Q389.0625 42.29375 390.32812 42.29375Q391.53125 42.29375 392.21875 42.91875Q392.90625 43.54375 392.90625 44.590626Q392.90625 45.840626 391.29688 47.590626L389.01562 50.059376L393.29688 50.059376L393.29688 50.95ZM400.29688 50.95L394.70312 50.95L394.70312 50.16875L397.65625 46.8875Q398.3125 46.1375 398.5625 45.684376Q398.8125 45.215626 398.8125 44.715626Q398.8125 44.04375 398.40625 43.621876Q398.01562 43.184376 397.32812 43.184376Q396.53125 43.184376 396.07812 43.653126Q395.625 44.10625 395.625 44.934376L394.54688 44.934376Q394.54688 43.746876 395.29688 43.028126Q396.0625 42.29375 397.32812 42.29375Q398.53125 42.29375 399.21875 42.91875Q399.90625 43.54375 399.90625 44.590626Q399.90625 45.840626 398.29688 47.590626L396.01562 50.059376L400.29688 50.059376L400.29688 50.95Z" fill-rule="nonzero"/><path stroke="#cc0000" stroke-width="3.0" stroke-linejoin="round" stroke-linecap="round" d="M588.2969 50.95L582.7031 50.95L582.7031 50.16875L585.65625 46.8875Q586.3125 46.1375 586.5625 45.684376Q586.8125 45.215626 586.8125 44.715626Q586.8125 44.04375 586.40625 43.621876Q586.0156 43.184376 585.3281 43.184376Q584.53125 43.184376 584.0781 43.653126Q583.625 44.10625 583.625 44.934376L582.5469 44.934376Q582.5469 43.746876 583.2969 43.028126Q584.0625 42.29375 585.3281 42.29375Q586.53125 42.29375 587.21875 42.91875Q587.90625 43.54375 587.90625 44.590626Q587.90625 45.840626 586.2969 47.590626L584.0156 50.059376L588.2969 50.059376L588.2969 50.95ZM595.0625 47.309376Q595.0625 49.215626 594.40625 50.153126Q593.7656 51.075 592.375 51.075Q591.0156 51.075 590.3594 50.16875Q589.7031 49.2625 589.6719 47.45L589.6719 46.0125Q589.6719 44.121876 590.3125 43.215626Q590.96875 42.29375 592.3594 42.29375Q593.7344 42.29375 594.3906 43.184376Q595.0469 44.059376 595.0625 45.903126L595.0625 47.309376ZM593.96875 45.825Q593.96875 44.45 593.5781 43.825Q593.2031 43.184376 592.3594 43.184376Q591.53125 43.184376 591.1406 43.825Q590.7656 44.45 590.7656 45.746876L590.7656 47.48125Q590.7656 48.85625 591.15625 49.528126Q591.5625 50.184376 592.375 50.184376Q593.1719 50.184376 593.5625 49.559376Q593.9531 48.934376 593.96875 47.60625L593.96875 45.825Z" fill-rule="nonzero"/><path fill="#ffffff" d="M588.2969 50.95L582.7031 50.95L582.7031 50.16875L585.65625 46.8875Q586.3125 46.1375 586.5625 45.684376Q586.8125 45.215626 586.8125 44.715626Q586.8125 44.04375 586.40625 43.621876Q586.0156 43.184376 585.3281 43.184376Q584.53125 43.184376 584.0781 43.653126Q583.625 44.10625 583.625 44.934376L582.5469 44.934376Q582.5469 43.746876 583.2969 43.028126Q584.0625 42.29375 585.3281 42.29375Q586.53125 42.29375 587.21875 42.91875Q587.90625 43.54375 587.90625 44.590626Q587.90625 45.840626 586.2969 47.590626L584.0156 50.059376L588.2969 50.059376L588.2969 50.95ZM595.0625 47.309376Q595.0625 49.215626 594.40625 50.153126Q593.7656 51.075 592.375 51.075Q591.0156 51.075 590.3594 50.16875Q589.7031 49.2625 589.6719 47.45L589.6719 46.0125Q589.6719 44.121876 590.3125 43.215626Q590.96875 42.29375 592.3594 42.29375Q593.7344 42.29375 594.3906 43.184376Q595.0469 44.059376 595.0625 45.903126L595.0625 47.309376ZM593.96875 45.825Q593.96875 44.45 593.5781 43.825Q593.2031 43.184376 592.3594 43.184376Q591.53125 43.184376 591.1406 43.825Q590.7656 44.45 590.7656 45.746876L590.7656 47.48125Q590.7656 48.85625 591.15625 49.528126Q591.5625 50.184376 592.375 50.184376Q593.1719 50.184376 593.5625 49.559376Q593.9531 48.934376 593.96875 47.60625L593.96875 45.825Z" fill-rule="nonzero"/><path stroke="#cc0000" stroke-width="3.0" stroke-linejoin="round" stroke-linecap="round" d="M778.28125 46.153126L779.09375 46.153126Q779.875 46.1375 780.3125 45.746876Q780.75 45.35625 780.75 44.684376Q780.75 43.184376 779.25 43.184376Q778.5469 43.184376 778.125 43.590626Q777.71875 43.996876 777.71875 44.653126L776.625 44.653126Q776.625 43.6375 777.3594 42.965626Q778.1094 42.29375 779.25 42.29375Q780.4531 42.29375 781.1406 42.934376Q781.8281 43.575 781.8281 44.715626Q781.8281 45.278126 781.46875 45.79375Q781.1094 46.309376 780.4844 46.575Q781.1875 46.79375 781.5625 47.309376Q781.9531 47.825 781.9531 48.575Q781.9531 49.715626 781.2031 50.403126Q780.4531 51.075 779.25 51.075Q778.0625 51.075 777.2969 50.41875Q776.5469 49.7625 776.5469 48.7L777.6406 48.7Q777.6406 49.371876 778.0781 49.778126Q778.5156 50.184376 779.2656 50.184376Q780.0469 50.184376 780.4531 49.778126Q780.875 49.35625 780.875 48.590626Q780.875 47.85625 780.4219 47.465626Q779.96875 47.059376 779.09375 47.04375L778.28125 47.04375L778.28125 46.153126ZM787.2656 50.95L786.1875 50.95L786.1875 43.73125L784.0 44.528126L784.0 43.54375L787.1094 42.371876L787.2656 42.371876L787.2656 50.95Z" fill-rule="nonzero"/><path fill="#ffffff" d="M778.28125 46.153126L779.09375 46.153126Q779.875 46.1375 780.3125 45.746876Q780.75 45.35625 780.75 44.684376Q780.75 43.184376 779.25 43.184376Q778.5469 43.184376 778.125 43.590626Q777.71875 43.996876 777.71875 44.653126L776.625 44.653126Q776.625 43.6375 777.3594 42.965626Q778.1094 42.29375 779.25 42.29375Q780.4531 42.29375 781.1406 42.934376Q781.8281 43.575 781.8281 44.715626Q781.8281 45.278126 781.46875 45.79375Q781.1094 46.309376 780.4844 46.575Q781.1875 46.79375 781.5625 47.309376Q781.9531 47.825 781.9531 48.575Q781.9531 49.715626 781.2031 50.403126Q780.4531 51.075 779.25 51.075Q778.0625 51.075 777.2969 50.41875Q776.5469 49.7625 776.5469 48.7L777.6406 48.7Q777.6406 49.371876 778.0781 49.778126Q778.5156 50.184376 779.2656 50.184376Q780.0469 50.184376 780.4531 49.778126Q780.875 49.35625 780.875 48.590626Q780.875 47.85625 780.4219 47.465626Q779.96875 47.059376 779.09375 47.04375L778.28125 47.04375L778.28125 46.153126ZM787.2656 50.95L786.1875 50.95L786.1875 43.73125L784.0 44.528126L784.0 43.54375L787.1094 42.371876L787.2656 42.371876L787.2656 50.95Z" fill-rule="nonzero"/><path fill="#000000" d="M48.99375 421.05728Q48.99375 423.40103 48.259377 424.5104Q47.525 425.60416 45.978127 425.60416Q44.4 425.60416 43.665627 424.49478Q42.946877 423.36978 42.946877 421.05728Q42.946877 418.72916 43.68125 417.61978Q44.415627 416.5104 45.978127 416.5104Q47.540627 416.5104 48.259377 417.65103Q48.99375 418.77603 48.99375 421.05728ZM47.446877 423.71353Q47.65 423.22916 47.728127 422.58853Q47.80625 421.9479 47.80625 421.05728Q47.80625 420.16666 47.728127 419.5104Q47.65 418.85416 47.446877 418.3854Q47.24375 417.93228 46.884377 417.71353Q46.525 417.47916 45.978127 417.47916Q45.415627 417.47916 45.05625 417.71353Q44.696877 417.93228 44.49375 418.40103Q44.290627 418.83853 44.2125 419.54166Q44.15 420.22916 44.15 421.05728Q44.15 421.97916 44.2125 422.60416Q44.275 423.21353 44.478127 423.6979Q44.68125 424.15103 45.025 424.40103Q45.384377 424.6354 45.978127 424.6354Q46.525 424.6354 46.884377 424.40103Q47.24375 424.16666 47.446877 423.71353ZM55.3375 419.10416Q55.3375 420.41666 54.775 421.05728Q54.228127 421.6979 53.18125 421.6979Q52.11875 421.6979 51.571877 421.05728Q51.025 420.41666 51.025 419.11978Q51.025 417.80728 51.571877 417.16666Q52.134377 416.52603 53.18125 416.52603Q54.24375 416.52603 54.790627 417.18228Q55.3375 417.8229 55.3375 419.10416ZM59.384377 416.6979L54.80625 425.41666L53.8375 425.41666L58.415627 416.6979L59.384377 416.6979ZM62.196877 422.99478Q62.196877 424.30728 61.634377 424.9479Q61.071877 425.58853 60.040627 425.58853Q58.978127 425.58853 58.43125 424.9479Q57.884377 424.29166 57.884377 422.99478Q57.884377 421.68228 58.43125 421.05728Q58.99375 420.41666 60.040627 420.41666Q61.103127 420.41666 61.65 421.05728Q62.196877 421.68228 62.196877 422.99478ZM54.290627 419.10416Q54.290627 418.10416 54.025 417.71353Q53.759377 417.30728 53.18125 417.30728Q52.5875 417.30728 52.321877 417.71353Q52.071877 418.10416 52.071877 419.11978Q52.071877 420.1354 52.321877 420.52603Q52.5875 420.91666 53.18125 420.91666Q53.759377 420.91666 54.025 420.52603Q54.290627 420.1354 54.290627 419.10416ZM61.15 422.99478Q61.15 421.99478 60.884377 421.60416Q60.634377 421.1979 60.040627 421.1979Q59.446877 421.1979 59.18125 421.60416Q58.93125 421.99478 58.93125 422.99478Q58.93125 424.0104 59.18125 424.41666Q59.446877 424.80728 60.040627 424.80728Q60.634377 424.80728 60.884377 424.41666Q61.15 424.0104 61.15 422.99478Z" fill-rule="nonzero"/><path fill="#000000" d="M40.99375 328.85L35.0875 328.85L35.0875 327.63126Q35.7125 327.1 36.321877 326.56876Q36.946877 326.0375 37.478127 325.52188Q38.603127 324.42813 39.009377 323.7875Q39.43125 323.14688 39.43125 322.39688Q39.43125 321.725 38.978127 321.35Q38.540627 320.95938 37.74375 320.95938Q37.196877 320.95938 36.571877 321.14688Q35.9625 321.33438 35.36875 321.725L35.30625 321.725L35.30625 320.49063Q35.728127 320.2875 36.415627 320.11563Q37.11875 319.94376 37.759377 319.94376Q39.103127 319.94376 39.86875 320.6Q40.634377 321.24063 40.634377 322.35Q40.634377 322.85 40.509377 323.2875Q40.384377 323.70938 40.134377 324.08438Q39.9 324.45938 39.5875 324.81876Q39.290627 325.1625 38.853127 325.58438Q38.228127 326.19376 37.55625 326.77188Q36.884377 327.35 36.30625 327.85L40.99375 327.85L40.99375 328.85ZM48.93125 326.08438Q48.93125 326.69376 48.696877 327.25626Q48.478127 327.80313 48.103127 328.17813Q47.68125 328.58438 47.0875 328.81876Q46.509377 329.0375 45.74375 329.0375Q45.025 329.0375 44.353127 328.88126Q43.696877 328.725 43.24375 328.52188L43.24375 327.2875L43.321877 327.2875Q43.80625 327.58438 44.446877 327.80313Q45.103127 328.02188 45.7125 328.02188Q46.134377 328.02188 46.525 327.9125Q46.915627 327.7875 47.2125 327.49063Q47.478127 327.24063 47.603127 326.89688Q47.74375 326.5375 47.74375 326.06876Q47.74375 325.61563 47.5875 325.31876Q47.43125 325.00626 47.15 324.81876Q46.853127 324.58438 46.415627 324.50626Q45.978127 324.4125 45.43125 324.4125Q44.915627 324.4125 44.43125 324.49063Q43.9625 324.55313 43.61875 324.61563L43.61875 320.13126L48.86875 320.13126L48.86875 321.14688L44.759377 321.14688L44.759377 323.475Q45.009377 323.44376 45.259377 323.44376Q45.525 323.42813 45.728127 323.42813Q46.43125 323.42813 46.9625 323.55313Q47.49375 323.6625 47.946877 323.975Q48.415627 324.2875 48.665627 324.80313Q48.93125 325.30313 48.93125 326.08438ZM55.3375 322.5375Q55.3375 323.85 54.775 324.49063Q54.228127 325.13126 53.18125 325.13126Q52.11875 325.13126 51.571877 324.49063Q51.025 323.85 51.025 322.55313Q51.025 321.24063 51.571877 320.6Q52.134377 319.95938 53.18125 319.95938Q54.24375 319.95938 54.790627 320.61563Q55.3375 321.25626 55.3375 322.5375ZM59.384377 320.13126L54.80625 328.85L53.8375 328.85L58.415627 320.13126L59.384377 320.13126ZM62.196877 326.42813Q62.196877 327.74063 61.634377 328.38126Q61.071877 329.02188 60.040627 329.02188Q58.978127 329.02188 58.43125 328.38126Q57.884377 327.725 57.884377 326.42813Q57.884377 325.11563 58.43125 324.49063Q58.99375 323.85 60.040627 323.85Q61.103127 323.85 61.65 324.49063Q62.196877 325.11563 62.196877 326.42813ZM54.290627 322.5375Q54.290627 321.5375 54.025 321.14688Q53.759377 320.74063 53.18125 320.74063Q52.5875 320.74063 52.321877 321.14688Q52.071877 321.5375 52.071877 322.55313Q52.071877 323.56876 52.321877 323.95938Q52.5875 324.35 53.18125 324.35Q53.759377 324.35 54.025 323.95938Q54.290627 323.56876 54.290627 322.5375ZM61.15 326.42813Q61.15 325.42813 60.884377 325.0375Q60.634377 324.63126 60.040627 324.63126Q59.446877 324.63126 59.18125 325.0375Q58.93125 325.42813 58.93125 326.42813Q58.93125 327.44376 59.18125 327.85Q59.446877 328.24063 60.040627 328.24063Q60.634377 328.24063 60.884377 327.85Q61.15 327.44376 61.15 326.42813Z" fill-rule="nonzero"/><path fill="#000000" d="M40.93125 229.51772Q40.93125 230.12709 40.696877 230.68959Q40.478127 231.23647 40.103127 231.61147Q39.68125 232.01772 39.0875 232.25209Q38.509377 232.47084 37.74375 232.47084Q37.025 232.47084 36.353127 232.31459Q35.696877 232.15834 35.24375 231.95522L35.24375 230.72084L35.321877 230.72084Q35.80625 231.01772 36.446877 231.23647Q37.103127 231.45522 37.7125 231.45522Q38.134377 231.45522 38.525 231.34584Q38.915627 231.22084 39.2125 230.92397Q39.478127 230.67397 39.603127 230.33022Q39.74375 229.97084 39.74375 229.50209Q39.74375 229.04897 39.5875 228.75209Q39.43125 228.43959 39.15 228.25209Q38.853127 228.01772 38.415627 227.93959Q37.978127 227.84584 37.43125 227.84584Q36.915627 227.84584 36.43125 227.92397Q35.9625 227.98647 35.61875 228.04897L35.61875 223.56459L40.86875 223.56459L40.86875 224.58022L36.759377 224.58022L36.759377 226.90834Q37.009377 226.87709 37.259377 226.87709Q37.525 226.86147 37.728127 226.86147Q38.43125 226.86147 38.9625 226.98647Q39.49375 227.09584 39.946877 227.40834Q40.415627 227.72084 40.665627 228.23647Q40.93125 228.73647 40.93125 229.51772ZM48.99375 227.92397Q48.99375 230.26772 48.259377 231.37709Q47.525 232.47084 45.978127 232.47084Q44.4 232.47084 43.665627 231.36147Q42.946877 230.23647 42.946877 227.92397Q42.946877 225.59584 43.68125 224.48647Q44.415627 223.37709 45.978127 223.37709Q47.540627 223.37709 48.259377 224.51772Q48.99375 225.64272 48.99375 227.92397ZM47.446877 230.58022Q47.65 230.09584 47.728127 229.45522Q47.80625 228.81459 47.80625 227.92397Q47.80625 227.03334 47.728127 226.37709Q47.65 225.72084 47.446877 225.25209Q47.24375 224.79897 46.884377 224.58022Q46.525 224.34584 45.978127 224.34584Q45.415627 224.34584 45.05625 224.58022Q44.696877 224.79897 44.49375 225.26772Q44.290627 225.70522 44.2125 226.40834Q44.15 227.09584 44.15 227.92397Q44.15 228.84584 44.2125 229.47084Q44.275 230.08022 44.478127 230.56459Q44.68125 231.01772 45.025 231.26772Q45.384377 231.50209 45.978127 231.50209Q46.525 231.50209 46.884377 231.26772Q47.24375 231.03334 47.446877 230.58022ZM55.3375 225.97084Q55.3375 227.28334 54.775 227.92397Q54.228127 228.56459 53.18125 228.56459Q52.11875 228.56459 51.571877 227.92397Q51.025 227.28334 51.025 225.98647Q51.025 224.67397 51.571877 224.03334Q52.134377 223.39272 53.18125 223.39272Q54.24375 223.39272 54.790627 224.04897Q55.3375 224.68959 55.3375 225.97084ZM59.384377 223.56459L54.80625 232.28334L53.8375 232.28334L58.415627 223.56459L59.384377 223.56459ZM62.196877 229.86147Q62.196877 231.17397 61.634377 231.81459Q61.071877 232.45522 60.040627 232.45522Q58.978127 232.45522 58.43125 231.81459Q57.884377 231.15834 57.884377 229.86147Q57.884377 228.54897 58.43125 227.92397Q58.99375 227.28334 60.040627 227.28334Q61.103127 227.28334 61.65 227.92397Q62.196877 228.54897 62.196877 229.86147ZM54.290627 225.97084Q54.290627 224.97084 54.025 224.58022Q53.759377 224.17397 53.18125 224.17397Q52.5875 224.17397 52.321877 224.58022Q52.071877 224.97084 52.071877 225.98647Q52.071877 227.00209 52.321877 227.39272Q52.5875 227.78334 53.18125 227.78334Q53.759377 227.78334 54.025 227.39272Q54.290627 227.00209 54.290627 225.97084ZM61.15 229.86147Q61.15 228.86147 60.884377 228.47084Q60.634377 228.06459 60.040627 228.06459Q59.446877 228.06459 59.18125 228.47084Q58.93125 228.86147 58.93125 229.86147Q58.93125 230.87709 59.18125 231.28334Q59.446877 231.67397 60.040627 231.67397Q60.634377 231.67397 60.884377 231.28334Q61.15 230.87709 61.15 229.86147Z" fill-rule="nonzero"/><path fill="#000000" d="M41.025 128.29478L37.071877 135.71666L35.821877 135.71666L40.025 128.01353L35.05625 128.01353L35.05625 126.99791L41.025 126.99791L41.025 128.29478ZM48.93125 132.95103Q48.93125 133.56041 48.696877 134.12291Q48.478127 134.66978 48.103127 135.04478Q47.68125 135.45103 47.0875 135.68541Q46.509377 135.90416 45.74375 135.90416Q45.025 135.90416 44.353127 135.74791Q43.696877 135.59166 43.24375 135.38853L43.24375 134.15416L43.321877 134.15416Q43.80625 134.45103 44.446877 134.66978Q45.103127 134.88853 45.7125 134.88853Q46.134377 134.88853 46.525 134.77916Q46.915627 134.65416 47.2125 134.35728Q47.478127 134.10728 47.603127 133.76353Q47.74375 133.40416 47.74375 132.93541Q47.74375 132.48228 47.5875 132.18541Q47.43125 131.87291 47.15 131.68541Q46.853127 131.45103 46.415627 131.37291Q45.978127 131.27916 45.43125 131.27916Q44.915627 131.27916 44.43125 131.35728Q43.9625 131.41978 43.61875 131.48228L43.61875 126.99791L48.86875 126.99791L48.86875 128.01353L44.759377 128.01353L44.759377 130.34166Q45.009377 130.31041 45.259377 130.31041Q45.525 130.29478 45.728127 130.29478Q46.43125 130.29478 46.9625 130.41978Q47.49375 130.52916 47.946877 130.84166Q48.415627 131.15416 48.665627 131.66978Q48.93125 132.16978 48.93125 132.95103ZM55.3375 129.40416Q55.3375 130.71666 54.775 131.35728Q54.228127 131.99791 53.18125 131.99791Q52.11875 131.99791 51.571877 131.35728Q51.025 130.71666 51.025 129.41978Q51.025 128.10728 51.571877 127.46666Q52.134377 126.826035 53.18125 126.826035Q54.24375 126.826035 54.790627 127.482285Q55.3375 128.12291 55.3375 129.40416ZM59.384377 126.99791L54.80625 135.71666L53.8375 135.71666L58.415627 126.99791L59.384377 126.99791ZM62.196877 133.29478Q62.196877 134.60728 61.634377 135.24791Q61.071877 135.88853 60.040627 135.88853Q58.978127 135.88853 58.43125 135.24791Q57.884377 134.59166 57.884377 133.29478Q57.884377 131.98228 58.43125 131.35728Q58.99375 130.71666 60.040627 130.71666Q61.103127 130.71666 61.65 131.35728Q62.196877 131.98228 62.196877 133.29478ZM54.290627 129.40416Q54.290627 128.40416 54.025 128.01353Q53.759377 127.607285 53.18125 127.607285Q52.5875 127.607285 52.321877 128.01353Q52.071877 128.40416 52.071877 129.41978Q52.071877 130.43541 52.321877 130.82603Q52.5875 131.21666 53.18125 131.21666Q53.759377 131.21666 54.025 130.82603Q54.290627 130.43541 54.290627 129.40416ZM61.15 133.29478Q61.15 132.29478 60.884377 131.90416Q60.634377 131.49791 60.040627 131.49791Q59.446877 131.49791 59.18125 131.90416Q58.93125 132.29478 58.93125 133.29478Q58.93125 134.31041 59.18125 134.71666Q59.446877 135.10728 60.040627 135.10728Q60.634377 135.10728 60.884377 134.71666Q61.15 134.31041 61.15 133.29478Z" fill-rule="nonzero"/><path fill="#000000" d="M32.509377 39.15L27.775 39.15L27.775 38.259377L29.603125 38.259377L29.603125 32.415627L27.775 32.415627L27.775 31.618752Q28.15 31.618752 28.571875 31.556252Q28.99375 31.493752 29.2125 31.368752Q29.478125 31.228127 29.634375 31.009377Q29.790625 30.775002 29.80625 30.400002L30.728125 30.400002L30.728125 38.259377L32.509377 38.259377L32.509377 39.15ZM40.99375 34.790627Q40.99375 37.134377 40.259377 38.24375Q39.525 39.3375 37.978127 39.3375Q36.4 39.3375 35.665627 38.228127Q34.946877 37.103127 34.946877 34.790627Q34.946877 32.4625 35.68125 31.353127Q36.415627 30.243752 37.978127 30.243752Q39.540627 30.243752 40.259377 31.384377Q40.99375 32.509377 40.99375 34.790627ZM39.446877 37.446877Q39.65 36.9625 39.728127 36.321877Q39.80625 35.68125 39.80625 34.790627Q39.80625 33.9 39.728127 33.24375Q39.65 32.5875 39.446877 32.11875Q39.24375 31.665627 38.884377 31.446877Q38.525 31.212502 37.978127 31.212502Q37.415627 31.212502 37.05625 31.446877Q36.696877 31.665627 36.49375 32.134377Q36.290627 32.571877 36.2125 33.275Q36.15 33.9625 36.15 34.790627Q36.15 35.7125 36.2125 36.3375Q36.275 36.946877 36.478127 37.43125Q36.68125 37.884377 37.025 38.134377Q37.384377 38.36875 37.978127 38.36875Q38.525 38.36875 38.884377 38.134377Q39.24375 37.9 39.446877 37.446877ZM48.99375 34.790627Q48.99375 37.134377 48.259377 38.24375Q47.525 39.3375 45.978127 39.3375Q44.4 39.3375 43.665627 38.228127Q42.946877 37.103127 42.946877 34.790627Q42.946877 32.4625 43.68125 31.353127Q44.415627 30.243752 45.978127 30.243752Q47.540627 30.243752 48.259377 31.384377Q48.99375 32.509377 48.99375 34.790627ZM47.446877 37.446877Q47.65 36.9625 47.728127 36.321877Q47.80625 35.68125 47.80625 34.790627Q47.80625 33.9 47.728127 33.24375Q47.65 32.5875 47.446877 32.11875Q47.24375 31.665627 46.884377 31.446877Q46.525 31.212502 45.978127 31.212502Q45.415627 31.212502 45.05625 31.446877Q44.696877 31.665627 44.49375 32.134377Q44.290627 32.571877 44.2125 33.275Q44.15 33.9625 44.15 34.790627Q44.15 35.7125 44.2125 36.3375Q44.275 36.946877 44.478127 37.43125Q44.68125 37.884377 45.025 38.134377Q45.384377 38.36875 45.978127 38.36875Q46.525 38.36875 46.884377 38.134377Q47.24375 37.9 47.446877 37.446877ZM55.3375 32.8375Q55.3375 34.15 54.775 34.790627Q54.228127 35.43125 53.18125 35.43125Q52.11875 35.43125 51.571877 34.790627Q51.025 34.15 51.025 32.853127Q51.025 31.540627 51.571877 30.900002Q52.134377 30.259377 53.18125 30.259377Q54.24375 30.259377 54.790627 30.915627Q55.3375 31.556252 55.3375 32.8375ZM59.384377 30.431252L54.80625 39.15L53.8375 39.15L58.415627 30.431252L59.384377 30.431252ZM62.196877 36.728127Q62.196877 38.040627 61.634377 38.68125Q61.071877 39.321877 60.040627 39.321877Q58.978127 39.321877 58.43125 38.68125Q57.884377 38.025 57.884377 36.728127Q57.884377 35.415627 58.43125 34.790627Q58.99375 34.15 60.040627 34.15Q61.103127 34.15 61.65 34.790627Q62.196877 35.415627 62.196877 36.728127ZM54.290627 32.8375Q54.290627 31.837502 54.025 31.446877Q53.759377 31.040627 53.18125 31.040627Q52.5875 31.040627 52.321877 31.446877Q52.071877 31.837502 52.071877 32.853127Q52.071877 33.86875 52.321877 34.259377Q52.5875 34.65 53.18125 34.65Q53.759377 34.65 54.025 34.259377Q54.290627 33.86875 54.290627 32.8375ZM61.15 36.728127Q61.15 35.728127 60.884377 35.3375Q60.634377 34.93125 60.040627 34.93125Q59.446877 34.93125 59.18125 35.3375Q58.93125 35.728127 58.93125 36.728127Q58.93125 37.74375 59.18125 38.15Q59.446877 38.540627 60.040627 38.540627Q60.634377 38.540627 60.884377 38.15Q61.15 37.74375 61.15 36.728127Z" fill-rule="nonzero"/><path fill="#000000" d="M173.81789 451.41666L170.09914 451.41666L170.09914 441.68228L167.39601 447.99478L164.81789 447.99478L162.11476 441.68228L162.11476 451.41666L158.58351 451.41666L158.58351 436.86978L162.94289 436.86978L166.20851 444.16666L169.47414 436.86978L173.81789 436.86978L173.81789 451.41666ZM180.89601 451.41666L177.38039 451.41666L177.38039 440.4479L180.89601 440.4479L180.89601 451.41666ZM181.00539 438.8854L177.28664 438.8854L177.28664 436.21353L181.00539 436.21353L181.00539 438.8854ZM192.33351 443.79166L192.02101 443.79166Q191.80226 443.71353 191.30226 443.68228Q190.80226 443.6354 190.47414 443.6354Q189.72414 443.6354 189.14601 443.74478Q188.56789 443.83853 187.89601 444.0729L187.89601 451.41666L184.38039 451.41666L184.38039 440.4479L187.89601 440.4479L187.89601 442.05728Q189.06789 441.05728 189.92726 440.74478Q190.78664 440.41666 191.50539 440.41666Q191.69289 440.41666 191.92726 440.43228Q192.16164 440.43228 192.33351 440.4479L192.33351 443.79166ZM201.02101 448.55728L201.02101 446.27603Q200.31789 446.3229 199.47414 446.43228Q198.64601 446.52603 198.22414 446.66666Q197.69289 446.83853 197.41164 447.15103Q197.14601 447.46353 197.14601 447.99478Q197.14601 448.3229 197.19289 448.54166Q197.25539 448.7604 197.48976 448.9479Q197.70851 449.15103 198.02101 449.24478Q198.33351 449.33853 199.00539 449.33853Q199.53664 449.33853 200.06789 449.11978Q200.61476 448.90103 201.02101 448.55728ZM201.02101 450.2604Q200.73976 450.46353 200.31789 450.77603Q199.89601 451.0729 199.53664 451.24478Q199.02101 451.47916 198.45851 451.58853Q197.89601 451.71353 197.23976 451.71353Q195.67726 451.71353 194.61476 450.74478Q193.56789 449.77603 193.56789 448.27603Q193.56789 447.0729 194.09914 446.30728Q194.64601 445.54166 195.63039 445.10416Q196.59914 444.66666 198.03664 444.47916Q199.48976 444.29166 201.05226 444.21353L201.05226 444.15103Q201.05226 443.24478 200.30226 442.90103Q199.56789 442.54166 198.11476 442.54166Q197.23976 442.54166 196.25539 442.85416Q195.27101 443.16666 194.84914 443.3229L194.52101 443.3229L194.52101 440.68228Q195.08351 440.54166 196.33351 440.33853Q197.58351 440.1354 198.84914 440.1354Q201.84914 440.1354 203.17726 441.05728Q204.50539 441.97916 204.50539 443.9479L204.50539 451.41666L201.02101 451.41666L201.02101 450.2604ZM218.05226 451.41666L214.53664 451.41666L214.53664 450.27603Q213.63039 451.0104 212.83351 451.36978Q212.03664 451.71353 211.00539 451.71353Q209.00539 451.71353 207.80226 450.18228Q206.59914 448.6354 206.59914 446.0104Q206.59914 444.61978 207.00539 443.54166Q207.41164 442.46353 208.11476 441.68228Q208.78664 440.96353 209.72414 440.55728Q210.67726 440.15103 211.63039 440.15103Q212.61476 440.15103 213.23976 440.36978Q213.86476 440.5729 214.53664 440.8854L214.53664 436.21353L218.05226 436.21353L218.05226 451.41666ZM214.53664 448.3854L214.53664 443.0104Q214.16164 442.85416 213.75539 442.79166Q213.34914 442.71353 213.00539 442.71353Q211.61476 442.71353 210.91164 443.58853Q210.22414 444.4479 210.22414 445.97916Q210.22414 447.58853 210.77101 448.3229Q211.33351 449.04166 212.56789 449.04166Q213.05226 449.04166 213.58351 448.86978Q214.13039 448.68228 214.53664 448.3854ZM232.59914 445.93228Q232.59914 448.6354 231.02101 450.1979Q229.44289 451.7604 226.58351 451.7604Q223.73976 451.7604 222.16164 450.1979Q220.58351 448.6354 220.58351 445.93228Q220.58351 443.21353 222.16164 441.66666Q223.75539 440.10416 226.58351 440.10416Q229.45851 440.10416 231.02101 441.66666Q232.59914 443.22916 232.59914 445.93228ZM228.27101 448.60416Q228.61476 448.18228 228.78664 447.58853Q228.95851 446.99478 228.95851 445.96353Q228.95851 444.99478 228.77101 444.33853Q228.59914 443.68228 228.28664 443.29166Q227.97414 442.8854 227.53664 442.72916Q227.09914 442.55728 226.58351 442.55728Q226.08351 442.55728 225.67726 442.6979Q225.28664 442.83853 224.92726 443.24478Q224.61476 443.61978 224.41164 444.29166Q224.22414 444.9479 224.22414 445.96353Q224.22414 446.85416 224.38039 447.5104Q224.55226 448.16666 224.88039 448.5729Q225.19289 448.9479 225.63039 449.1354Q226.06789 449.30728 226.61476 449.30728Q227.09914 449.30728 227.53664 449.15103Q227.97414 448.97916 228.27101 448.60416ZM243.33351 443.79166L243.02101 443.79166Q242.80226 443.71353 242.30226 443.68228Q241.80226 443.6354 241.47414 443.6354Q240.72414 443.6354 240.14601 443.74478Q239.56789 443.83853 238.89601 444.0729L238.89601 451.41666L235.38039 451.41666L235.38039 440.4479L238.89601 440.4479L238.89601 442.05728Q240.06789 441.05728 240.92726 440.74478Q241.78664 440.41666 242.50539 440.41666Q242.69289 440.41666 242.92726 440.43228Q243.16164 440.43228 243.33351 440.4479L243.33351 443.79166Z" fill-rule="nonzero"/><path fill="#000000" d="M393.5018 446.15103Q393.5018 448.85416 391.86118 450.29166Q390.22055 451.71353 387.01743 451.71353Q383.82993 451.71353 382.1893 450.29166Q380.5643 448.85416 380.5643 446.16666L380.5643 436.86978L384.32993 436.86978L384.32993 445.9479Q384.32993 447.46353 384.95493 448.21353Q385.59555 448.9479 387.01743 448.9479Q388.42368 448.9479 389.07993 448.24478Q389.73618 447.52603 389.73618 445.9479L389.73618 436.86978L393.5018 436.86978L393.5018 446.15103ZM409.95493 436.86978L404.64243 451.41666L400.4393 451.41666L395.14243 436.86978L399.07993 436.86978L402.59555 447.08853L406.11118 436.86978L409.95493 436.86978Z" fill-rule="nonzero"/><path fill="#000000" d="M561.38885 451.41666L557.51385 451.41666L556.4982 448.47916L551.1076 448.47916L550.1076 451.41666L546.32635 451.41666L551.70135 436.86978L556.01385 436.86978L561.38885 451.41666ZM555.592 445.80728L553.8107 440.58853L552.01385 445.80728L555.592 445.80728ZM574.76385 451.41666L571.2326 451.41666L571.2326 445.97916Q571.2326 445.30728 571.1545 444.65103Q571.092 443.99478 570.9357 443.68228Q570.7326 443.3229 570.3576 443.16666Q569.9826 442.99478 569.3107 442.99478Q568.82635 442.99478 568.32635 443.15103Q567.842 443.30728 567.26385 443.6354L567.26385 451.41666L563.7482 451.41666L563.7482 440.4479L567.26385 440.4479L567.26385 441.66666Q568.20135 440.93228 569.0607 440.54166Q569.9357 440.15103 570.9826 440.15103Q572.76385 440.15103 573.76385 441.18228Q574.76385 442.21353 574.76385 444.27603L574.76385 451.41666ZM588.76385 451.41666L585.2326 451.41666L585.2326 445.97916Q585.2326 445.30728 585.1545 444.65103Q585.092 443.99478 584.9357 443.68228Q584.7326 443.3229 584.3576 443.16666Q583.9826 442.99478 583.3107 442.99478Q582.82635 442.99478 582.32635 443.15103Q581.842 443.30728 581.26385 443.6354L581.26385 451.41666L577.7482 451.41666L577.7482 440.4479L581.26385 440.4479L581.26385 441.66666Q582.20135 440.93228 583.0607 440.54166Q583.9357 440.15103 584.9826 440.15103Q586.76385 440.15103 587.76385 441.18228Q588.76385 442.21353 588.76385 444.27603L588.76385 451.41666ZM602.967 445.93228Q602.967 448.6354 601.38885 450.1979Q599.8107 451.7604 596.95135 451.7604Q594.1076 451.7604 592.5295 450.1979Q590.95135 448.6354 590.95135 445.93228Q590.95135 443.21353 592.5295 441.66666Q594.1232 440.10416 596.95135 440.10416Q599.82635 440.10416 601.38885 441.66666Q602.967 443.22916 602.967 445.93228ZM598.63885 448.60416Q598.9826 448.18228 599.1545 447.58853Q599.32635 446.99478 599.32635 445.96353Q599.32635 444.99478 599.13885 444.33853Q598.967 443.68228 598.6545 443.29166Q598.342 442.8854 597.9045 442.72916Q597.467 442.55728 596.95135 442.55728Q596.45135 442.55728 596.0451 442.6979Q595.6545 442.83853 595.2951 443.24478Q594.9826 443.61978 594.7795 444.29166Q594.592 444.9479 594.592 445.96353Q594.592 446.85416 594.7482 447.5104Q594.9201 448.16666 595.2482 448.5729Q595.5607 448.9479 595.9982 449.1354Q596.4357 449.30728 596.9826 449.30728Q597.467 449.30728 597.9045 449.15103Q598.342 448.97916 598.63885 448.60416ZM616.76385 451.41666L613.2326 451.41666L613.2326 445.97916Q613.2326 445.30728 613.1545 444.65103Q613.092 443.99478 612.9357 443.68228Q612.7326 443.3229 612.3576 443.16666Q611.9826 442.99478 611.3107 442.99478Q610.82635 442.99478 610.32635 443.15103Q609.842 443.30728 609.26385 443.6354L609.26385 451.41666L605.7482 451.41666L605.7482 440.4479L609.26385 440.4479L609.26385 441.66666Q610.20135 440.93228 611.0607 440.54166Q611.9357 440.15103 612.9826 440.15103Q614.76385 440.15103 615.76385 441.18228Q616.76385 442.21353 616.76385 444.27603L616.76385 451.41666ZM626.38885 448.55728L626.38885 446.27603Q625.6857 446.3229 624.842 446.43228Q624.01385 446.52603 623.592 446.66666Q623.0607 446.83853 622.7795 447.15103Q622.51385 447.46353 622.51385 447.99478Q622.51385 448.3229 622.5607 448.54166Q622.6232 448.7604 622.8576 448.9479Q623.07635 449.15103 623.38885 449.24478Q623.70135 449.33853 624.3732 449.33853Q624.9045 449.33853 625.4357 449.11978Q625.9826 448.90103 626.38885 448.55728ZM626.38885 450.2604Q626.1076 450.46353 625.6857 450.77603Q625.26385 451.0729 624.9045 451.24478Q624.38885 451.47916 623.82635 451.58853Q623.26385 451.71353 622.6076 451.71353Q621.0451 451.71353 619.9826 450.74478Q618.9357 449.77603 618.9357 448.27603Q618.9357 447.0729 619.467 446.30728Q620.01385 445.54166 620.9982 445.10416Q621.967 444.66666 623.4045 444.47916Q624.8576 444.29166 626.4201 444.21353L626.4201 444.15103Q626.4201 443.24478 625.6701 442.90103Q624.9357 442.54166 623.4826 442.54166Q622.6076 442.54166 621.6232 442.85416Q620.63885 443.16666 620.217 443.3229L619.88885 443.3229L619.88885 440.68228Q620.45135 440.54166 621.70135 440.33853Q622.95135 440.1354 624.217 440.1354Q627.217 440.1354 628.5451 441.05728Q629.8732 441.97916 629.8732 443.9479L629.8732 451.41666L626.38885 451.41666L626.38885 450.2604Z" fill-rule="nonzero"/><path fill="#000000" d="M755.69775 451.6979Q754.0884 451.6979 752.7134 451.22916Q751.3384 450.74478 750.354 449.79166Q749.3696 448.85416 748.82275 447.43228Q748.2759 446.0104 748.2759 444.16666Q748.2759 442.43228 748.7915 441.02603Q749.32275 439.61978 750.3071 438.61978Q751.2446 437.65103 752.6509 437.11978Q754.0571 436.58853 755.7134 436.58853Q756.63525 436.58853 757.3696 436.6979Q758.104 436.79166 758.729 436.96353Q759.38525 437.15103 759.9165 437.3854Q760.44775 437.60416 760.854 437.80728L760.854 441.3229L760.4165 441.3229Q760.1509 441.08853 759.729 440.77603Q759.32275 440.4479 758.7915 440.1354Q758.26025 439.8229 757.63525 439.61978Q757.01025 439.40103 756.2915 439.40103Q755.4946 439.40103 754.7759 439.65103Q754.07275 439.8854 753.4634 440.46353Q752.88525 441.02603 752.5259 441.9479Q752.1821 442.85416 752.1821 444.16666Q752.1821 445.54166 752.5571 446.46353Q752.94775 447.36978 753.5415 447.90103Q754.13525 448.43228 754.8696 448.66666Q755.604 448.90103 756.3071 448.90103Q756.9946 448.90103 757.6665 448.6979Q758.3384 448.47916 758.9009 448.1354Q759.3696 447.85416 759.7759 447.54166Q760.19775 447.21353 760.4634 446.97916L760.854 446.97916L760.854 450.4479Q760.3071 450.6979 759.8071 450.91666Q759.3071 451.11978 758.76025 451.27603Q758.0415 451.47916 757.4165 451.58853Q756.7915 451.6979 755.69775 451.6979ZM766.44775 451.41666L762.9321 451.41666L762.9321 436.21353L766.44775 436.21353L766.44775 451.41666ZM781.1509 445.93228Q781.1509 448.6354 779.57275 450.1979Q777.9946 451.7604 775.13525 451.7604Q772.2915 451.7604 770.7134 450.1979Q769.13525 448.6354 769.13525 445.93228Q769.13525 443.21353 770.7134 441.66666Q772.3071 440.10416 775.13525 440.10416Q778.01025 440.10416 779.57275 441.66666Q781.1509 443.22916 781.1509 445.93228ZM776.82275 448.60416Q777.1665 448.18228 777.3384 447.58853Q777.51025 446.99478 777.51025 445.96353Q777.51025 444.99478 777.32275 444.33853Q777.1509 443.68228 776.8384 443.29166Q776.5259 442.8854 776.0884 442.72916Q775.6509 442.55728 775.13525 442.55728Q774.63525 442.55728 774.229 442.6979Q773.8384 442.83853 773.479 443.24478Q773.1665 443.61978 772.9634 444.29166Q772.7759 444.9479 772.7759 445.96353Q772.7759 446.85416 772.9321 447.5104Q773.104 448.16666 773.4321 448.5729Q773.7446 448.9479 774.1821 449.1354Q774.6196 449.30728 775.1665 449.30728Q775.6509 449.30728 776.0884 449.15103Q776.5259 448.97916 776.82275 448.60416ZM794.979 440.4479L790.76025 451.41666L786.7759 451.41666L782.57275 440.4479L786.2915 440.4479L788.82275 447.99478L791.3384 440.4479L794.979 440.4479ZM807.7446 446.58853L799.69775 446.58853Q799.7759 447.86978 800.6665 448.55728Q801.57275 449.24478 803.3384 449.24478Q804.44775 449.24478 805.4946 448.83853Q806.5415 448.43228 807.13525 447.97916L807.5259 447.97916L807.5259 450.80728Q806.3384 451.27603 805.2759 451.49478Q804.229 451.71353 802.94775 451.71353Q799.6509 451.71353 797.88525 450.22916Q796.13525 448.74478 796.13525 445.99478Q796.13525 443.27603 797.7915 441.6979Q799.4634 440.10416 802.3696 440.10416Q805.0415 440.10416 806.38525 441.46353Q807.7446 442.80728 807.7446 445.35416L807.7446 446.58853ZM804.2446 444.52603Q804.2134 443.41666 803.69775 442.86978Q803.1821 442.30728 802.0884 442.30728Q801.07275 442.30728 800.4165 442.83853Q799.76025 443.35416 799.6821 444.52603L804.2446 444.52603ZM817.88525 443.79166L817.57275 443.79166Q817.354 443.71353 816.854 443.68228Q816.354 443.6354 816.0259 443.6354Q815.2759 443.6354 814.69775 443.74478Q814.1196 443.83853 813.44775 444.0729L813.44775 451.41666L809.9321 451.41666L809.9321 440.4479L813.44775 440.4479L813.44775 442.05728Q814.6196 441.05728 815.479 440.74478Q816.3384 440.41666 817.0571 440.41666Q817.2446 440.41666 817.479 440.43228Q817.7134 440.43228 817.88525 440.4479L817.88525 443.79166Z" fill-rule="nonzero"/><path fill="#cc0000" d="M367.5 480.35C367.5 479.79773 367.94772 479.35 368.5 479.35L378.5 479.35C379.05228 479.35 379.5 479.79773 379.5 480.35L379.5 490.35C379.5 490.90228 379.05228 491.35 378.5 491.35L368.5 491.35C367.94772 491.35 367.5 490.90228 367.5 490.35Z" fill-rule="nonzero"/><path fill="#1a1a1a" d="M399.25 492.85L397.09375 492.85L390.89062 481.14688L390.89062 492.85L389.26562 492.85L389.26562 479.75626L391.95312 479.75626L397.60938 490.44376L397.60938 479.75626L399.25 479.75626L399.25 492.85ZM410.5 487.94376Q410.5 490.35 409.26562 491.74063Q408.03125 493.11563 405.96875 493.11563Q403.89062 493.11563 402.65625 491.74063Q401.4375 490.35 401.4375 487.94376Q401.4375 485.55313 402.65625 484.1625Q403.89062 482.75626 405.96875 482.75626Q408.03125 482.75626 409.26562 484.1625Q410.5 485.55313 410.5 487.94376ZM408.78125 487.94376Q408.78125 486.0375 408.03125 485.11563Q407.29688 484.17813 405.96875 484.17813Q404.625 484.17813 403.875 485.11563Q403.14062 486.0375 403.14062 487.94376Q403.14062 489.7875 403.875 490.74063Q404.625 491.69376 405.96875 491.69376Q407.28125 491.69376 408.03125 490.75626Q408.78125 489.80313 408.78125 487.94376Z" fill-rule="nonzero"/><path fill="#f8db70" d="M427.5 480.35C427.5 479.79773 427.94772 479.35 428.5 479.35L438.5 479.35C439.05228 479.35 439.5 479.79773 439.5 480.35L439.5 490.35C439.5 490.90228 439.05228 491.35 438.5 491.35L428.5 491.35C427.94772 491.35 427.5 490.90228 427.5 490.35Z" fill-rule="nonzero"/><path fill="#1a1a1a" d="M457.8125 483.725Q457.8125 484.58438 457.51562 485.33438Q457.21875 486.06876 456.67188 486.61563Q455.98438 487.2875 455.0625 487.63126Q454.14062 487.975 452.73438 487.975L451.0 487.975L451.0 492.85L449.26562 492.85L449.26562 479.75626L452.8125 479.75626Q453.98438 479.75626 454.79688 479.95938Q455.625 480.1625 456.25 480.58438Q457.0 481.08438 457.40625 481.83438Q457.8125 482.56876 457.8125 483.725ZM456.01562 483.75626Q456.01562 483.08438 455.76562 482.58438Q455.53125 482.08438 455.04688 481.77188Q454.625 481.49063 454.07812 481.38126Q453.54688 481.25626 452.71875 481.25626L451.0 481.25626L451.0 486.49063L452.46875 486.49063Q453.51562 486.49063 454.17188 486.30313Q454.84375 486.11563 455.25 485.69376Q455.67188 485.27188 455.84375 484.80313Q456.01562 484.33438 456.01562 483.75626ZM467.75 492.85L466.10938 492.85L466.10938 491.80313Q465.89062 491.95938 465.51562 492.225Q465.14062 492.49063 464.79688 492.64688Q464.375 492.85 463.84375 492.975Q463.3125 493.11563 462.59375 493.11563Q461.26562 493.11563 460.34375 492.24063Q459.42188 491.36563 459.42188 490.00626Q459.42188 488.88126 459.89062 488.19376Q460.375 487.50626 461.26562 487.11563Q462.15625 486.70938 463.40625 486.56876Q464.67188 486.42813 466.10938 486.36563L466.10938 486.11563Q466.10938 485.55313 465.90625 485.17813Q465.71875 484.80313 465.34375 484.6Q465.0 484.39688 464.5 484.33438Q464.01562 484.25626 463.46875 484.25626Q462.82812 484.25626 462.01562 484.42813Q461.21875 484.6 460.375 484.92813L460.28125 484.92813L460.28125 483.24063Q460.76562 483.11563 461.67188 482.95938Q462.59375 482.7875 463.48438 482.7875Q464.51562 482.7875 465.28125 482.95938Q466.0625 483.13126 466.625 483.55313Q467.17188 483.95938 467.45312 484.6Q467.75 485.24063 467.75 486.19376L467.75 492.85ZM466.10938 490.42813L466.10938 487.69376Q465.35938 487.74063 464.32812 487.83438Q463.3125 487.9125 462.70312 488.08438Q462.0 488.2875 461.5625 488.725Q461.125 489.14688 461.125 489.88126Q461.125 490.725 461.625 491.1625Q462.14062 491.58438 463.1875 491.58438Q464.0625 491.58438 464.78125 491.25626Q465.5 490.9125 466.10938 490.42813ZM477.25 484.83438L477.17188 484.83438Q476.79688 484.74063 476.4375 484.70938Q476.09375 484.6625 475.625 484.6625Q474.85938 484.6625 474.14062 485.00626Q473.4375 485.35 472.78125 485.88126L472.78125 492.85L471.125 492.85L471.125 483.0375L472.78125 483.0375L472.78125 484.475Q473.76562 483.69376 474.51562 483.36563Q475.26562 483.0375 476.04688 483.0375Q476.48438 483.0375 476.67188 483.05313Q476.85938 483.06876 477.25 483.13126L477.25 484.83438ZM484.21875 492.75626Q483.76562 492.88126 483.20312 492.95938Q482.65625 493.0375 482.23438 493.0375Q480.71875 493.0375 479.9375 492.24063Q479.15625 491.42813 479.15625 489.64688L479.15625 484.42813L478.04688 484.42813L478.04688 483.0375L479.15625 483.0375L479.15625 480.20938L480.8125 480.20938L480.8125 483.0375L484.21875 483.0375L484.21875 484.42813L480.8125 484.42813L480.8125 488.89688Q480.8125 489.6625 480.84375 490.1Q480.89062 490.5375 481.09375 490.9125Q481.28125 491.27188 481.625 491.44376Q481.96875 491.6 482.65625 491.6Q483.0625 491.6 483.5 491.475Q483.9375 491.35 484.14062 491.27188L484.21875 491.27188L484.21875 492.75626ZM487.90625 481.38126L486.03125 481.38126L486.03125 479.67813L487.90625 479.67813L487.90625 481.38126ZM487.79688 492.85L486.14062 492.85L486.14062 483.0375L487.79688 483.0375L487.79688 492.85ZM498.75 492.85L497.10938 492.85L497.10938 491.80313Q496.89062 491.95938 496.51562 492.225Q496.14062 492.49063 495.79688 492.64688Q495.375 492.85 494.84375 492.975Q494.3125 493.11563 493.59375 493.11563Q492.26562 493.11563 491.34375 492.24063Q490.42188 491.36563 490.42188 490.00626Q490.42188 488.88126 490.89062 488.19376Q491.375 487.50626 492.26562 487.11563Q493.15625 486.70938 494.40625 486.56876Q495.67188 486.42813 497.10938 486.36563L497.10938 486.11563Q497.10938 485.55313 496.90625 485.17813Q496.71875 484.80313 496.34375 484.6Q496.0 484.39688 495.5 484.33438Q495.01562 484.25626 494.46875 484.25626Q493.82812 484.25626 493.01562 484.42813Q492.21875 484.6 491.375 484.92813L491.28125 484.92813L491.28125 483.24063Q491.76562 483.11563 492.67188 482.95938Q493.59375 482.7875 494.48438 482.7875Q495.51562 482.7875 496.28125 482.95938Q497.0625 483.13126 497.625 483.55313Q498.17188 483.95938 498.45312 484.6Q498.75 485.24063 498.75 486.19376L498.75 492.85ZM497.10938 490.42813L497.10938 487.69376Q496.35938 487.74063 495.32812 487.83438Q494.3125 487.9125 493.70312 488.08438Q493.0 488.2875 492.5625 488.725Q492.125 489.14688 492.125 489.88126Q492.125 490.725 492.625 491.1625Q493.14062 491.58438 494.1875 491.58438Q495.0625 491.58438 495.78125 491.25626Q496.5 490.9125 497.10938 490.42813ZM503.79688 492.85L502.14062 492.85L502.14062 479.17813L503.79688 479.17813L503.79688 492.85Z" fill-rule="nonzero"/><path fill="#93c47d" d="M521.5 480.35C521.5 479.79773 521.9477 479.35 522.5 479.35L532.5 479.35C533.0523 479.35 533.5 479.79773 533.5 480.35L533.5 490.35C533.5 490.90228 533.0523 491.35 532.5 491.35L522.5 491.35C521.9477 491.35 521.5 490.90228 521.5 490.35Z" fill-rule="nonzero"/><path fill="#1a1a1a" d="M552.5156 479.75626L547.9219 487.11563L547.9219 492.85L546.1719 492.85L546.1719 487.2875L541.5469 479.75626L543.4844 479.75626L547.0625 485.61563L550.6719 479.75626L552.5156 479.75626ZM562.34375 488.11563L555.1094 488.11563Q555.1094 489.02188 555.375 489.69376Q555.65625 490.36563 556.125 490.7875Q556.59375 491.20938 557.21875 491.42813Q557.84375 491.63126 558.59375 491.63126Q559.6094 491.63126 560.6094 491.24063Q561.625 490.83438 562.0625 490.44376L562.15625 490.44376L562.15625 492.25626Q561.3125 492.6 560.4375 492.85Q559.5781 493.08438 558.625 493.08438Q556.1719 493.08438 554.7969 491.75626Q553.4375 490.42813 553.4375 487.99063Q553.4375 485.58438 554.75 484.17813Q556.0625 482.75626 558.2031 482.75626Q560.1875 482.75626 561.2656 483.92813Q562.34375 485.08438 562.34375 487.20938L562.34375 488.11563ZM560.7344 486.85Q560.7344 485.55313 560.0781 484.83438Q559.4375 484.11563 558.1094 484.11563Q556.7969 484.11563 556.0 484.9125Q555.21875 485.69376 555.1094 486.85L560.7344 486.85ZM572.1406 490.02188Q572.1406 491.36563 571.03125 492.225Q569.9219 493.08438 567.9844 493.08438Q566.90625 493.08438 565.9844 492.83438Q565.0781 492.56876 564.46875 492.25626L564.46875 490.4125L564.5625 490.4125Q565.34375 490.99063 566.2969 491.35Q567.25 491.69376 568.125 491.69376Q569.21875 491.69376 569.8281 491.35Q570.4531 490.99063 570.4531 490.225Q570.4531 489.64688 570.125 489.35Q569.78125 489.05313 568.8281 488.83438Q568.4844 488.75626 567.90625 488.6625Q567.34375 488.55313 566.8906 488.42813Q565.59375 488.08438 565.0469 487.42813Q564.5156 486.75626 564.5156 485.7875Q564.5156 485.17813 564.7656 484.64688Q565.0156 484.11563 565.5156 483.69376Q566.0156 483.27188 566.7656 483.0375Q567.53125 482.7875 568.46875 482.7875Q569.3594 482.7875 570.25 483.00626Q571.15625 483.225 571.75 483.5375L571.75 485.30313L571.6719 485.30313Q571.03125 484.83438 570.125 484.52188Q569.21875 484.19376 568.3594 484.19376Q567.4531 484.19376 566.8281 484.5375Q566.2031 484.88126 566.2031 485.56876Q566.2031 486.17813 566.5781 486.49063Q566.9531 486.7875 567.7656 486.99063Q568.2344 487.1 568.7969 487.20938Q569.3594 487.30313 569.7344 487.39688Q570.8906 487.6625 571.5156 488.30313Q572.1406 488.94376 572.1406 490.02188Z" fill-rule="nonzero"/></svg>